<svg width="4" height="9" viewBox="0 0 4 9" fill="none" xmlns="http://www.w3.org/2000/svg">
<path id="Vector" d="M3.81768 4.94497L0.886515 8.41937C0.54164 8.8294 1.93366e-07 8.49616 1.73936e-07 7.87387L-4.30219e-08 0.925065C-8.81787e-05 0.785796 0.0294546 0.649444 0.0850907 0.532338C0.140727 0.415233 0.220098 0.322338 0.313698 0.264777C0.407299 0.207216 0.511162 0.18743 0.612849 0.207788C0.714536 0.228147 0.809736 0.287785 0.887049 0.379563L3.81715 3.85396C3.87458 3.92196 3.92061 4.00582 3.95215 4.0999C3.98368 4.19399 4 4.29613 4 4.39947C4 4.5028 3.98368 4.60494 3.95215 4.69903C3.92061 4.79311 3.87458 4.87697 3.81715 4.94497L3.81768 4.94497Z" fill="#374957"/>
</svg>
