<svg width="15" height="15" viewBox="0 0 15 15" fill="none" xmlns="http://www.w3.org/2000/svg">
<g id="exclamation-octagon-fill" clip-path="url(#clip0_361_826)">
<path id="Vector" d="M10.7437 0.136875C10.6559 0.0492478 10.5369 2.63615e-05 10.4128 0L4.58719 0C4.46311 2.63615e-05 4.3441 0.0492478 4.25625 0.136875L0.136875 4.25625C0.0492478 4.3441 2.63615e-05 4.46311 0 4.58719L0 10.4128C2.63615e-05 10.5369 0.0492478 10.6559 0.136875 10.7437L4.25625 14.8631C4.3441 14.9508 4.46311 15 4.58719 15H10.4128C10.5369 15 10.6559 14.9508 10.7437 14.8631L14.8631 10.7437C14.9508 10.6559 15 10.5369 15 10.4128V4.58719C15 4.46311 14.9508 4.3441 14.8631 4.25625L10.7437 0.136875ZM7.5 3.75C8.00156 3.75 8.39437 4.18313 8.34375 4.68281L8.01562 7.97062C8.0046 8.09979 7.9455 8.22011 7.85002 8.30778C7.75454 8.39546 7.62963 8.44411 7.5 8.44411C7.37037 8.44411 7.24546 8.39546 7.14998 8.30778C7.0545 8.22011 6.9954 8.09979 6.98438 7.97062L6.65625 4.68281C6.64447 4.56491 6.65751 4.44584 6.69454 4.33328C6.73157 4.22072 6.79177 4.11717 6.87126 4.02929C6.95075 3.94141 7.04776 3.87116 7.15605 3.82306C7.26434 3.77495 7.38151 3.75007 7.5 3.75ZM7.50187 9.375C7.75052 9.375 7.98897 9.47377 8.16479 9.64959C8.3406 9.8254 8.43937 10.0639 8.43937 10.3125C8.43937 10.5611 8.3406 10.7996 8.16479 10.9754C7.98897 11.1512 7.75052 11.25 7.50187 11.25C7.25323 11.25 7.01478 11.1512 6.83896 10.9754C6.66315 10.7996 6.56437 10.5611 6.56437 10.3125C6.56437 10.0639 6.66315 9.8254 6.83896 9.64959C7.01478 9.47377 7.25323 9.375 7.50187 9.375Z" fill="#374957"/>
</g>
<defs>
<clipPath id="clip0_361_826">
<rect width="15" height="15" fill="white"/>
</clipPath>
</defs>
</svg>
