<svg width="26" height="26" viewBox="0 0 26 26" fill="none" xmlns="http://www.w3.org/2000/svg">
<g id="Group 37803">
<path id="Union" fill-rule="evenodd" clip-rule="evenodd" d="M6.5 0H19.4794C23.0698 0 26 2.93016 26 6.52064V19.4794C26 23.0698 23.0698 26 19.4794 26H6.5C2.93016 26 0 23.0698 0 19.5V6.52064C0 2.93016 2.93016 0 6.5 0ZM20.9238 16.3841C20.9238 16.3841 21.0476 15.0016 21.0476 13.6397V12.3603C21.0476 10.9984 20.9238 9.61587 20.9238 9.61587C20.9238 9.61587 20.8 8.43968 20.3048 7.92381C19.7423 7.32388 19.1118 7.25198 18.769 7.2129C18.7345 7.20896 18.7029 7.20536 18.6746 7.20159C16.4048 7.03651 13 7.01587 13 7.01587C13 7.01587 9.59524 7.03651 7.30476 7.20159C7.27786 7.20517 7.24815 7.20861 7.21593 7.21233C6.87734 7.25143 6.26048 7.32268 5.69524 7.94444C5.22063 8.46032 5.07619 9.61587 5.07619 9.61587C5.07619 9.61587 4.95238 10.9984 4.95238 12.3603V13.6397C4.95238 15.0016 5.07619 16.3841 5.07619 16.3841C5.07619 16.3841 5.2 17.5397 5.69524 18.0556C6.21599 18.6284 6.88277 18.7047 7.29021 18.7514C7.36711 18.7602 7.43478 18.768 7.49048 18.7778C8.79048 18.9016 13.0206 18.9635 13.0206 18.9635C13.0206 18.9635 16.4254 18.9429 18.6952 18.7778C18.7277 18.7734 18.7643 18.7696 18.8045 18.7653C19.147 18.729 19.7507 18.665 20.3048 18.0556C20.7794 17.5397 20.9238 16.3841 20.9238 16.3841ZM11.3286 15.1873V10.4412L15.7032 12.8349L11.3286 15.1873Z" fill="white"/>
</g>
</svg>
