<svg width="18" height="20" viewBox="0 0 18 20" fill="none" xmlns="http://www.w3.org/2000/svg">
<g id="Vector">
<path d="M5.33333 7.33333C5.51014 7.33333 5.67971 7.40357 5.80474 7.5286C5.92976 7.65362 6 7.82319 6 8V16C6 16.1768 5.92976 16.3464 5.80474 16.4714C5.67971 16.5964 5.51014 16.6667 5.33333 16.6667C5.15652 16.6667 4.98695 16.5964 4.86193 16.4714C4.7369 16.3464 4.66667 16.1768 4.66667 16V8C4.66667 7.82319 4.7369 7.65362 4.86193 7.5286C4.98695 7.40357 5.15652 7.33333 5.33333 7.33333ZM8.66667 7.33333C8.84348 7.33333 9.01305 7.40357 9.13807 7.5286C9.2631 7.65362 9.33333 7.82319 9.33333 8V16C9.33333 16.1768 9.2631 16.3464 9.13807 16.4714C9.01305 16.5964 8.84348 16.6667 8.66667 16.6667C8.48985 16.6667 8.32029 16.5964 8.19526 16.4714C8.07024 16.3464 8 16.1768 8 16V8C8 7.82319 8.07024 7.65362 8.19526 7.5286C8.32029 7.40357 8.48985 7.33333 8.66667 7.33333ZM12.6667 8C12.6667 7.82319 12.5964 7.65362 12.4714 7.5286C12.3464 7.40357 12.1768 7.33333 12 7.33333C11.8232 7.33333 11.6536 7.40357 11.5286 7.5286C11.4036 7.65362 11.3333 7.82319 11.3333 8V16C11.3333 16.1768 11.4036 16.3464 11.5286 16.4714C11.6536 16.5964 11.8232 16.6667 12 16.6667C12.1768 16.6667 12.3464 16.5964 12.4714 16.4714C12.5964 16.3464 12.6667 16.1768 12.6667 16V8Z" fill="#132444"/>
<path fill-rule="evenodd" clip-rule="evenodd" d="M17.3333 4C17.3333 4.35362 17.1929 4.69276 16.9428 4.94281C16.6928 5.19286 16.3536 5.33333 16 5.33333H15.3333V17.3333C15.3333 18.0406 15.0524 18.7189 14.5523 19.219C14.0522 19.719 13.3739 20 12.6667 20H4.66667C3.95942 20 3.28115 19.719 2.78105 19.219C2.28095 18.7189 2 18.0406 2 17.3333V5.33333H1.33333C0.979711 5.33333 0.640573 5.19286 0.390524 4.94281C0.140476 4.69276 0 4.35362 0 4V2.66667C0 2.31304 0.140476 1.97391 0.390524 1.72386C0.640573 1.47381 0.979711 1.33333 1.33333 1.33333H6C6 0.979711 6.14048 0.640573 6.39052 0.390524C6.64057 0.140476 6.97971 0 7.33333 0H10C10.3536 0 10.6928 0.140476 10.9428 0.390524C11.1929 0.640573 11.3333 0.979711 11.3333 1.33333H16C16.3536 1.33333 16.6928 1.47381 16.9428 1.72386C17.1929 1.97391 17.3333 2.31304 17.3333 2.66667V4ZM3.49067 5.33333L3.33333 5.412V17.3333C3.33333 17.687 3.47381 18.0261 3.72386 18.2761C3.97391 18.5262 4.31304 18.6667 4.66667 18.6667H12.6667C13.0203 18.6667 13.3594 18.5262 13.6095 18.2761C13.8595 18.0261 14 17.687 14 17.3333V5.412L13.8427 5.33333H3.49067ZM1.33333 4V2.66667H16V4H1.33333Z" fill="#132444"/>
</g>
</svg>
