<svg width="96" height="27" viewBox="0 0 96 27" fill="none" xmlns="http://www.w3.org/2000/svg">
<rect width="96" height="27" fill="#E4EDFF"/>
<path d="M15.1055 14.2881H12.5146V12.9277H15.1055C15.5566 12.9277 15.9212 12.8548 16.1992 12.709C16.4772 12.5632 16.68 12.3626 16.8076 12.1074C16.9398 11.8477 17.0059 11.5514 17.0059 11.2188C17.0059 10.9043 16.9398 10.6104 16.8076 10.3369C16.68 10.0589 16.4772 9.83561 16.1992 9.66699C15.9212 9.49837 15.5566 9.41406 15.1055 9.41406H13.041V18H11.3252V8.04688H15.1055C15.8757 8.04688 16.5296 8.18359 17.0674 8.45703C17.6097 8.72591 18.0221 9.09961 18.3047 9.57812C18.5872 10.0521 18.7285 10.5944 18.7285 11.2051C18.7285 11.8477 18.5872 12.3991 18.3047 12.8594C18.0221 13.3197 17.6097 13.6729 17.0674 13.9189C16.5296 14.165 15.8757 14.2881 15.1055 14.2881ZM20.2666 8.04688H23.7871C24.5436 8.04688 25.1885 8.16081 25.7217 8.38867C26.2549 8.61654 26.6628 8.95378 26.9453 9.40039C27.2324 9.84245 27.376 10.3893 27.376 11.041C27.376 11.5378 27.2848 11.9753 27.1025 12.3535C26.9202 12.7318 26.6628 13.0508 26.3301 13.3105C25.9974 13.5658 25.6009 13.764 25.1406 13.9053L24.6211 14.1582H21.4561L21.4424 12.7979H23.8145C24.2246 12.7979 24.5664 12.7249 24.8398 12.5791C25.1133 12.4333 25.3184 12.235 25.4551 11.9844C25.5964 11.7292 25.667 11.4421 25.667 11.123C25.667 10.7767 25.5986 10.4759 25.4619 10.2207C25.3298 9.96094 25.1247 9.7627 24.8467 9.62598C24.5687 9.4847 24.2155 9.41406 23.7871 9.41406H21.9824V18H20.2666V8.04688ZM25.9473 18L23.6094 13.5293L25.4072 13.5225L27.7793 17.9111V18H25.9473ZM37.0215 12.75V13.2969C37.0215 14.0488 36.9235 14.7233 36.7275 15.3203C36.5316 15.9173 36.2513 16.4255 35.8867 16.8447C35.5267 17.264 35.0938 17.5853 34.5879 17.8086C34.082 18.0273 33.5215 18.1367 32.9062 18.1367C32.2956 18.1367 31.7373 18.0273 31.2314 17.8086C30.7301 17.5853 30.2949 17.264 29.9258 16.8447C29.5566 16.4255 29.2695 15.9173 29.0645 15.3203C28.8639 14.7233 28.7637 14.0488 28.7637 13.2969V12.75C28.7637 11.998 28.8639 11.3258 29.0645 10.7334C29.265 10.1364 29.5475 9.62826 29.9121 9.20898C30.2812 8.78516 30.7165 8.46387 31.2178 8.24512C31.7236 8.02181 32.2819 7.91016 32.8926 7.91016C33.5078 7.91016 34.0684 8.02181 34.5742 8.24512C35.0801 8.46387 35.5153 8.78516 35.8799 9.20898C36.2445 9.62826 36.5247 10.1364 36.7207 10.7334C36.9212 11.3258 37.0215 11.998 37.0215 12.75ZM35.3057 13.2969V12.7363C35.3057 12.1803 35.251 11.6904 35.1416 11.2666C35.0368 10.8382 34.8796 10.4805 34.6699 10.1934C34.4648 9.90169 34.2119 9.68294 33.9111 9.53711C33.6104 9.38672 33.2708 9.31152 32.8926 9.31152C32.5143 9.31152 32.1771 9.38672 31.8809 9.53711C31.5846 9.68294 31.3317 9.90169 31.1221 10.1934C30.917 10.4805 30.7598 10.8382 30.6504 11.2666C30.541 11.6904 30.4863 12.1803 30.4863 12.7363V13.2969C30.4863 13.8529 30.541 14.3451 30.6504 14.7734C30.7598 15.2018 30.9193 15.5641 31.1289 15.8604C31.3431 16.152 31.5983 16.373 31.8945 16.5234C32.1908 16.6693 32.528 16.7422 32.9062 16.7422C33.2891 16.7422 33.6286 16.6693 33.9248 16.5234C34.221 16.373 34.4717 16.152 34.6768 15.8604C34.8818 15.5641 35.0368 15.2018 35.1416 14.7734C35.251 14.3451 35.3057 13.8529 35.3057 13.2969ZM39.4346 8.04688H40.9658L43.8438 15.7236L46.7148 8.04688H48.2461L44.4453 18H43.2285L39.4346 8.04688ZM38.7373 8.04688H40.1934L40.4463 14.6914V18H38.7373V8.04688ZM47.4873 8.04688H48.9502V18H47.2344V14.6914L47.4873 8.04688ZM58.9238 12.75V13.2969C58.9238 14.0488 58.8258 14.7233 58.6299 15.3203C58.4339 15.9173 58.1536 16.4255 57.7891 16.8447C57.429 17.264 56.9961 17.5853 56.4902 17.8086C55.9844 18.0273 55.4238 18.1367 54.8086 18.1367C54.1979 18.1367 53.6396 18.0273 53.1338 17.8086C52.6325 17.5853 52.1973 17.264 51.8281 16.8447C51.459 16.4255 51.1719 15.9173 50.9668 15.3203C50.7663 14.7233 50.666 14.0488 50.666 13.2969V12.75C50.666 11.998 50.7663 11.3258 50.9668 10.7334C51.1673 10.1364 51.4499 9.62826 51.8145 9.20898C52.1836 8.78516 52.6188 8.46387 53.1201 8.24512C53.626 8.02181 54.1842 7.91016 54.7949 7.91016C55.4102 7.91016 55.9707 8.02181 56.4766 8.24512C56.9824 8.46387 57.4176 8.78516 57.7822 9.20898C58.1468 9.62826 58.4271 10.1364 58.623 10.7334C58.8236 11.3258 58.9238 11.998 58.9238 12.75ZM57.208 13.2969V12.7363C57.208 12.1803 57.1533 11.6904 57.0439 11.2666C56.9391 10.8382 56.7819 10.4805 56.5723 10.1934C56.3672 9.90169 56.1143 9.68294 55.8135 9.53711C55.5127 9.38672 55.1732 9.31152 54.7949 9.31152C54.4167 9.31152 54.0794 9.38672 53.7832 9.53711C53.487 9.68294 53.234 9.90169 53.0244 10.1934C52.8193 10.4805 52.6621 10.8382 52.5527 11.2666C52.4434 11.6904 52.3887 12.1803 52.3887 12.7363V13.2969C52.3887 13.8529 52.4434 14.3451 52.5527 14.7734C52.6621 15.2018 52.8216 15.5641 53.0312 15.8604C53.2454 16.152 53.5007 16.373 53.7969 16.5234C54.0931 16.6693 54.4303 16.7422 54.8086 16.7422C55.1914 16.7422 55.5309 16.6693 55.8271 16.5234C56.1234 16.373 56.374 16.152 56.5791 15.8604C56.7842 15.5641 56.9391 15.2018 57.0439 14.7734C57.1533 14.3451 57.208 13.8529 57.208 13.2969ZM66.5186 14.7598H68.2275C68.1729 15.4115 67.9906 15.9925 67.6807 16.5029C67.3708 17.0088 66.9355 17.4076 66.375 17.6992C65.8145 17.9909 65.1331 18.1367 64.3311 18.1367C63.7158 18.1367 63.1621 18.0273 62.6699 17.8086C62.1777 17.5853 61.7562 17.2708 61.4053 16.8652C61.0544 16.4551 60.7855 15.9606 60.5986 15.3818C60.4163 14.8031 60.3252 14.1559 60.3252 13.4404V12.6133C60.3252 11.8978 60.4186 11.2507 60.6055 10.6719C60.7969 10.0931 61.0703 9.59863 61.4258 9.18848C61.7812 8.77376 62.2074 8.45703 62.7041 8.23828C63.2054 8.01953 63.7682 7.91016 64.3926 7.91016C65.1855 7.91016 65.8555 8.05599 66.4023 8.34766C66.9492 8.63932 67.373 9.04264 67.6738 9.55762C67.9792 10.0726 68.166 10.6628 68.2344 11.3281H66.5254C66.4798 10.8997 66.3796 10.5329 66.2246 10.2275C66.0742 9.9222 65.8509 9.68978 65.5547 9.53027C65.2585 9.36621 64.8711 9.28418 64.3926 9.28418C64.0007 9.28418 63.6589 9.3571 63.3672 9.50293C63.0755 9.64876 62.8317 9.86296 62.6357 10.1455C62.4398 10.4281 62.2917 10.7767 62.1914 11.1914C62.0957 11.6016 62.0479 12.071 62.0479 12.5996V13.4404C62.0479 13.9417 62.0911 14.3975 62.1777 14.8076C62.2689 15.2132 62.4056 15.5618 62.5879 15.8535C62.7747 16.1452 63.0117 16.3708 63.2988 16.5303C63.5859 16.6898 63.93 16.7695 64.3311 16.7695C64.8187 16.7695 65.2129 16.6921 65.5137 16.5371C65.819 16.3822 66.0492 16.1566 66.2041 15.8604C66.3636 15.5596 66.4684 15.1927 66.5186 14.7598ZM73.8809 15.0127V8.04688H75.5898V15.0127C75.5898 15.6735 75.4486 16.2363 75.166 16.7012C74.8835 17.166 74.4984 17.5215 74.0107 17.7676C73.5231 18.0137 72.9694 18.1367 72.3496 18.1367C71.7161 18.1367 71.1533 18.0296 70.6611 17.8154C70.1735 17.6012 69.7907 17.2731 69.5127 16.8311C69.2347 16.389 69.0957 15.8285 69.0957 15.1494H70.8184C70.8184 15.5413 70.8799 15.8581 71.0029 16.0996C71.1305 16.3366 71.3083 16.5098 71.5361 16.6191C71.7686 16.724 72.0397 16.7764 72.3496 16.7764C72.6458 16.7764 72.9079 16.7103 73.1357 16.5781C73.3682 16.4414 73.5505 16.2432 73.6826 15.9834C73.8148 15.7191 73.8809 15.3955 73.8809 15.0127ZM81.291 9.37305L78.3174 18H76.5195L80.2656 8.04688H81.4141L81.291 9.37305ZM83.7793 18L80.7988 9.37305L80.6689 8.04688H81.8242L85.584 18H83.7793ZM83.6357 14.3086V15.6689H78.2217V14.3086H83.6357Z" fill="#374957"/>
</svg>
