<svg width="48" height="64" viewBox="0 0 48 64" fill="none" xmlns="http://www.w3.org/2000/svg">
<g id="Group 37784">
<path id="Vector" d="M45.8804 34.5L43.2004 29.84L25.0904 40.33L27.7704 44.99L45.8804 34.5ZM42.6704 38.31L27.8804 46.87C27.6804 46.99 27.4704 47.01 27.2404 46.95C27.0204 46.89 26.8404 46.76 26.7304 46.56L24.7804 43.17V61.22L42.6704 50.86V38.31ZM5.20038 50.86L23.0904 61.22V43.17L21.1404 46.56C21.0204 46.76 20.8504 46.89 20.6304 46.95C20.5604 46.97 20.4904 46.98 20.4104 46.98C20.2604 46.98 20.1204 46.94 19.9904 46.87L5.21038 38.31V50.86H5.20038ZM1.99038 34.49L20.1004 44.98L22.7804 40.32L4.67038 29.84L1.99038 34.5V34.49ZM15.5904 15.85C15.5904 17.45 16.0704 18.88 17.0304 20.16C18.7604 22.5 19.0504 24.33 19.0904 26.82H28.7304C28.6304 24.72 29.1204 22.78 30.2204 20.99C30.3904 20.72 30.5804 20.45 30.7804 20.17C31.7404 18.89 32.2204 17.46 32.2204 15.86C32.2204 11.63 28.4904 8.2 23.9004 8.2C19.3104 8.2 15.5904 11.63 15.5904 15.86V15.85ZM28.7204 29.64V28.5H19.0904V29.64C19.0904 29.79 19.1204 29.94 19.1804 30.08C19.2404 30.22 19.3204 30.34 19.4304 30.45C19.5404 30.56 19.6604 30.64 19.8004 30.7C19.9404 30.76 20.0804 30.79 20.2304 30.79H27.5904C27.7404 30.79 27.8904 30.76 28.0204 30.7C28.1604 30.64 28.2804 30.56 28.3904 30.45C28.5004 30.34 28.5804 30.22 28.6404 30.08C28.7004 29.94 28.7304 29.8 28.7304 29.64H28.7204ZM21.5704 33.16C21.5704 33.35 21.6404 33.51 21.7704 33.65C21.9004 33.78 22.0704 33.85 22.2604 33.85H25.5504C25.7404 33.85 25.9004 33.78 26.0404 33.65C26.1804 33.52 26.2404 33.35 26.2404 33.16V32.47H21.5804V33.16H21.5704ZM41.8204 28.68L31.2604 22.57C30.4604 24.16 30.4104 25.59 30.4104 27.66V29.64C30.4104 29.99 30.3504 30.32 30.2304 30.64C30.1104 30.96 29.9304 31.25 29.7004 31.51C29.4704 31.77 29.2004 31.98 28.9004 32.14C28.6004 32.3 28.2704 32.4 27.9304 32.44V33.15C27.9304 33.47 27.8704 33.77 27.7504 34.06C27.6304 34.35 27.4604 34.61 27.2404 34.83C27.0204 35.05 26.7604 35.23 26.4704 35.35C26.1804 35.47 25.8804 35.53 25.5604 35.53H22.2704C21.9604 35.53 21.6504 35.47 21.3604 35.35C21.0704 35.23 20.8104 35.06 20.5904 34.83C20.3704 34.61 20.2004 34.35 20.0804 34.06C19.9604 33.77 19.9004 33.47 19.9004 33.15V32.44C19.5604 32.4 19.2304 32.3 18.9304 32.14C18.6304 31.98 18.3604 31.77 18.1304 31.51C17.9004 31.25 17.7304 30.96 17.6004 30.64C17.4804 30.32 17.4204 29.98 17.4204 29.64V27.66C17.4204 25.6 17.3704 24.17 16.5804 22.59L6.06038 28.68L23.9504 39.04L41.8404 28.69L41.8204 28.68ZM47.8404 35.02C47.7804 35.25 47.6504 35.42 47.4504 35.53L44.3504 37.33V51.35C44.3504 51.68 44.2104 51.92 43.9304 52.08L24.3604 63.41C24.3604 63.41 24.3004 63.44 24.2704 63.46C24.2704 63.46 24.2104 63.48 24.1804 63.49H24.1604C24.1604 63.49 24.1104 63.51 24.0804 63.51H24.0504C23.9804 63.52 23.9204 63.52 23.8504 63.51H23.8204C23.8204 63.51 23.7704 63.5 23.7404 63.49H23.7104C23.7104 63.49 23.6504 63.46 23.6204 63.45C23.6204 63.45 23.5604 63.42 23.5304 63.4L3.94038 52.08C3.66038 51.92 3.52038 51.67 3.52038 51.35V37.33L0.420381 35.53C0.220381 35.41 0.0903811 35.24 0.0303811 35.02C-0.0296189 34.8 0.000381052 34.58 0.110381 34.38L3.63038 28.26C3.63038 28.26 3.65038 28.22 3.66038 28.21C3.66038 28.21 3.67038 28.19 3.68038 28.18C3.68038 28.18 3.70038 28.15 3.71038 28.14C3.72038 28.13 3.72038 28.12 3.73038 28.12C3.73038 28.12 3.75038 28.1 3.77038 28.08L3.79038 28.06C3.79038 28.06 3.81038 28.04 3.82038 28.03L3.85038 28.01C3.85038 28.01 3.87038 27.99 3.88038 27.99L3.92038 27.97H3.93038L15.6604 21.17C14.4904 19.6 13.9004 17.83 13.9004 15.86C13.9004 10.7 18.3904 6.51 23.9004 6.51C29.4104 6.51 33.9004 10.71 33.9004 15.86C33.9004 17.82 33.3104 19.58 32.1504 21.15L43.9204 27.96C43.9204 27.96 43.9504 27.98 43.9704 28H43.9904L44.0304 28.05L44.0504 28.07C44.0504 28.07 44.0704 28.09 44.0804 28.1L44.1104 28.13L44.1304 28.16C44.1304 28.16 44.1504 28.18 44.1604 28.2C44.1704 28.22 44.1704 28.22 44.1804 28.23C44.1804 28.23 44.2004 28.26 44.2104 28.27L47.7304 34.4C47.8504 34.6 47.8704 34.81 47.8104 35.04L47.8404 35.02ZM29.5404 5.92C29.7404 6.04 29.9504 6.06 30.1804 6C30.4004 5.94 30.5804 5.81 30.6904 5.61L32.1004 3.15C32.2004 2.95 32.2204 2.74 32.1604 2.52C32.1004 2.3 31.9704 2.14 31.7704 2.03C31.5704 1.92 31.3704 1.89 31.1504 1.94C30.9304 1.99 30.7604 2.11 30.6404 2.3L29.2304 4.76C29.1104 4.96 29.0904 5.18 29.1504 5.4C29.2104 5.62 29.3404 5.8 29.5404 5.91V5.92ZM34.8304 10.58C34.9804 10.58 35.1204 10.54 35.2504 10.47L37.7004 9.05C37.8004 9 37.8904 8.93 37.9704 8.84C38.0404 8.75 38.1004 8.65 38.1304 8.54C38.1604 8.43 38.1704 8.31 38.1604 8.2C38.1504 8.08 38.1104 7.98 38.0504 7.88C37.9904 7.78 37.9204 7.69 37.8204 7.62C37.7304 7.55 37.6204 7.5 37.5104 7.48C37.4004 7.46 37.2804 7.45 37.1704 7.47C37.0604 7.49 36.9504 7.53 36.8504 7.6L34.4004 9.02C34.2404 9.12 34.1204 9.25 34.0504 9.43C33.9804 9.61 33.9704 9.79 34.0204 9.97C34.0704 10.15 34.1704 10.3 34.3204 10.42C34.4704 10.54 34.6404 10.6 34.8304 10.6V10.58ZM35.9304 16.11C35.9304 16.34 36.0104 16.54 36.1804 16.71C36.3404 16.88 36.5404 16.96 36.7804 16.96H39.6104C39.7304 16.96 39.8404 16.96 39.9504 16.91C40.0604 16.87 40.1604 16.81 40.2404 16.73C40.3304 16.65 40.3904 16.56 40.4404 16.45C40.4904 16.34 40.5104 16.23 40.5104 16.11C40.5104 15.99 40.4904 15.88 40.4404 15.77C40.3904 15.66 40.3304 15.57 40.2404 15.49C40.1504 15.41 40.0604 15.35 39.9504 15.31C39.8404 15.27 39.7304 15.25 39.6104 15.26H36.7804C36.5504 15.26 36.3504 15.34 36.1804 15.51C36.0204 15.67 35.9304 15.87 35.9304 16.11ZM8.26038 17.87H11.0904C11.2104 17.87 11.3204 17.87 11.4304 17.82C11.5404 17.78 11.6404 17.72 11.7204 17.64C11.8004 17.56 11.8704 17.47 11.9204 17.36C11.9704 17.25 11.9904 17.14 11.9904 17.02C11.9904 16.9 11.9704 16.79 11.9204 16.68C11.8704 16.57 11.8104 16.48 11.7204 16.4C11.6304 16.32 11.5404 16.26 11.4304 16.22C11.3204 16.18 11.2104 16.16 11.0904 16.17H8.26038C8.14038 16.17 8.03038 16.17 7.92038 16.22C7.81038 16.26 7.71038 16.32 7.63038 16.4C7.54038 16.48 7.48038 16.57 7.43038 16.68C7.38038 16.79 7.36038 16.9 7.36038 17.02C7.36038 17.14 7.38038 17.25 7.43038 17.36C7.48038 17.47 7.54038 17.56 7.63038 17.64C7.72038 17.72 7.81038 17.78 7.92038 17.82C8.03038 17.86 8.14038 17.88 8.26038 17.87ZM9.71038 9.84L12.1604 11.26C12.2604 11.32 12.3604 11.37 12.4804 11.39C12.5904 11.41 12.7104 11.41 12.8204 11.39C12.9304 11.36 13.0404 11.31 13.1304 11.25C13.2204 11.18 13.3004 11.1 13.3604 10.99C13.4204 10.88 13.4504 10.78 13.4704 10.67C13.4804 10.55 13.4704 10.44 13.4404 10.33C13.4104 10.22 13.3504 10.12 13.2804 10.03C13.2104 9.94 13.1204 9.87 13.0104 9.82L10.5604 8.4C10.4604 8.34 10.3604 8.29 10.2404 8.27C10.1304 8.25 10.0104 8.25 9.90038 8.27C9.79038 8.3 9.68038 8.35 9.59038 8.41C9.50038 8.48 9.42038 8.56 9.36038 8.67C9.30038 8.78 9.27038 8.88 9.25038 8.99C9.24038 9.11 9.25038 9.22 9.28038 9.33C9.31038 9.44 9.37038 9.54 9.44038 9.63C9.51038 9.72 9.60038 9.79 9.71038 9.84ZM16.3804 6.07C16.4904 6.29 16.6604 6.43 16.8904 6.5C17.1204 6.57 17.3404 6.54 17.5504 6.42C17.7604 6.3 17.8904 6.12 17.9504 5.88C18.0104 5.64 17.9704 5.43 17.8404 5.22L16.4304 2.76C16.3104 2.57 16.1404 2.45 15.9204 2.4C15.7004 2.35 15.5004 2.38 15.3004 2.49C15.1104 2.6 14.9804 2.77 14.9104 2.98C14.8504 3.2 14.8604 3.4 14.9704 3.6L16.3804 6.06V6.07ZM22.6304 3.69V0.85C22.6304 0.62 22.7104 0.42 22.8804 0.25C23.0404 0.08 23.2404 0 23.4804 0C23.7204 0 23.9104 0.08 24.0804 0.25C24.2404 0.42 24.3304 0.61 24.3304 0.85V3.69C24.3304 3.92 24.2504 4.12 24.0804 4.29C23.9204 4.46 23.7204 4.54 23.4804 4.54C23.2404 4.54 23.0504 4.46 22.8804 4.29C22.7204 4.12 22.6304 3.92 22.6304 3.69Z" fill="#374957"/>
</g>
</svg>
