<svg width="54" height="54" viewBox="0 0 54 54" fill="none" xmlns="http://www.w3.org/2000/svg">
<g id="Group 37788">
<path id="Shape_480_" d="M50.3793 21.69C49.9319 9.59418 40.0041 0.0149766 27.9 0H26.0999C17.5247 0.0232031 9.70386 4.90577 5.91753 12.6H5.4C2.41893 12.603 0.00295313 15.019 0 18V36.0001C0.00326953 38.634 1.9035 40.8827 4.50004 41.3254V45.9C4.50004 46.2409 4.69262 46.5525 4.99753 46.7049C5.30244 46.8573 5.66726 46.8245 5.94 46.6199L12.8997 41.4H32.4C35.3811 41.397 37.797 38.981 37.8 36V18C37.797 15.019 35.3811 12.603 32.4 12.6H12.1797C15.3869 8.09525 20.5702 5.41434 26.1 5.4H27.9001C36.9845 5.41498 44.4729 12.5283 44.9542 21.6H42.3C40.8089 21.6 39.6 22.8089 39.6 24.3V38.7C39.6 40.1911 40.8089 41.4 42.3 41.4H45V42.2999C44.9971 44.7839 42.9841 46.7969 40.5 46.8H24.1344C23.7544 45.725 22.7401 45.0047 21.6 44.9999H14.4C12.9088 44.9999 11.7 46.2088 11.7 47.6999V51.3C11.7 52.7911 12.9088 54 14.4 54H21.6C22.7401 53.9953 23.7544 53.2749 24.1344 52.2H40.5C45.965 52.1935 50.3936 47.7649 50.4 42.2999V41.3099C52.4938 40.8793 53.9974 39.0375 54 36.8999V26.0999C53.996 23.9559 52.4817 22.1114 50.3793 21.69ZM36 18V36.0001C36 37.9883 34.3882 39.6 32.4 39.6H12.6C12.4053 39.6 12.2158 39.6632 12.06 39.7801L6.30007 44.1001V40.5C6.30007 40.0029 5.89707 39.6 5.40011 39.6C3.41191 39.6 1.80014 37.9883 1.80014 36.0001V18C1.80014 16.0118 3.41191 14.4001 5.40011 14.4001H32.4001C34.3882 14.4 36 16.0117 36 18ZM27.9 3.59996H26.0999C19.5445 3.6161 13.4634 7.02032 10.0224 12.5999H7.93262C11.5667 5.95709 18.5281 1.8186 26.1 1.79993H27.9001C38.9764 1.81343 48.084 10.5346 48.5775 21.5999H46.7541C46.2706 11.5343 37.9774 3.61673 27.9 3.59996ZM41.4 38.7V24.3C41.4 23.8029 41.8029 23.4 42.2999 23.4H44.9999V39.6H42.2999C41.803 39.6 41.4 39.197 41.4 38.7ZM22.5 51.3C22.5 51.7971 22.097 52.2 21.6 52.2H14.4C13.9029 52.2 13.5 51.7971 13.5 51.3V47.7C13.5 47.203 13.903 46.8001 14.4 46.8001H21.6C22.0971 46.8001 22.5 47.203 22.5 47.7V51.3ZM40.5 50.4H24.3V48.6H40.5C43.9775 48.5956 46.7955 45.7775 46.8 42.3V41.4001H48.6V42.3C48.595 46.7715 44.9715 50.3951 40.5 50.4ZM52.2 36.9C52.2 38.3912 50.9911 39.6 49.5 39.6H46.8V23.4H49.5C50.9911 23.4 52.2 24.6089 52.2 26.1V36.9Z" fill="#374957"/>
<path id="Shape_479_" d="M4.5 21.6C4.5 22.0971 4.903 22.4999 5.39996 22.4999H22.4999C22.997 22.4999 23.3999 22.0969 23.3999 21.6C23.3999 21.1029 22.9969 20.7 22.4999 20.7H5.39996C4.90289 20.7 4.5 21.1029 4.5 21.6Z" fill="#374957"/>
<path id="Shape_478_" d="M26.1002 22.4999H32.4001C32.8972 22.4999 33.3001 22.0969 33.3001 21.6C33.3001 21.1029 32.8972 20.7 32.4001 20.7H26.1002C25.6031 20.7 25.2002 21.103 25.2002 21.6C25.2001 22.0971 25.6031 22.4999 26.1002 22.4999Z" fill="#374957"/>
<path id="Shape_477_" d="M32.4 26.1H5.39996C4.90289 26.1 4.5 26.503 4.5 27C4.5 27.4971 4.903 27.9 5.39996 27.9H32.4C32.897 27.9 33.2999 27.497 33.2999 27C33.2999 26.5029 32.897 26.1 32.4 26.1Z" fill="#374957"/>
<path id="Shape_476_" d="M17.0999 31.5H5.39996C4.90289 31.5 4.5 31.9029 4.5 32.4C4.5 32.897 4.903 33.2999 5.39996 33.2999H17.0999C17.597 33.2999 17.9999 32.897 17.9999 32.4C17.9999 31.9029 17.597 31.5 17.0999 31.5Z" fill="#374957"/>
</g>
</svg>
