<svg width="52" height="52" viewBox="0 0 52 52" fill="none" xmlns="http://www.w3.org/2000/svg">
<g id="Group 37786">
<path id="Vector" d="M50.2706 35.9988C50.2706 36.6999 49.7019 37.2608 49.0085 37.2608H44.607C43.9059 37.2608 43.345 36.6921 43.345 35.9988V31.5973C43.345 29.9458 41.9973 28.5981 40.3458 28.5981H11.662C10.0105 28.5981 8.66277 29.9458 8.66277 31.5973V35.9988C8.66277 36.6999 8.09408 37.2608 7.40075 37.2608H2.99925C2.29813 37.2608 1.73723 36.6921 1.73723 35.9988V16.0012C1.73723 15.3001 2.30592 14.7392 2.99925 14.7392H49.0008C49.7019 14.7392 50.2628 15.3079 50.2628 16.0012V36.0066L50.2706 35.9988ZM9.53528 9.53528C9.53528 9.06008 9.9248 8.67056 10.4 8.67056H11.2647V13.002H9.53528V9.53528ZM13.002 1.73723H38.9981V13.002H13.002V1.73723ZM41.6 8.66277C42.0752 8.66277 42.4647 9.05229 42.4647 9.52749V12.9942H40.7353V8.66277H41.6ZM49.0008 12.9942H44.202V9.52749C44.202 8.09408 43.0334 6.92554 41.6 6.92554H40.7353V0.864719C40.7353 0.389513 40.3458 0 39.8706 0H12.1372C11.662 0 11.2725 0.389513 11.2725 0.864719V6.93333H10.4078C8.97438 6.93333 7.80584 8.10187 7.80584 9.53528V13.002H2.99925C1.34772 13.002 0 14.3419 0 16.0012V36.0066C0 37.6581 1.34772 38.9981 2.99925 38.9981H7.40075C9.05229 38.9981 10.4 37.6503 10.4 35.9988V31.5973C10.4 30.8962 10.9687 30.3353 11.662 30.3353H40.338C41.0391 30.3353 41.6 30.904 41.6 31.5973V35.9988C41.6 37.6503 42.9477 38.9981 44.5993 38.9981H49.0008C50.6523 38.9981 52 37.6503 52 35.9988V16.0012C52 14.3497 50.6523 13.002 49.0008 13.002V12.9942Z" fill="#374957"/>
<path id="Vector_2" d="M13.0413 50.2706L13.8282 33.8019H38.1805L38.9673 50.2706H13.0413ZM38.9985 32.0725H13.0024C12.5428 32.0725 12.161 32.4387 12.1377 32.8983L11.2729 51.0963C11.2652 51.33 11.3509 51.5638 11.5144 51.7351C11.678 51.9065 11.904 52 12.1377 52H39.8632C40.0969 52 40.3306 51.9065 40.4942 51.7351C40.6578 51.5638 40.7435 51.33 40.7357 51.0963L39.871 32.8983C39.8476 32.4387 39.4659 32.0725 39.0063 32.0725H38.9985Z" fill="#374957"/>
<path id="Vector_3" d="M46.8043 19.9353H38.1337V18.1981H46.8043V19.9353ZM47.669 16.4686H37.269C36.7938 16.4686 36.4043 16.8581 36.4043 17.3333V20.8C36.4043 21.2752 36.7938 21.6647 37.269 21.6647H47.669C48.1442 21.6647 48.5337 21.2752 48.5337 20.8V17.3333C48.5337 16.8581 48.1442 16.4686 47.669 16.4686Z" fill="#374957"/>
<path id="Vector_4" d="M6.93346 19.9353H5.20403V18.1981H6.93346V19.9353ZM7.79818 16.4686H4.33152C3.85631 16.4686 3.4668 16.8581 3.4668 17.3333V20.8C3.4668 21.2752 3.85631 21.6647 4.33152 21.6647H7.79818C8.27339 21.6647 8.6629 21.2752 8.6629 20.8V17.3333C8.6629 16.8581 8.27339 16.4686 7.79818 16.4686Z" fill="#374957"/>
<path id="Vector_5" d="M33.8018 35.5314H21.6645C21.1893 35.5314 20.7998 35.9209 20.7998 36.3961C20.7998 36.8713 21.1893 37.2608 21.6645 37.2608H33.8018C34.277 37.2608 34.6665 36.8713 34.6665 36.3961C34.6665 35.9209 34.277 35.5314 33.8018 35.5314Z" fill="#374957"/>
<path id="Vector_6" d="M18.1977 40.7353H21.6644C22.1396 40.7353 22.5291 40.3458 22.5291 39.8706C22.5291 39.3954 22.1396 39.0059 21.6644 39.0059H18.1977C17.7225 39.0059 17.333 39.3954 17.333 39.8706C17.333 40.3458 17.7225 40.7353 18.1977 40.7353Z" fill="#374957"/>
<path id="Vector_7" d="M33.8023 38.998H24.2671C23.7919 38.998 23.4023 39.3876 23.4023 39.8628C23.4023 40.338 23.7919 40.7275 24.2671 40.7275H33.8023C34.2776 40.7275 34.6671 40.338 34.6671 39.8628C34.6671 39.3876 34.2776 38.998 33.8023 38.998Z" fill="#374957"/>
<path id="Vector_8" d="M33.8016 43.3295H18.1977C17.7225 43.3295 17.333 43.719 17.333 44.1942C17.333 44.6694 17.7225 45.0589 18.1977 45.0589H33.8016C34.2768 45.0589 34.6663 44.6694 34.6663 44.1942C34.6663 43.719 34.2768 43.3295 33.8016 43.3295Z" fill="#374957"/>
</g>
</svg>
