<svg width="63" height="50" viewBox="0 0 63 50" fill="none" xmlns="http://www.w3.org/2000/svg">
<g id="Group 37785">
<path id="Vector" d="M12.1804 38.0863C12.149 38.0627 12.1255 38.0392 12.102 38.0157L7.82745 33.7255C7.43529 33.3255 7.43529 32.6902 7.82745 32.2902C8.21961 31.8902 8.86275 31.8902 9.2549 32.2902L11.8118 34.8549V28.3294C11.8118 27.7725 12.2667 27.3176 12.8235 27.3176C13.3804 27.3176 13.8353 27.7725 13.8353 28.3294V34.8549L16.3922 32.2902C16.7843 31.8902 17.4275 31.8902 17.8196 32.2902C18.2118 32.6902 18.2118 33.3255 17.8196 33.7255L13.5451 38.0157C13.5451 38.0157 13.4902 38.0627 13.4667 38.0863C13.4667 38.0863 13.4667 38.0863 13.4588 38.0941C13.4353 38.1098 13.4118 38.1255 13.3882 38.1412C13.3882 38.1412 13.3726 38.149 13.3647 38.1569C13.3412 38.1726 13.3255 38.1804 13.302 38.1961C13.302 38.1961 13.2863 38.1961 13.2784 38.2039C13.2549 38.2118 13.2314 38.2275 13.2078 38.2353C13.2078 38.2353 13.2 38.2353 13.1922 38.2353C13.1686 38.2431 13.1373 38.251 13.1137 38.2588C13.0275 38.2824 12.9333 38.298 12.8314 38.298C12.7294 38.298 12.6431 38.2824 12.549 38.2588C12.5255 38.251 12.4941 38.2431 12.4706 38.2275C12.4706 38.2275 12.4627 38.2275 12.4549 38.2275C12.4314 38.2196 12.4078 38.2039 12.3843 38.1961C12.3843 38.1961 12.3686 38.1961 12.3608 38.1882C12.3373 38.1726 12.3137 38.1647 12.298 38.149C12.298 38.149 12.2824 38.1412 12.2745 38.1333C12.251 38.1176 12.2275 38.102 12.2039 38.0863H12.1804ZM60.5647 48.2118H58.9098V15.0118C58.9098 14.5176 58.5098 14.1176 58.0235 14.1176H28.2196C27.7255 14.1176 27.3333 14.5176 27.3333 15.0118V26.5804H25.6235V22.2824C25.6235 22.2824 25.6235 22.2353 25.6235 22.2118L25.6784 12.5098H60.5804V48.2039L60.5647 48.2118ZM11.3098 46.0235C11.3098 45.4196 11.5529 44.8706 11.9451 44.4784C12.3373 44.0784 12.8863 43.8353 13.4902 43.8353C14.0941 43.8353 14.6353 44.0784 15.0353 44.4784C15.4275 44.8784 15.6706 45.4196 15.6706 46.0235C15.6706 46.6275 15.4275 47.1765 15.0353 47.5686L14.9961 47.6078C14.6039 47.9765 14.0784 48.2039 13.498 48.2039C12.8941 48.2039 12.3529 47.9608 11.9608 47.5608C11.5686 47.1608 11.3255 46.6196 11.3255 46.0157L11.3098 46.0235ZM10.6902 43.2078C10.5961 43.302 10.502 43.4039 10.4235 43.5059C10.3373 43.4039 10.251 43.302 10.1569 43.2078C9.44314 42.4863 8.44706 42.0392 7.35686 42.0392C6.26667 42.0392 5.27059 42.4863 4.55686 43.2078C4.03922 43.7255 3.67059 44.3843 3.49804 45.1294H1.78824V23.1843H23.8353V27.4745V45.1294H17.349C17.1765 44.3922 16.8078 43.7255 16.2902 43.2078C15.5765 42.4863 14.5804 42.0392 13.4902 42.0392C12.4 42.0392 11.4039 42.4863 10.6902 43.2078ZM8.89412 47.5686L8.8549 47.6078C8.46275 47.9843 7.93725 48.2039 7.34902 48.2039C6.76078 48.2039 6.20392 47.9608 5.80392 47.5608C5.41177 47.1608 5.16863 46.6196 5.16863 46.0157C5.16863 45.4118 5.41177 44.8627 5.80392 44.4706C6.19608 44.0706 6.7451 43.8275 7.34902 43.8275C7.95294 43.8275 8.49412 44.0706 8.89412 44.4706C9.28627 44.8706 9.52941 45.4118 9.52941 46.0157C9.52941 46.6196 9.28627 47.1686 8.89412 47.5608V47.5686ZM14.3686 12.5098H23.898L23.851 21.3882H14.3686V12.5098ZM32.0471 1.78824H39.8196L24.5412 10.7216H16.7686L32.0471 1.78824ZM28.0784 10.7216L43.1216 1.92941L58.1647 10.7216H28.0784ZM28.2118 28.3686H32.1098C32.8 28.3686 33.4275 28.6275 33.9137 29.051C34.1412 29.2471 34.3294 29.4824 34.4863 29.7333H30.0863C29.5922 29.7333 29.2 30.1333 29.2 30.6275L29.1059 37.2078C29.1059 37.702 29.4902 38.102 29.9843 38.1098C30.3686 38.2353 35.8039 38.1098 37.0196 38.1098C37.3255 38.1098 37.6 38.2353 37.7961 38.4314C37.9922 38.6353 38.1176 38.9098 38.1176 39.2078V45.1137H36.3059C36.1333 44.3765 35.7647 43.7176 35.2471 43.1922C34.5333 42.4706 33.5373 42.0235 32.4471 42.0235C31.3569 42.0235 30.3608 42.4706 29.6471 43.1922C29.1294 43.7098 28.7608 44.3686 28.5882 45.1137H25.6314V28.3608H28.2353L28.2118 28.3686ZM33.9608 31.5216L35.3882 36.3216H30.8863L30.9569 31.5216H33.9686H33.9608ZM49.0902 48.2039V43.498H53.7725V48.2039H49.0902ZM45.1373 43.498H47.3098V48.2039H45.1373V43.498ZM47.3098 35.2078H45.1373V30.502H47.3098V35.2078ZM53.7725 41.702H49.0902V36.9961H53.7725V41.702ZM45.1373 36.9961H47.3098V41.702H45.1373V36.9961ZM49.0902 30.4941H53.7725V35.2H49.0902V30.4941ZM30.8863 47.5529C30.4941 47.1529 30.251 46.6118 30.251 46.0078C30.251 45.4039 30.4941 44.8549 30.8863 44.4627C31.2784 44.0627 31.8274 43.8196 32.4314 43.8196C33.0353 43.8196 33.5765 44.0627 33.9765 44.4627C34.3686 44.8549 34.6118 45.4039 34.6118 46.0078C34.6118 46.6196 34.3686 47.1686 33.9765 47.5608C33.5843 47.9529 33.0353 48.1961 32.4314 48.1961C31.8274 48.1961 31.2863 47.9529 30.8863 47.5529ZM17.3412 46.902H23.8274V48.1961H16.7843C17.0431 47.8039 17.2314 47.3726 17.3333 46.902H17.3412ZM25.6078 48.1961V46.902H28.5647C28.6745 47.3726 28.8627 47.8118 29.1137 48.1961H25.6078ZM29.1059 22.8627H57.1216V48.2039H55.5529V29.6078C55.5529 29.1137 55.1529 28.7137 54.6667 28.7137H44.251C43.7569 28.7137 43.3647 29.1137 43.3647 29.6078V48.2039H35.7412C36 47.8118 36.1882 47.3804 36.2902 46.9098H38.9961C39.4902 46.9098 39.8824 46.5098 39.8824 46.0157V39.2157C39.8824 38.4235 39.5608 37.6941 39.0353 37.1765C38.5647 36.7059 37.9373 36.4 37.2471 36.3373L35.8196 31.5137H35.8431C36.3294 31.4431 36.6667 30.9961 36.6039 30.502C36.4471 29.3882 35.8902 28.4 35.0902 27.6941C34.2902 26.9961 33.2549 26.5725 32.1176 26.5725H29.1137V22.8627H29.1059ZM57.1216 17.5922H29.1137V15.898H57.1294V17.5922H57.1216ZM29.1059 19.3804H57.1216V21.0745H29.1137V19.3804H29.1059ZM61.851 10.8078L43.6157 0.156863C43.4745 0.0627451 43.302 0 43.1137 0H31.8039C31.6549 0 31.498 0.0392157 31.3569 0.12549L13.0745 10.8157C12.7843 10.9647 12.5882 11.2627 12.5882 11.6157V21.3882H0.894118C0.407843 21.3882 0 21.7882 0 22.2824V46.0157C0 46.5098 0.4 46.9098 0.886275 46.9098H3.48235C3.6549 47.6471 4.02353 48.3137 4.54118 48.8314C5.2549 49.5529 6.25098 50 7.34118 50C8.43137 50 9.37255 49.5765 10.0863 48.8863L10.1412 48.8314C10.2353 48.7373 10.3294 48.6353 10.4078 48.5333C10.4941 48.6353 10.5804 48.7373 10.6745 48.8314C11.3882 49.5529 12.3843 50 13.4745 50H61.4431C61.9373 50 62.3294 49.6 62.3294 49.1059V11.6157C62.3294 11.2627 62.1255 10.9647 61.8353 10.8157L61.851 10.8078Z" fill="#374957"/>
</g>
</svg>
