<svg width="21" height="21" viewBox="0 0 21 21" fill="none" xmlns="http://www.w3.org/2000/svg">
<g id="Group 37897">
<path id="Vector" d="M12.6216 19.0511C12.4485 19.0943 12.2719 19.1326 12.0967 19.1649C11.6386 19.25 11.3357 19.6906 11.4205 20.1491C11.4623 20.3747 11.5904 20.5626 11.7644 20.6852C11.9436 20.8114 12.1718 20.8684 12.4042 20.8251C12.6129 20.7864 12.8232 20.7409 13.0296 20.6894C13.482 20.5768 13.7576 20.1185 13.6447 19.6663C13.5322 19.2138 13.0743 18.9384 12.6216 19.0511Z" fill="#374957"/>
<path id="Vector_2" d="M18.8641 7.73552C18.9233 7.91374 19.0362 8.05924 19.1788 8.15977C19.3902 8.30869 19.6669 8.3588 19.9309 8.27149C20.3736 8.12451 20.6134 7.64718 20.467 7.20474C20.4003 7.00305 20.3262 6.80072 20.2474 6.60373C20.0742 6.17081 19.5832 5.96005 19.15 6.13321C18.7173 6.30628 18.5065 6.79747 18.6798 7.23052C18.7461 7.3961 18.8081 7.56606 18.8641 7.73552Z" fill="#374957"/>
<path id="Vector_3" d="M15.3643 17.8458C15.2154 17.9441 15.0617 18.0392 14.9069 18.1284C14.5029 18.3614 14.3645 18.8778 14.5975 19.2816C14.6607 19.3914 14.745 19.4812 14.842 19.5498C15.1024 19.7331 15.4561 19.7605 15.7505 19.5909C15.9346 19.4847 16.1177 19.3717 16.295 19.2545C16.6839 18.9976 16.7909 18.4738 16.5339 18.0847C16.2769 17.6956 15.7533 17.5887 15.3643 17.8458Z" fill="#374957"/>
<path id="Vector_4" d="M20.9915 10.0934C20.9731 9.62742 20.5806 9.26475 20.1145 9.28294C19.649 9.30132 19.2861 9.69392 19.3044 10.1597C19.3114 10.3378 19.3132 10.5185 19.3091 10.6964C19.3025 10.9886 19.4454 11.2491 19.6675 11.4057C19.7999 11.4988 19.9604 11.5552 20.1345 11.5592C20.6005 11.5695 20.9866 11.1999 20.997 10.7338C21.0016 10.5212 20.9999 10.3058 20.9915 10.0934Z" fill="#374957"/>
<path id="Vector_5" d="M18.7268 15.6249C18.3531 15.3446 17.8245 15.4207 17.5447 15.7937C17.4375 15.9365 17.3247 16.0776 17.2091 16.2134C16.9071 16.5682 16.9498 17.1012 17.3046 17.4034C17.3248 17.4205 17.3452 17.4363 17.3665 17.4511C17.7192 17.6998 18.2094 17.6426 18.4947 17.3079C18.6327 17.1459 18.7672 16.9774 18.8952 16.8068C19.1751 16.4338 19.0994 15.9048 18.7268 15.6249Z" fill="#374957"/>
<path id="Vector_6" d="M19.9676 12.5732C19.5227 12.4337 19.049 12.6813 18.9096 13.1262C18.8562 13.2962 18.7971 13.467 18.7332 13.6342C18.5931 14.0024 18.7274 14.4075 19.0352 14.6246C19.0917 14.6643 19.1539 14.6979 19.2215 14.7234C19.6571 14.8896 20.1448 14.6711 20.3109 14.2354C20.3866 14.0365 20.457 13.8333 20.5206 13.6313C20.6598 13.1863 20.4124 12.7127 19.9676 12.5732Z" fill="#374957"/>
<path id="Vector_7" d="M8.93804 19.1724C8.18327 19.0369 7.45924 18.8062 6.77268 18.4843C6.76455 18.48 6.75728 18.4752 6.74875 18.4713C6.58696 18.3952 6.42544 18.3136 6.26889 18.2284C6.26835 18.2277 6.26736 18.2273 6.2665 18.227C5.97926 18.0688 5.69893 17.8938 5.42659 17.7021C1.45536 14.9046 0.500517 9.39785 3.29814 5.42666C3.90648 4.56346 4.64265 3.84331 5.46338 3.27254C5.47349 3.26549 5.4836 3.2585 5.49362 3.25141C8.38573 1.25866 12.3128 1.12437 15.3837 3.17209L14.7242 4.12509C14.5408 4.39034 14.6536 4.58364 14.9746 4.55475L17.8396 4.29825C18.161 4.26936 18.3533 3.99133 18.2668 3.68093L17.4975 0.908948C17.4113 0.598191 17.1908 0.560994 17.0073 0.826203L16.3462 1.78145C14.0925 0.26861 11.3894 -0.308259 8.70651 0.156974C8.43629 0.203741 8.16986 0.260981 7.90709 0.32761C7.90506 0.327972 7.90344 0.328197 7.90181 0.328558C7.89165 0.331041 7.88136 0.334337 7.87147 0.33709C5.55795 0.931203 3.53943 2.28054 2.09908 4.20576C2.08694 4.22016 2.07444 4.23424 2.06297 4.2499C2.01507 4.31441 1.96754 4.38041 1.921 4.44641C1.84489 4.55457 1.76986 4.66544 1.69809 4.7763C1.6891 4.78967 1.68224 4.80325 1.67439 4.81675C0.485801 6.65859 -0.0875022 8.78793 0.0108169 10.9557C0.0110427 10.9629 0.0106364 10.9701 0.0108169 10.9774C0.0203419 11.1891 0.0371347 11.4038 0.0599314 11.6152C0.0611502 11.6288 0.0641747 11.6417 0.066477 11.6554C0.0900411 11.8679 0.119609 12.0809 0.156671 12.2939C0.533335 14.4669 1.55842 16.4223 3.09446 17.9438C3.09803 17.9474 3.10173 17.9513 3.10534 17.955C3.10661 17.9564 3.10801 17.9571 3.10922 17.9584C3.52191 18.3655 3.9708 18.742 4.45414 19.0824C5.71902 19.9737 7.12749 20.5628 8.64011 20.8342C9.09906 20.9167 9.53748 20.6112 9.61982 20.1525C9.70212 19.6934 9.39687 19.2546 8.93804 19.1724Z" fill="#374957"/>
<path id="Vector_8" d="M9.98214 3.67957C9.60462 3.67957 9.29883 3.98563 9.29883 4.36261V11.1676L15.5225 14.3849C15.6227 14.4368 15.73 14.4612 15.8355 14.4612C16.0827 14.4612 16.3215 14.3266 16.4429 14.0917C16.616 13.7565 16.485 13.3447 16.1498 13.1716L10.6647 10.3358V4.36261C10.6646 3.98563 10.3592 3.67957 9.98214 3.67957Z" fill="#374957"/>
</g>
</svg>
