<svg width="32" height="32" viewBox="0 0 32 32" fill="none" xmlns="http://www.w3.org/2000/svg">
<g id="calculator" clip-path="url(#clip0_198_223)">
<path id="Vector" d="M24 2C24.5304 2 25.0391 2.21071 25.4142 2.58579C25.7893 2.96086 26 3.46957 26 4V28C26 28.5304 25.7893 29.0391 25.4142 29.4142C25.0391 29.7893 24.5304 30 24 30H8C7.46957 30 6.96086 29.7893 6.58579 29.4142C6.21071 29.0391 6 28.5304 6 28V4C6 3.46957 6.21071 2.96086 6.58579 2.58579C6.96086 2.21071 7.46957 2 8 2H24ZM8 0C6.93913 0 5.92172 0.421427 5.17157 1.17157C4.42143 1.92172 4 2.93913 4 4V28C4 29.0609 4.42143 30.0783 5.17157 30.8284C5.92172 31.5786 6.93913 32 8 32H24C25.0609 32 26.0783 31.5786 26.8284 30.8284C27.5786 30.0783 28 29.0609 28 28V4C28 2.93913 27.5786 1.92172 26.8284 1.17157C26.0783 0.421427 25.0609 0 24 0L8 0Z" fill="white"/>
<path id="Vector_2" d="M8 5C8 4.73478 8.10536 4.48043 8.29289 4.29289C8.48043 4.10536 8.73478 4 9 4H23C23.2652 4 23.5196 4.10536 23.7071 4.29289C23.8946 4.48043 24 4.73478 24 5V9C24 9.26522 23.8946 9.51957 23.7071 9.70711C23.5196 9.89464 23.2652 10 23 10H9C8.73478 10 8.48043 9.89464 8.29289 9.70711C8.10536 9.51957 8 9.26522 8 9V5ZM8 13C8 12.7348 8.10536 12.4804 8.29289 12.2929C8.48043 12.1054 8.73478 12 9 12H11C11.2652 12 11.5196 12.1054 11.7071 12.2929C11.8946 12.4804 12 12.7348 12 13V15C12 15.2652 11.8946 15.5196 11.7071 15.7071C11.5196 15.8946 11.2652 16 11 16H9C8.73478 16 8.48043 15.8946 8.29289 15.7071C8.10536 15.5196 8 15.2652 8 15V13ZM8 19C8 18.7348 8.10536 18.4804 8.29289 18.2929C8.48043 18.1054 8.73478 18 9 18H11C11.2652 18 11.5196 18.1054 11.7071 18.2929C11.8946 18.4804 12 18.7348 12 19V21C12 21.2652 11.8946 21.5196 11.7071 21.7071C11.5196 21.8946 11.2652 22 11 22H9C8.73478 22 8.48043 21.8946 8.29289 21.7071C8.10536 21.5196 8 21.2652 8 21V19ZM8 25C8 24.7348 8.10536 24.4804 8.29289 24.2929C8.48043 24.1054 8.73478 24 9 24H11C11.2652 24 11.5196 24.1054 11.7071 24.2929C11.8946 24.4804 12 24.7348 12 25V27C12 27.2652 11.8946 27.5196 11.7071 27.7071C11.5196 27.8946 11.2652 28 11 28H9C8.73478 28 8.48043 27.8946 8.29289 27.7071C8.10536 27.5196 8 27.2652 8 27V25ZM14 13C14 12.7348 14.1054 12.4804 14.2929 12.2929C14.4804 12.1054 14.7348 12 15 12H17C17.2652 12 17.5196 12.1054 17.7071 12.2929C17.8946 12.4804 18 12.7348 18 13V15C18 15.2652 17.8946 15.5196 17.7071 15.7071C17.5196 15.8946 17.2652 16 17 16H15C14.7348 16 14.4804 15.8946 14.2929 15.7071C14.1054 15.5196 14 15.2652 14 15V13ZM14 19C14 18.7348 14.1054 18.4804 14.2929 18.2929C14.4804 18.1054 14.7348 18 15 18H17C17.2652 18 17.5196 18.1054 17.7071 18.2929C17.8946 18.4804 18 18.7348 18 19V21C18 21.2652 17.8946 21.5196 17.7071 21.7071C17.5196 21.8946 17.2652 22 17 22H15C14.7348 22 14.4804 21.8946 14.2929 21.7071C14.1054 21.5196 14 21.2652 14 21V19ZM14 25C14 24.7348 14.1054 24.4804 14.2929 24.2929C14.4804 24.1054 14.7348 24 15 24H17C17.2652 24 17.5196 24.1054 17.7071 24.2929C17.8946 24.4804 18 24.7348 18 25V27C18 27.2652 17.8946 27.5196 17.7071 27.7071C17.5196 27.8946 17.2652 28 17 28H15C14.7348 28 14.4804 27.8946 14.2929 27.7071C14.1054 27.5196 14 27.2652 14 27V25ZM20 13C20 12.7348 20.1054 12.4804 20.2929 12.2929C20.4804 12.1054 20.7348 12 21 12H23C23.2652 12 23.5196 12.1054 23.7071 12.2929C23.8946 12.4804 24 12.7348 24 13V15C24 15.2652 23.8946 15.5196 23.7071 15.7071C23.5196 15.8946 23.2652 16 23 16H21C20.7348 16 20.4804 15.8946 20.2929 15.7071C20.1054 15.5196 20 15.2652 20 15V13ZM20 19C20 18.7348 20.1054 18.4804 20.2929 18.2929C20.4804 18.1054 20.7348 18 21 18H23C23.2652 18 23.5196 18.1054 23.7071 18.2929C23.8946 18.4804 24 18.7348 24 19V27C24 27.2652 23.8946 27.5196 23.7071 27.7071C23.5196 27.8946 23.2652 28 23 28H21C20.7348 28 20.4804 27.8946 20.2929 27.7071C20.1054 27.5196 20 27.2652 20 27V19Z" fill="white"/>
</g>
<defs>
<clipPath id="clip0_198_223">
<rect width="32" height="32" fill="white"/>
</clipPath>
</defs>
</svg>
