<svg width="32" height="32" viewBox="0 0 32 32" fill="none" xmlns="http://www.w3.org/2000/svg">
<g id="Group 37877">
<path id="Vector" fill-rule="evenodd" clip-rule="evenodd" d="M6.91632 4.26667L6.68403 2.72533C6.44853 1.15839 5.09866 0 3.50901 0C2.34862 0 1.07047 0 1.07047 0C0.479571 0 0 0.477867 0 1.06667C0 1.65547 0.479571 2.13333 1.07047 2.13333H3.50901C4.03889 2.13333 4.48849 2.51946 4.5677 3.04212L7.2321 20.7413C7.46761 22.3083 8.81748 23.4667 10.4071 23.4667H26.0553C27.601 23.4667 28.9274 22.3701 29.2121 20.8565C29.7827 17.8251 30.9602 11.5659 31.6207 8.05654C31.7962 7.12108 31.5457 6.15575 30.9356 5.42295C30.3254 4.69015 29.4198 4.26667 28.4638 4.26667H6.91632ZM7.23746 6.4L9.34843 20.4245C9.42765 20.9472 9.87724 21.3333 10.4071 21.3333H26.0553C26.5702 21.3333 27.0123 20.9675 27.1076 20.4629L29.5161 7.66292C29.575 7.35146 29.4915 7.02933 29.2881 6.78506C29.0847 6.54079 28.7828 6.4 28.4638 6.4H7.23746Z" fill="white"/>
<path id="Vector_2" fill-rule="evenodd" clip-rule="evenodd" d="M11.7739 25.6C10.0012 25.6 8.5625 27.0336 8.5625 28.8C8.5625 30.5664 10.0012 32 11.7739 32C13.5466 32 14.9853 30.5664 14.9853 28.8C14.9853 27.0336 13.5466 25.6 11.7739 25.6ZM11.7739 27.7333C12.3648 27.7333 12.8444 28.2112 12.8444 28.8C12.8444 29.3888 12.3648 29.8666 11.7739 29.8666C11.183 29.8666 10.7034 29.3888 10.7034 28.8C10.7034 28.2112 11.183 27.7333 11.7739 27.7333Z" fill="white"/>
<path id="Vector_3" fill-rule="evenodd" clip-rule="evenodd" d="M24.6216 25.6C22.8489 25.6 21.4102 27.0336 21.4102 28.8C21.4102 30.5664 22.8489 32 24.6216 32C26.3943 32 27.833 30.5664 27.833 28.8C27.833 27.0336 26.3943 25.6 24.6216 25.6ZM24.6216 27.7333C25.2125 27.7333 25.692 28.2112 25.692 28.8C25.692 29.3888 25.2125 29.8666 24.6216 29.8666C24.0307 29.8666 23.5511 29.3888 23.5511 28.8C23.5511 28.2112 24.0307 27.7333 24.6216 27.7333Z" fill="white"/>
</g>
</svg>
