<svg width="15" height="10" viewBox="0 0 15 10" fill="none" xmlns="http://www.w3.org/2000/svg">
<path id="Vector" d="M14.4818 0.36707C14.5995 0.483132 14.6929 0.621009 14.7566 0.772804C14.8203 0.924599 14.8531 1.08733 14.8531 1.25167C14.8531 1.41602 14.8203 1.57875 14.7566 1.73055C14.6929 1.88234 14.5995 2.02022 14.4818 2.13628L6.89891 9.63293C6.78152 9.74929 6.64205 9.8416 6.48851 9.90459C6.33497 9.96758 6.17037 10 6.00413 10C5.8379 10 5.67329 9.96758 5.51975 9.90459C5.36621 9.8416 5.22675 9.74929 5.10935 9.63293L1.3179 5.8846C1.20039 5.76844 1.10718 5.63053 1.04359 5.47874C0.979997 5.32696 0.947266 5.16429 0.947266 5C0.947266 4.83571 0.979997 4.67304 1.04359 4.52126C1.10718 4.36947 1.20039 4.23156 1.3179 4.1154C1.55521 3.88078 1.87707 3.74898 2.21268 3.74898C2.37886 3.74898 2.54341 3.78134 2.69693 3.84421C2.85046 3.90708 2.98996 3.99923 3.10746 4.1154L6.00413 6.98162L12.6923 0.36707C12.8097 0.250714 12.9491 0.158397 13.1027 0.0954094C13.2562 0.0324215 13.4208 0 13.587 0C13.7533 0 13.9179 0.0324215 14.0714 0.0954094C14.225 0.158397 14.3644 0.250714 14.4818 0.36707Z" fill="white"/>
</svg>
