<svg width="15" height="15" viewBox="0 0 15 15" fill="none" xmlns="http://www.w3.org/2000/svg">
<g id="check-circle" clip-path="url(#clip0_211_594)">
<path id="Vector" d="M7.5 14.0625C5.75952 14.0625 4.09032 13.3711 2.85961 12.1404C1.6289 10.9097 0.9375 9.24048 0.9375 7.5C0.9375 5.75952 1.6289 4.09032 2.85961 2.85961C4.09032 1.6289 5.75952 0.9375 7.5 0.9375C9.24048 0.9375 10.9097 1.6289 12.1404 2.85961C13.3711 4.09032 14.0625 5.75952 14.0625 7.5C14.0625 9.24048 13.3711 10.9097 12.1404 12.1404C10.9097 13.3711 9.24048 14.0625 7.5 14.0625ZM7.5 15C9.48912 15 11.3968 14.2098 12.8033 12.8033C14.2098 11.3968 15 9.48912 15 7.5C15 5.51088 14.2098 3.60322 12.8033 2.1967C11.3968 0.790176 9.48912 0 7.5 0C5.51088 0 3.60322 0.790176 2.1967 2.1967C0.790176 3.60322 0 5.51088 0 7.5C0 9.48912 0.790176 11.3968 2.1967 12.8033C3.60322 14.2098 5.51088 15 7.5 15Z" fill="#F26521"/>
<path id="Vector_2" d="M10.2846 4.65933C10.2779 4.6658 10.2716 4.67269 10.2658 4.67996L7.00988 8.82839L5.0477 6.86527C4.91441 6.74107 4.73811 6.67345 4.55596 6.67667C4.3738 6.67988 4.2 6.75367 4.07117 6.8825C3.94235 7.01132 3.86856 7.18512 3.86534 7.36728C3.86213 7.54944 3.92975 7.72573 4.05395 7.85902L6.53457 10.3406C6.6014 10.4073 6.68097 10.4598 6.76856 10.4951C6.85614 10.5304 6.94993 10.5477 7.04433 10.5459C7.13874 10.5442 7.23182 10.5235 7.31804 10.4849C7.40425 10.4464 7.48182 10.391 7.54613 10.3218L11.2886 5.64371C11.4161 5.50996 11.4857 5.33142 11.4826 5.14671C11.4794 4.962 11.4037 4.78594 11.2718 4.65661C11.1399 4.52728 10.9624 4.45506 10.7776 4.45557C10.5929 4.45608 10.4158 4.52927 10.2846 4.65933Z" fill="#F26521"/>
</g>
<defs>
<clipPath id="clip0_211_594">
<rect width="15" height="15" fill="white"/>
</clipPath>
</defs>
</svg>
