<svg width="27" height="27" viewBox="0 0 27 27" fill="none" xmlns="http://www.w3.org/2000/svg">
<g id="comparison 1" clip-path="url(#clip0_206_29)">
<g id="Group">
<g id="Group_2">
<path id="Vector" d="M26.3912 16.372L22.0108 9.07076L25.942 7.97876C26.3474 7.86618 26.5846 7.44632 26.4721 7.04098C26.3595 6.63565 25.9395 6.39829 25.5343 6.51093L20.6475 7.86831C20.6472 7.86841 20.6468 7.86851 20.6465 7.86861L14.2617 9.6421V1.26202C14.2617 0.841352 13.9207 0.500305 13.5 0.500305C13.0794 0.500305 12.7383 0.841352 12.7383 1.26202V10.0653L5.96191 11.9475C5.96155 11.9476 5.9612 11.9477 5.96084 11.9478L1.05807 13.3096C0.652679 13.4222 0.415429 13.8421 0.52796 14.2474C0.621652 14.5845 0.927812 14.8054 1.26144 14.8054C1.32893 14.8054 1.39759 14.7964 1.46574 14.7775L4.52206 13.9285L0.608855 20.4513C0.537863 20.5697 0.500285 20.7052 0.500285 20.8432C0.500285 23.9623 3.03798 26.4999 6.15716 26.4999C9.27645 26.4999 11.8141 23.9623 11.8141 20.8432C11.8141 20.7052 11.7766 20.5697 11.7055 20.4513L7.32503 13.15L19.2077 9.84934L15.2945 16.372C15.2235 16.4904 15.1859 16.6259 15.1859 16.7639C15.1859 19.8831 17.7236 22.4207 20.8428 22.4207C22.3538 22.4207 23.7743 21.8323 24.8429 20.7638C25.9114 19.6953 26.4998 18.2748 26.4997 16.7638C26.4998 16.6258 26.4622 16.4904 26.3912 16.372ZM6.15716 24.9765C4.13825 24.9765 2.45353 23.5212 2.09487 21.6048H10.2195C9.86084 23.5212 8.17612 24.9765 6.15716 24.9765ZM9.70718 20.0814H2.60725L6.15716 14.1644L9.70718 20.0814ZM20.8428 10.0852L24.3929 16.0021H17.2928L20.8428 10.0852ZM20.8429 20.8973C18.824 20.8973 17.1392 19.442 16.7805 17.5256H24.9052C24.5465 19.442 22.8619 20.8973 20.8429 20.8973Z" fill="#374957"/>
</g>
</g>
</g>
<defs>
<clipPath id="clip0_206_29">
<rect width="26" height="26" fill="white" transform="translate(0.5 0.5)"/>
</clipPath>
</defs>
</svg>
