<svg width="22" height="18" viewBox="0 0 22 18" fill="none" xmlns="http://www.w3.org/2000/svg">
<g id="Download">
<path id="Vector" d="M22 15.5455V12.2727C22 12.0557 21.9034 11.8476 21.7315 11.6942C21.5596 11.5407 21.3264 11.4545 21.0833 11.4545C20.8402 11.4545 20.6071 11.5407 20.4352 11.6942C20.2632 11.8476 20.1667 12.0557 20.1667 12.2727V15.5455C20.1667 15.7625 20.0701 15.9706 19.8982 16.124C19.7263 16.2774 19.4931 16.3636 19.25 16.3636H2.75C2.50688 16.3636 2.27373 16.2774 2.10182 16.124C1.92991 15.9706 1.83333 15.7625 1.83333 15.5455V12.2727C1.83333 12.0557 1.73676 11.8476 1.56485 11.6942C1.39294 11.5407 1.15978 11.4545 0.916667 11.4545C0.673552 11.4545 0.440394 11.5407 0.268486 11.6942C0.0965773 11.8476 0 12.0557 0 12.2727V15.5455C0 16.1964 0.289731 16.8208 0.805456 17.2811C1.32118 17.7414 2.02065 18 2.75 18H19.25C19.9793 18 20.6788 17.7414 21.1945 17.2811C21.7103 16.8208 22 16.1964 22 15.5455ZM16.1517 11.2745L11.5683 14.5473C11.4065 14.6614 11.2063 14.7235 11 14.7235C10.7937 14.7235 10.5935 14.6614 10.4317 14.5473L5.84833 11.2745C5.68133 11.1338 5.57958 10.9423 5.56322 10.7379C5.54686 10.5334 5.61707 10.3309 5.75997 10.1705C5.90287 10.01 6.10804 9.90325 6.33489 9.87135C6.56174 9.83945 6.79375 9.88471 6.985 9.99818L10.0833 12.2073V0.818182C10.0833 0.601187 10.1799 0.393079 10.3518 0.23964C10.5237 0.0862012 10.7569 0 11 0C11.2431 0 11.4763 0.0862012 11.6482 0.23964C11.8201 0.393079 11.9167 0.601187 11.9167 0.818182V12.2073L15.015 9.99818C15.1073 9.92041 15.2167 9.8606 15.3363 9.82254C15.4558 9.78447 15.5829 9.76899 15.7095 9.77706C15.8362 9.78514 15.9595 9.81659 16.0718 9.86944C16.1841 9.92228 16.2828 9.99536 16.3618 10.0841C16.4408 10.1727 16.4983 10.2751 16.5306 10.3847C16.563 10.4942 16.5695 10.6086 16.5497 10.7205C16.53 10.8324 16.4844 10.9395 16.4159 11.0348C16.3473 11.1302 16.2574 11.2118 16.1517 11.2745Z" fill="#374957"/>
</g>
</svg>
