<svg width="16" height="24" viewBox="0 0 16 24" fill="none" xmlns="http://www.w3.org/2000/svg">
<g id="Group 37887">
<path id="Vector" fill-rule="evenodd" clip-rule="evenodd" d="M7.31663 0.318111C7.401 0.233735 7.51544 0.186332 7.63477 0.186333C7.75409 0.186333 7.86853 0.233735 7.95291 0.318111L11.7706 4.13579C11.855 4.22016 11.9024 4.3346 11.9024 4.45393C11.9024 4.57325 11.855 4.68769 11.7706 4.77207C11.6862 4.85644 11.5718 4.90385 11.4524 4.90385C11.3331 4.90385 11.2187 4.85644 11.1343 4.77207L8.08462 1.72238L8.08525 14.6344C8.08525 14.6936 8.0736 14.7521 8.05096 14.8068C8.02832 14.8615 7.99514 14.9111 7.95331 14.9529C7.91148 14.9948 7.86181 15.028 7.80716 15.0506C7.7525 15.0732 7.69392 15.0849 7.63477 15.0849C7.57561 15.0849 7.51703 15.0732 7.46237 15.0506C7.40772 15.028 7.35806 14.9948 7.31622 14.9529C7.27439 14.9111 7.24121 14.8615 7.21857 14.8068C7.19593 14.7521 7.18428 14.6936 7.18428 14.6344L7.18492 1.72238L4.13523 4.77207C4.05085 4.85644 3.93642 4.90385 3.81709 4.90385C3.69776 4.90385 3.58333 4.85644 3.49895 4.77207C3.41457 4.68769 3.36717 4.57325 3.36717 4.45393C3.36717 4.3346 3.41457 4.22016 3.49895 4.13579L7.31663 0.318111Z" fill="#374957"/>
<path id="Vector_2" fill-rule="evenodd" clip-rule="evenodd" d="M7.95291 22.9534C7.86853 23.0377 7.75409 23.0852 7.63477 23.0852C7.51544 23.0852 7.401 23.0377 7.31663 22.9534L3.49895 19.1357C3.41457 19.0513 3.36717 18.9369 3.36717 18.8176C3.36717 18.6982 3.41457 18.5838 3.49895 18.4994C3.58333 18.415 3.69776 18.3676 3.81709 18.3676C3.93642 18.3676 4.05085 18.415 4.13523 18.4994L7.18492 21.5491L7.18428 8.63708C7.18428 8.57792 7.19593 8.51935 7.21857 8.46469C7.24121 8.41003 7.27439 8.36037 7.31622 8.31854C7.35806 8.27671 7.40772 8.24353 7.46237 8.22089C7.51703 8.19825 7.57561 8.1866 7.63477 8.1866C7.69392 8.1866 7.7525 8.19825 7.80716 8.22089C7.86181 8.24353 7.91148 8.27671 7.95331 8.31854C7.99514 8.36037 8.02832 8.41003 8.05096 8.46469C8.0736 8.51935 8.08525 8.57792 8.08525 8.63708L8.08462 21.5491L11.1343 18.4994C11.2187 18.415 11.3331 18.3676 11.4524 18.3676C11.5718 18.3676 11.6862 18.415 11.7706 18.4994C11.855 18.5838 11.9024 18.6982 11.9024 18.8176C11.9024 18.9369 11.855 19.0513 11.7706 19.1357L7.95291 22.9534Z" fill="#374957"/>
</g>
</svg>
