<svg width="23" height="23" viewBox="0 0 23 23" fill="none" xmlns="http://www.w3.org/2000/svg">
<g id="Group 37878">
<path id="Vector" d="M11.5004 22.1631C11.1891 22.1629 10.8891 22.0462 10.6595 21.8359L1.43102 13.4473C1.20708 13.2435 1.05004 12.9767 0.98052 12.682C0.910999 12.3873 0.932254 12.0785 1.04149 11.7961C1.15073 11.5137 1.34284 11.271 1.59258 11.0998C1.84232 10.9286 2.13801 10.837 2.44079 10.8369H5.75036V5.08691C5.75066 4.75549 5.88246 4.43772 6.11681 4.20337C6.35117 3.96902 6.66893 3.83722 7.00036 3.83691H16.0004C16.3318 3.83722 16.6495 3.96902 16.8839 4.20337C17.1183 4.43772 17.25 4.75549 17.2504 5.08691V10.8369H20.5599C20.8628 10.8369 21.1585 10.9285 21.4083 11.0997C21.6581 11.2709 21.8502 11.5137 21.9593 11.7962C22.0685 12.0787 22.0896 12.3876 22.0199 12.6823C21.9502 12.977 21.7929 13.2437 21.5687 13.4473L12.3412 21.8364C12.1115 22.0464 11.8116 22.1629 11.5004 22.1631ZM2.44079 12.3369L11.5004 20.5732L20.5599 12.3369H17.0004C16.6689 12.3366 16.3512 12.2048 16.1168 11.9705C15.8825 11.7361 15.7507 11.4183 15.7504 11.0869V5.33691H7.25036V11.0869C7.25005 11.4183 7.11826 11.7361 6.8839 11.9705C6.64955 12.2048 6.33178 12.3366 6.00036 12.3369H2.44079Z" fill="#374957"/>
<path id="Vector_2" d="M16.501 2.33691H6.50098C6.30206 2.33691 6.1113 2.2579 5.97065 2.11724C5.82999 1.97659 5.75098 1.78583 5.75098 1.58691C5.75098 1.388 5.82999 1.19724 5.97065 1.05658C6.1113 0.915932 6.30206 0.836914 6.50098 0.836914H16.501C16.6999 0.836914 16.8907 0.915932 17.0313 1.05658C17.172 1.19724 17.251 1.388 17.251 1.58691C17.251 1.78583 17.172 1.97659 17.0313 2.11724C16.8907 2.2579 16.6999 2.33691 16.501 2.33691Z" fill="#374957"/>
</g>
</svg>
