<svg width="34" height="35" viewBox="0 0 34 35" fill="none" xmlns="http://www.w3.org/2000/svg">
<g id="deal 1">
<g id="Group">
<g id="Group_2">
<path id="Vector" d="M33.6977 7.71133C33.5089 7.57852 33.2667 7.54598 33.0496 7.62626L27.275 9.72636C26.5591 9.98647 25.9891 10.5108 25.6702 11.2025C25.6104 11.3322 25.5712 11.4669 25.5319 11.6015C24.5403 11.3196 22.6975 10.7308 20.8662 9.78725C18.0988 8.36131 15.9846 9.06562 14.1714 10.4487C13.2526 10.4668 11.9862 10.5754 10.7413 10.6851C9.94726 10.7552 9.1968 10.8197 8.58825 10.8568C8.57331 10.4913 8.48778 10.1286 8.33 9.78593C8.01112 9.09417 7.44115 8.56983 6.72516 8.30978L0.950473 6.20955C0.733988 6.13 0.490477 6.16253 0.302348 6.29462C0.112758 6.4275 0 6.64398 0 6.87501V21.0417C0 21.4332 0.316824 21.75 0.708355 21.75H2.77731C3.65726 21.75 4.47591 21.335 5.00511 20.6648C5.287 20.8792 5.62089 21.1302 5.97105 21.3931C6.79768 22.015 7.70246 22.6935 8.0995 23.0263C10.7371 25.2343 13.908 27.6187 14.5395 28.0337C15.1295 28.421 16.192 28.8334 17 28.8334C17.3161 28.8334 18.1123 28.8334 18.6712 28.3609C19.2475 28.5871 19.8686 28.576 20.4462 28.3214C21.0224 28.0676 21.4887 27.5889 21.7598 27.0071C22.3132 27.1205 22.9489 27.0375 23.5251 26.7484C24.0653 26.4779 24.4631 26.0684 24.6761 25.5897C25.188 25.6368 25.7345 25.4701 26.2235 25.0958C26.9222 24.5617 27.2422 23.7729 27.1517 22.9948L28.9484 22.0008C29.4746 22.714 30.3109 23.1666 31.2226 23.1666H33.2916C33.6831 23.1666 33.9999 22.8498 33.9999 22.4582V8.29172C34 8.06062 33.8872 7.84414 33.6977 7.71133ZM4.10404 19.414C3.89791 19.9639 3.36461 20.3334 2.77731 20.3334H1.41664V7.88631L6.24079 9.64056C6.59912 9.77132 6.88414 10.0335 7.04318 10.3793C7.20295 10.7252 7.21683 11.1126 7.08329 11.4688L4.10404 19.414ZM25.3637 23.9705C25.1237 24.1545 24.7875 24.2569 24.6381 24.1075C24.6305 24.0999 24.6187 24.1006 24.6108 24.0933C24.5973 24.0807 24.5906 24.0638 24.5759 24.0521C24.0695 23.6523 21.8006 21.3309 20.3985 19.8685C20.1281 19.5856 19.6792 19.5752 19.3976 19.8471C19.1147 20.1175 19.105 20.5658 19.3762 20.848C19.7053 21.1915 22.3472 23.9431 23.4046 24.9054C23.3256 25.2164 23.0373 25.4085 22.8908 25.4819C22.4371 25.7095 21.9639 25.6714 21.7868 25.5068C21.7816 25.5019 21.7737 25.5022 21.7683 25.4974C21.7597 25.4897 21.7558 25.4789 21.7467 25.4715C20.8972 24.7929 18.766 22.5282 18.2838 22.0039C18.0189 21.7154 17.5714 21.6974 17.2829 21.9617C16.9952 22.2267 16.9758 22.6749 17.2407 22.9627C17.264 22.9878 19.3526 25.2408 20.5256 26.2873C20.4104 26.6185 20.1755 26.8928 19.8741 27.0259C19.6517 27.1247 19.3039 27.1753 18.9065 26.8816C17.8892 26.0191 15.8479 23.8461 15.4464 23.4164C15.1801 23.13 14.7304 23.1155 14.4454 23.3825C14.1597 23.6496 14.1445 24.0978 14.4116 24.3835C14.8876 24.893 16.2945 26.3842 17.364 27.3939C17.2446 27.4084 17.1191 27.4167 17 27.4167C16.531 27.4167 15.7251 27.1172 15.3177 26.8495C14.8211 26.523 11.7027 24.196 9.0098 21.9409C8.6024 21.5992 7.67271 20.8999 6.82185 20.2607C6.36584 19.9184 5.94568 19.6028 5.63603 19.3646L8.28816 12.2912C8.9766 12.2612 9.8944 12.1818 10.8657 12.0961C11.4151 12.0477 11.9651 12.0005 12.4906 11.9596C11.6829 12.7888 10.4819 14.274 10.6402 15.6661C10.7129 16.2998 11.0594 16.8276 11.6439 17.1928C12.8012 17.917 14.9435 17.3097 15.9756 16.0404C16.6417 15.9442 17.092 15.7741 17.5831 15.5306C18.4132 16.3109 19.5262 17.2281 20.6952 18.1917C22.7303 19.8685 25.0372 21.7693 25.6474 22.8353C25.987 23.4282 25.5159 23.8543 25.3637 23.9705ZM26.5789 21.6925C25.6351 20.43 23.5893 18.7408 21.5958 17.0981C20.2671 16.0031 19.0122 14.9689 18.2091 14.1659C17.9878 13.9459 17.6481 13.8961 17.3742 14.042C16.6527 14.4287 16.3276 14.5885 15.5128 14.6701C15.2956 14.6922 15.1005 14.8126 14.9843 14.9973C14.4288 15.8786 12.8849 16.2977 12.3951 15.992C12.117 15.8177 12.0631 15.6406 12.0479 15.5057C11.9794 14.9032 12.5895 13.8601 13.6015 12.8474C16.1077 10.3412 17.8993 9.8508 20.2173 11.0461C22.4195 12.1816 24.5931 12.8236 25.5055 13.0661C25.5319 13.1722 25.551 13.2794 25.5899 13.3835L28.3403 20.7181L26.5789 21.6925ZM32.5834 21.75H31.2227C30.6354 21.75 30.1021 21.3806 29.896 20.8307L26.9166 12.8862C26.7832 12.5292 26.797 12.1419 26.9568 11.796C27.1159 11.4501 27.4009 11.188 27.7591 11.0572L32.5833 9.30295V21.75H32.5834Z" fill="#374957"/>
</g>
</g>
</g>
</svg>
