<svg width="26" height="23" viewBox="0 0 26 23" fill="none" xmlns="http://www.w3.org/2000/svg">
<g id="rgb 1" clip-path="url(#clip0_211_569)">
<path id="Vector" d="M18.0394 22.3835C22.4362 22.3835 26.0006 19.2304 26.0006 15.3408C26.0006 11.4513 22.4362 8.29822 18.0394 8.29822C13.6425 8.29822 10.0781 11.4513 10.0781 15.3408C10.0781 19.2304 13.6425 22.3835 18.0394 22.3835Z" fill="#006DF0"/>
<path id="Vector_2" d="M12.9769 14.7018C17.3737 14.7018 20.9381 11.5487 20.9381 7.6592C20.9381 3.76967 17.3737 0.616577 12.9769 0.616577C8.57999 0.616577 5.01562 3.76967 5.01562 7.6592C5.01562 11.5487 8.57999 14.7018 12.9769 14.7018Z" fill="#D80027"/>
<path id="Vector_3" d="M7.96123 22.3835C12.3581 22.3835 15.9225 19.2304 15.9225 15.3408C15.9225 11.4513 12.3581 8.29822 7.96123 8.29822C3.56436 8.29822 0 11.4513 0 15.3408C0 19.2304 3.56436 22.3835 7.96123 22.3835Z" fill="#91DC5A"/>
<path id="Vector_4" d="M20.2621 8.93953C20.2621 8.93953 15.1639 8.32343 12.9992 9.8881C10.8217 8.31408 5.78711 8.93953 5.78711 8.93953C5.78711 8.93953 7.53343 13.3747 10.1717 14.2525C9.74195 16.6846 12.974 19.8236 12.9993 19.8236C13.0246 19.8236 16.2609 16.6735 15.8238 14.2365C18.4437 13.3477 20.2621 8.93953 20.2621 8.93953Z" fill="white"/>
<path id="Vector_5" d="M13 9.88811C13.7257 10.4127 14.3586 11.06 14.855 11.8206C15.3572 12.59 15.6761 13.4085 15.8246 14.2365C18.4444 13.3477 20.3982 11.2696 20.8409 8.74907C18.1581 7.85369 15.1647 8.32343 13 9.88811Z" fill="#EA348B"/>
<path id="Vector_6" d="M15.8252 14.2365C14.9403 14.5367 13.9797 14.7017 12.9753 14.7017C11.989 14.7017 11.0449 14.5426 10.1731 14.2525C9.74337 16.6846 10.7866 19.1971 13.0007 20.7946C15.2197 19.1936 16.2624 16.6735 15.8252 14.2365Z" fill="#99EFF2"/>
<path id="Vector_7" d="M10.1723 14.2524C10.3196 13.4189 10.6394 12.5949 11.1449 11.8205C11.6412 11.0599 12.2742 10.4127 12.9999 9.88802C10.8224 8.314 7.80634 7.84789 5.11133 8.76483C5.56216 11.2935 7.5341 13.3746 10.1723 14.2524Z" fill="#FFDA44"/>
<path id="Vector_8" d="M12.9994 9.88806C12.2737 10.4127 11.6409 11.0599 11.1444 11.8206C10.6391 12.595 10.3192 13.4191 10.1719 14.2524C11.0436 14.5426 11.9878 14.7016 12.9741 14.7016C13.9784 14.7016 14.9391 14.5367 15.824 14.2364C15.6754 13.4083 15.3566 12.5899 14.8545 11.8205C14.3581 11.0599 13.7252 10.4127 12.9994 9.88806Z" fill="white"/>
</g>
<defs>
<clipPath id="clip0_211_569">
<rect width="26" height="23" fill="white"/>
</clipPath>
</defs>
</svg>
