<svg width="24" height="16" viewBox="0 0 24 16" fill="none" xmlns="http://www.w3.org/2000/svg">
<g id="Group 37886">
<path id="Vector" fill-rule="evenodd" clip-rule="evenodd" d="M0.318111 7.95388C0.233735 7.86951 0.186332 7.75507 0.186333 7.63574C0.186332 7.51642 0.233735 7.40198 0.318111 7.3176L4.13579 3.49992C4.22016 3.41555 4.3346 3.36815 4.45393 3.36815C4.57325 3.36815 4.68769 3.41555 4.77207 3.49992C4.85644 3.5843 4.90385 3.69874 4.90385 3.81807C4.90385 3.93739 4.85644 4.05183 4.77207 4.1362L1.72238 7.18589L14.6344 7.18526C14.6936 7.18526 14.7521 7.19691 14.8068 7.21955C14.8615 7.24219 14.9111 7.27537 14.9529 7.3172C14.9948 7.35903 15.028 7.40869 15.0506 7.46335C15.0732 7.518 15.0849 7.57658 15.0849 7.63574C15.0849 7.6949 15.0732 7.75348 15.0506 7.80814C15.028 7.86279 14.9948 7.91245 14.9529 7.95428C14.9111 7.99612 14.8615 8.0293 14.8068 8.05194C14.7521 8.07458 14.6936 8.08623 14.6344 8.08623L1.72238 8.08559L4.77207 11.1353C4.85644 11.2197 4.90385 11.3341 4.90385 11.4534C4.90385 11.5727 4.85644 11.6872 4.77207 11.7716C4.68769 11.8559 4.57325 11.9033 4.45393 11.9033C4.3346 11.9033 4.22016 11.8559 4.13579 11.7716L0.318111 7.95388Z" fill="#374957"/>
<path id="Vector_2" fill-rule="evenodd" clip-rule="evenodd" d="M22.9534 7.3176C23.0377 7.40198 23.0852 7.51641 23.0852 7.63574C23.0852 7.75507 23.0377 7.8695 22.9534 7.95388L19.1357 11.7716C19.0513 11.8559 18.9369 11.9033 18.8176 11.9033C18.6982 11.9033 18.5838 11.8559 18.4994 11.7716C18.415 11.6872 18.3676 11.5727 18.3676 11.4534C18.3676 11.3341 18.415 11.2197 18.4994 11.1353L21.5491 8.08559L8.63708 8.08623C8.57792 8.08623 8.51935 8.07458 8.46469 8.05194C8.41003 8.0293 8.36037 7.99612 8.31854 7.95428C8.27671 7.91245 8.24353 7.86279 8.22089 7.80814C8.19825 7.75348 8.1866 7.6949 8.1866 7.63574C8.1866 7.57658 8.19825 7.518 8.22089 7.46335C8.24353 7.40869 8.27671 7.35903 8.31854 7.3172C8.36037 7.27537 8.41003 7.24219 8.46469 7.21955C8.51935 7.19691 8.57792 7.18526 8.63708 7.18526L21.5491 7.18589L18.4994 4.1362C18.415 4.05183 18.3676 3.93739 18.3676 3.81806C18.3676 3.69874 18.415 3.5843 18.4994 3.49992C18.5838 3.41555 18.6982 3.36815 18.8176 3.36815C18.9369 3.36815 19.0513 3.41555 19.1357 3.49992L22.9534 7.3176Z" fill="#374957"/>
</g>
</svg>
