<svg width="15" height="15" viewBox="0 0 15 15" fill="none" xmlns="http://www.w3.org/2000/svg">
<g id="x-circle" clip-path="url(#clip0_211_615)">
<path id="Vector" d="M7.5 14.0625C5.75952 14.0625 4.09032 13.3711 2.85961 12.1404C1.6289 10.9097 0.9375 9.24048 0.9375 7.5C0.9375 5.75952 1.6289 4.09032 2.85961 2.85961C4.09032 1.6289 5.75952 0.9375 7.5 0.9375C9.24048 0.9375 10.9097 1.6289 12.1404 2.85961C13.3711 4.09032 14.0625 5.75952 14.0625 7.5C14.0625 9.24048 13.3711 10.9097 12.1404 12.1404C10.9097 13.3711 9.24048 14.0625 7.5 14.0625ZM7.5 15C9.48912 15 11.3968 14.2098 12.8033 12.8033C14.2098 11.3968 15 9.48912 15 7.5C15 5.51088 14.2098 3.60322 12.8033 2.1967C11.3968 0.790176 9.48912 0 7.5 0C5.51088 0 3.60322 0.790176 2.1967 2.1967C0.790176 3.60322 0 5.51088 0 7.5C0 9.48912 0.790176 11.3968 2.1967 12.8033C3.60322 14.2098 5.51088 15 7.5 15Z" fill="#374957"/>
<path id="Vector_2" d="M4.35646 4.35561C4.40001 4.31196 4.45173 4.27732 4.50868 4.25369C4.56563 4.23006 4.62668 4.2179 4.68834 4.2179C4.74999 4.2179 4.81105 4.23006 4.86799 4.25369C4.92494 4.27732 4.97667 4.31196 5.02021 4.35561L7.50084 6.83717L9.98146 4.35561C10.025 4.31203 10.0768 4.27745 10.1337 4.25387C10.1907 4.23028 10.2517 4.21814 10.3133 4.21814C10.375 4.21814 10.436 4.23028 10.4929 4.25387C10.5499 4.27745 10.6016 4.31203 10.6452 4.35561C10.6888 4.39919 10.7234 4.45093 10.747 4.50787C10.7705 4.56482 10.7827 4.62585 10.7827 4.68748C10.7827 4.74912 10.7705 4.81015 10.747 4.86709C10.7234 4.92404 10.6888 4.97578 10.6452 5.01936L8.16365 7.49998L10.6452 9.98061C10.6888 10.0242 10.7234 10.0759 10.747 10.1329C10.7705 10.1898 10.7827 10.2508 10.7827 10.3125C10.7827 10.3741 10.7705 10.4351 10.747 10.4921C10.7234 10.549 10.6888 10.6008 10.6452 10.6444C10.6016 10.6879 10.5499 10.7225 10.4929 10.7461C10.436 10.7697 10.375 10.7818 10.3133 10.7818C10.2517 10.7818 10.1907 10.7697 10.1337 10.7461C10.0768 10.7225 10.025 10.6879 9.98146 10.6444L7.50084 8.1628L5.02021 10.6444C4.97663 10.6879 4.92489 10.7225 4.86795 10.7461C4.811 10.7697 4.74997 10.7818 4.68834 10.7818C4.6267 10.7818 4.56567 10.7697 4.50873 10.7461C4.45178 10.7225 4.40005 10.6879 4.35646 10.6444C4.31288 10.6008 4.27831 10.549 4.25472 10.4921C4.23114 10.4351 4.219 10.3741 4.219 10.3125C4.219 10.2508 4.23114 10.1898 4.25472 10.1329C4.27831 10.0759 4.31288 10.0242 4.35646 9.98061L6.83803 7.49998L4.35646 5.01936C4.31281 4.97582 4.27818 4.92409 4.25454 4.86714C4.23091 4.81019 4.21875 4.74914 4.21875 4.68748C4.21875 4.62583 4.23091 4.56478 4.25454 4.50783C4.27818 4.45088 4.31281 4.39915 4.35646 4.35561Z" fill="#374957"/>
</g>
<defs>
<clipPath id="clip0_211_615">
<rect width="15" height="15" fill="white"/>
</clipPath>
</defs>
</svg>
