<svg width="30" height="30" viewBox="0 0 30 30" fill="none" xmlns="http://www.w3.org/2000/svg">
<g id="Group 37809">
<path id="Union" fill-rule="evenodd" clip-rule="evenodd" d="M7.5 0H22.4762C26.619 0 30 3.38095 30 7.52381V22.4762C30 26.619 26.619 30 22.4762 30H7.5C3.38095 30 0 26.619 0 22.5V7.52381C0 3.38095 3.38095 0 7.5 0ZM24.1429 18.9048C24.1429 18.9048 24.2857 17.3095 24.2857 15.7381V14.2619C24.2857 12.6905 24.1429 11.0952 24.1429 11.0952C24.1429 11.0952 24 9.7381 23.4286 9.14286C22.7796 8.45063 22.052 8.36767 21.6565 8.32258C21.6167 8.31804 21.5803 8.31388 21.5476 8.30952C18.9286 8.11905 15 8.09524 15 8.09524C15 8.09524 11.0714 8.11905 8.42857 8.30952C8.39753 8.31366 8.36325 8.31762 8.32607 8.32192C7.93539 8.36704 7.22363 8.44924 6.57143 9.16667C6.02381 9.7619 5.85714 11.0952 5.85714 11.0952C5.85714 11.0952 5.71429 12.6905 5.71429 14.2619V15.7381C5.71429 17.3095 5.85714 18.9048 5.85714 18.9048C5.85714 18.9048 6 20.2381 6.57143 20.8333C7.1723 21.4943 7.94166 21.5824 8.41178 21.6362C8.50051 21.6464 8.57859 21.6553 8.64286 21.6667C10.1429 21.8095 15.0238 21.881 15.0238 21.881C15.0238 21.881 18.9524 21.8571 21.5714 21.6667C21.6089 21.6617 21.6511 21.6572 21.6975 21.6523C22.0927 21.6104 22.7893 21.5366 23.4286 20.8333C23.9762 20.2381 24.1429 18.9048 24.1429 18.9048ZM13.0712 17.5236V12.0474L18.1188 14.8094L13.0712 17.5236Z" fill="#374957"/>
</g>
</svg>
