<svg width="22" height="22" viewBox="0 0 22 22" fill="none" xmlns="http://www.w3.org/2000/svg">
<g id="zoom-in 1" clip-path="url(#clip0_206_84)">
<g id="Group">
<g id="Group_2">
<path id="Vector" d="M21.7483 20.5324L15.5413 14.3255C18.3693 10.8848 18.1769 5.77713 14.9634 2.56367C11.5448 -0.854882 5.98246 -0.854882 2.56391 2.56367C-0.854638 5.98222 -0.854638 11.5446 2.56391 14.9631C5.77651 18.1757 10.8835 18.3702 14.3257 15.5411L20.5327 21.748C20.8683 22.0837 21.4125 22.0837 21.7482 21.748C22.0839 21.4123 22.0839 20.8681 21.7483 20.5324ZM13.7478 13.7475C10.9995 16.4958 6.52778 16.4958 3.7795 13.7475C1.03122 10.9993 1.03122 6.52749 3.7795 3.77921C6.52769 1.03106 10.9995 1.03084 13.7478 3.77921C16.4961 6.52749 16.4961 10.9993 13.7478 13.7475Z" fill="#374957"/>
</g>
</g>
<g id="Group_3">
<g id="Group_4">
<path id="Vector_2" d="M12.9719 7.90409H9.62294V4.5551C9.62294 4.08038 9.23811 3.69556 8.76339 3.69556C8.28867 3.69556 7.90384 4.08038 7.90384 4.5551V7.90409H4.55486C4.08014 7.90409 3.69531 8.28892 3.69531 8.76364C3.69531 9.23835 4.08014 9.62318 4.55486 9.62318H7.90384V12.9722C7.90384 13.4469 8.28867 13.8317 8.76339 13.8317C9.23811 13.8317 9.62294 13.4469 9.62294 12.9722V9.62318H12.9719C13.4466 9.62318 13.8315 9.23835 13.8315 8.76364C13.8315 8.28892 13.4466 7.90409 12.9719 7.90409Z" fill="#374957"/>
</g>
</g>
</g>
<defs>
<clipPath id="clip0_206_84">
<rect width="22" height="22" fill="white"/>
</clipPath>
</defs>
</svg>
