<svg width="14" height="14" viewBox="0 0 14 14" fill="none" xmlns="http://www.w3.org/2000/svg">
<g id="question-octagon" clip-path="url(#clip0_440_1191)">
<path id="Vector" d="M3.9725 0.12775C4.05449 0.0459647 4.16557 2.46041e-05 4.28137 0L9.71863 0C9.83443 2.46041e-05 9.94551 0.0459647 10.0275 0.12775L13.8722 3.9725C13.954 4.05449 14 4.16557 14 4.28137V9.71863C14 9.83443 13.954 9.94551 13.8722 10.0275L10.0275 13.8722C9.94551 13.954 9.83443 14 9.71863 14H4.28137C4.16557 14 4.05449 13.954 3.9725 13.8722L0.12775 10.0275C0.0459647 9.94551 2.46041e-05 9.83443 0 9.71863L0 4.28137C2.46041e-05 4.16557 0.0459647 4.05449 0.12775 3.9725L3.9725 0.12775ZM4.4625 0.875L0.875 4.4625V9.5375L4.4625 13.125H9.5375L13.125 9.5375V4.4625L9.5375 0.875H4.4625Z" fill="#F26521"/>
<path id="Vector_2" d="M4.60175 5.06275C4.60055 5.09101 4.60515 5.11921 4.61525 5.14563C4.62536 5.17204 4.64076 5.19611 4.66051 5.21636C4.68026 5.2366 4.70394 5.25259 4.7301 5.26334C4.75626 5.27409 4.78435 5.27938 4.81262 5.27887H5.5345C5.65525 5.27887 5.7515 5.18 5.76725 5.06012C5.846 4.48612 6.23975 4.06788 6.9415 4.06788C7.54175 4.06788 8.09125 4.368 8.09125 5.08987C8.09125 5.6455 7.764 5.901 7.24687 6.2895C6.658 6.71738 6.19162 7.217 6.22487 8.02813L6.2275 8.218C6.22842 8.27541 6.25187 8.33015 6.29279 8.37042C6.33372 8.41069 6.38883 8.43326 6.44625 8.43325H7.15587C7.21389 8.43325 7.26953 8.4102 7.31055 8.36918C7.35158 8.32816 7.37462 8.27252 7.37462 8.2145V8.12262C7.37462 7.49438 7.6135 7.3115 8.25837 6.82237C8.79125 6.41725 9.34687 5.9675 9.34687 5.02338C9.34687 3.70125 8.23037 3.0625 7.008 3.0625C5.89937 3.0625 4.68487 3.57875 4.60175 5.06275ZM5.96412 10.1054C5.96412 10.5717 6.336 10.9165 6.84787 10.9165C7.38075 10.9165 7.74737 10.5717 7.74737 10.1054C7.74737 9.62238 7.37987 9.28288 6.847 9.28288C6.336 9.28288 5.96412 9.62238 5.96412 10.1054Z" fill="#F26521"/>
</g>
<defs>
<clipPath id="clip0_440_1191">
<rect width="14" height="14" fill="white"/>
</clipPath>
</defs>
</svg>
