<svg width="20" height="20" viewBox="0 0 20 20" fill="none" xmlns="http://www.w3.org/2000/svg">
<path fill-rule="evenodd" clip-rule="evenodd" d="M4.3227 2.66667L4.17752 1.70333C4.03033 0.723995 3.18666 0 2.19313 0C1.46788 0 0.669045 0 0.669045 0C0.299732 0 0 0.298667 0 0.666667C0 1.03467 0.299732 1.33333 0.669045 1.33333H2.19313C2.52431 1.33333 2.80531 1.57466 2.85481 1.90133L4.52007 12.9633C4.66726 13.9427 5.51092 14.6667 6.50446 14.6667H16.2846C17.2507 14.6667 18.0796 13.9813 18.2576 13.0353C18.6142 11.1407 19.3501 7.22867 19.7629 5.03534C19.8726 4.45067 19.7161 3.84734 19.3347 3.38934C18.9534 2.93134 18.3874 2.66667 17.7899 2.66667H4.3227ZM4.52342 4L5.84277 12.7653C5.89228 13.092 6.17328 13.3333 6.50446 13.3333H16.2846C16.6064 13.3333 16.8827 13.1047 16.9422 12.7893L18.4476 4.78933C18.4844 4.59466 18.4322 4.39333 18.3051 4.24066C18.178 4.088 17.9893 4 17.7899 4H4.52342Z" fill="white"/>
<path fill-rule="evenodd" clip-rule="evenodd" d="M7.35089 16.0002C6.24295 16.0002 5.34375 16.8962 5.34375 18.0002C5.34375 19.1042 6.24295 20.0002 7.35089 20.0002C8.45882 20.0002 9.35802 19.1042 9.35802 18.0002C9.35802 16.8962 8.45882 16.0002 7.35089 16.0002ZM7.35089 17.3336C7.7202 17.3336 8.01993 17.6322 8.01993 18.0002C8.01993 18.3682 7.7202 18.6669 7.35089 18.6669C6.98157 18.6669 6.68184 18.3682 6.68184 18.0002C6.68184 17.6322 6.98157 17.3336 7.35089 17.3336Z" fill="white"/>
<path fill-rule="evenodd" clip-rule="evenodd" d="M15.3899 16.0002C14.282 16.0002 13.3828 16.8962 13.3828 18.0002C13.3828 19.1042 14.282 20.0002 15.3899 20.0002C16.4979 20.0002 17.3971 19.1042 17.3971 18.0002C17.3971 16.8962 16.4979 16.0002 15.3899 16.0002ZM15.3899 17.3336C15.7593 17.3336 16.059 17.6322 16.059 18.0002C16.059 18.3682 15.7593 18.6669 15.3899 18.6669C15.0206 18.6669 14.7209 18.3682 14.7209 18.0002C14.7209 17.6322 15.0206 17.3336 15.3899 17.3336Z" fill="white"/>
</svg>
