<svg width="21" height="18" viewBox="0 0 21 18" fill="none" xmlns="http://www.w3.org/2000/svg">
<path d="M0.65625 11.3849C0.830298 11.3849 0.997218 11.4494 1.12029 11.5641C1.24336 11.6787 1.3125 11.8343 1.3125 11.9965V15.054C1.3125 15.3783 1.45078 15.6894 1.69692 15.9188C1.94306 16.1481 2.2769 16.277 2.625 16.277H18.375C18.7231 16.277 19.0569 16.1481 19.3031 15.9188C19.5492 15.6894 19.6875 15.3783 19.6875 15.054V11.9965C19.6875 11.8343 19.7566 11.6787 19.8797 11.5641C20.0028 11.4494 20.1697 11.3849 20.3438 11.3849C20.5178 11.3849 20.6847 11.4494 20.8078 11.5641C20.9309 11.6787 21 11.8343 21 11.9965V15.054C21 15.7027 20.7234 16.3249 20.2312 16.7836C19.7389 17.2423 19.0712 17.5 18.375 17.5H2.625C1.92881 17.5 1.26113 17.2423 0.768845 16.7836C0.276562 16.3249 0 15.7027 0 15.054V11.9965C0 11.8343 0.0691404 11.6787 0.192211 11.5641C0.315282 11.4494 0.482202 11.3849 0.65625 11.3849Z" fill="white"/>
<path d="M10.0354 13.7746C10.0963 13.8315 10.1688 13.8767 10.2485 13.9075C10.3282 13.9383 10.4137 13.9542 10.5 13.9542C10.5863 13.9542 10.6718 13.9383 10.7515 13.9075C10.8313 13.8767 10.9037 13.8315 10.9646 13.7746L14.9021 10.1055C15.0254 9.9907 15.0946 9.83496 15.0946 9.67258C15.0946 9.51019 15.0254 9.35445 14.9021 9.23963C14.7789 9.12481 14.6118 9.0603 14.4375 9.0603C14.2632 9.0603 14.0961 9.12481 13.9729 9.23963L11.1563 11.8654V1.11151C11.1563 0.949324 11.0871 0.793785 10.964 0.679106C10.841 0.564426 10.6741 0.5 10.5 0.5C10.326 0.5 10.159 0.564426 10.036 0.679106C9.9129 0.793785 9.84376 0.949324 9.84376 1.11151V11.8654L7.02713 9.23963C6.90391 9.12481 6.73678 9.0603 6.56251 9.0603C6.38824 9.0603 6.22111 9.12481 6.09788 9.23963C5.97466 9.35445 5.90543 9.51019 5.90543 9.67258C5.90543 9.83496 5.97466 9.9907 6.09788 10.1055L10.0354 13.7746Z" fill="white"/>
</svg>
