<svg width="58" height="58" viewBox="0 0 58 58" fill="none" xmlns="http://www.w3.org/2000/svg">
<g id="Group 37863">
<circle id="Ellipse 7" cx="29" cy="29" r="29" fill="white"/>
<g id="Vector">
<path d="M19.5 28.7513C19.4998 27.303 19.8808 25.8802 20.6048 24.6258C21.3288 23.3715 22.3703 22.3298 23.6245 21.6056C24.8787 20.8813 26.3014 20.5 27.7497 20.5C29.198 20.4999 30.6208 20.8811 31.875 21.6053C32.0472 21.7032 32.2511 21.729 32.4422 21.6771C32.6333 21.6252 32.7962 21.4998 32.8952 21.3283C32.9942 21.1568 33.0214 20.953 32.9708 20.7616C32.9202 20.5701 32.7959 20.4064 32.625 20.3063C30.7663 19.2331 28.6054 18.8033 26.4775 19.0834C24.3496 19.3635 22.3736 20.3379 20.8559 21.8555C19.3383 23.3731 18.3637 25.349 18.0835 27.4769C17.8032 29.6048 18.2329 31.7657 19.306 33.6245C20.379 35.4833 22.0353 36.936 24.0181 37.7575C26.0009 38.579 28.1994 38.7233 30.2726 38.168C32.3458 37.6127 34.1778 36.3889 35.4845 34.6863C36.7913 32.9837 37.4997 30.8975 37.5 28.7513C37.5 28.5524 37.421 28.3616 37.2803 28.2209C37.1397 28.0803 36.9489 28.0013 36.75 28.0013C36.5511 28.0013 36.3603 28.0803 36.2197 28.2209C36.079 28.3616 36 28.5524 36 28.7513C36 30.9393 35.1308 33.0377 33.5836 34.5849C32.0365 36.1321 29.9381 37.0013 27.75 37.0013C25.562 37.0013 23.4636 36.1321 21.9164 34.5849C20.3692 33.0377 19.5 30.9393 19.5 28.7513Z" fill="#F26521"/>
<path d="M38.781 21.7824C38.8507 21.7127 38.906 21.6299 38.9437 21.5388C38.9815 21.4477 39.0009 21.35 39.0009 21.2514C39.0009 21.1528 38.9815 21.0551 38.9437 20.964C38.906 20.8729 38.8507 20.7901 38.781 20.7204C38.7112 20.6507 38.6284 20.5954 38.5373 20.5576C38.4462 20.5199 38.3486 20.5005 38.25 20.5005C38.1513 20.5005 38.0537 20.5199 37.9626 20.5576C37.8715 20.5954 37.7887 20.6507 37.719 20.7204L27.75 30.6909L23.781 26.7204C23.7112 26.6507 23.6284 26.5954 23.5373 26.5576C23.4462 26.5199 23.3486 26.5005 23.25 26.5005C23.1513 26.5005 23.0537 26.5199 22.9626 26.5576C22.8715 26.5954 22.7887 26.6507 22.719 26.7204C22.6492 26.7901 22.5939 26.8729 22.5562 26.964C22.5184 27.0551 22.499 27.1528 22.499 27.2514C22.499 27.35 22.5184 27.4477 22.5562 27.5388C22.5939 27.6299 22.6492 27.7127 22.719 27.7824L27.219 32.2824C27.2886 32.3522 27.3714 32.4077 27.4625 32.4455C27.5536 32.4833 27.6513 32.5027 27.75 32.5027C27.8486 32.5027 27.9463 32.4833 28.0374 32.4455C28.1285 32.4077 28.2113 32.3522 28.281 32.2824L38.781 21.7824Z" fill="#F26521"/>
</g>
</g>
</svg>
