<svg width="58" height="58" viewBox="0 0 58 58" fill="none" xmlns="http://www.w3.org/2000/svg">
<g id="Group 37863">
<circle id="Ellipse 7" cx="29" cy="29" r="29" fill="white"/>
<path id="Union" fill-rule="evenodd" clip-rule="evenodd" d="M25.8104 20C25.6533 20 25.5025 20.0624 25.3913 20.1734L20.1734 25.3913C20.0624 25.5025 20 25.6533 20 25.8104V33.1896C20 33.3468 20.0624 33.4975 20.1734 33.6087L25.3913 38.8266C25.5025 38.9376 25.6533 39 25.8104 39H33.1896C33.3468 39 33.4975 38.9376 33.6087 38.8266L38.8266 33.6087C38.9376 33.4975 39 33.3468 39 33.1896V25.8104C39 25.6533 38.9376 25.5025 38.8266 25.3913L33.6087 20.1734C33.4975 20.0624 33.3468 20 33.1896 20H25.8104ZM21.1875 26.0563L26.0563 21.1875H32.9438L37.8125 26.0563V32.9438L32.9438 37.8125H26.0563L21.1875 32.9438V26.0563ZM28.4053 32.6081C28.3455 32.7522 28.3149 32.9066 28.3149 33.0626C28.3149 33.3775 28.4399 33.6795 28.6626 33.9022C28.8853 34.1249 29.1874 34.2501 29.5024 34.2501C29.8173 34.2501 30.1193 34.1249 30.342 33.9022C30.5647 33.6795 30.6899 33.3775 30.6899 33.0626C30.6899 32.9066 30.6591 32.7522 30.5995 32.6081C30.5398 32.4641 30.4523 32.3331 30.342 32.2228C30.2318 32.1126 30.1009 32.0251 29.9568 31.9655C29.8127 31.9057 29.6583 31.8751 29.5024 31.8751C29.3464 31.8751 29.192 31.9057 29.0479 31.9655C28.9039 32.0251 28.7729 32.1126 28.6626 32.2228C28.5524 32.3331 28.4649 32.4641 28.4053 32.6081ZM28.4778 25.487C28.4312 25.6303 28.4154 25.7818 28.4312 25.9316L28.8469 30.0962C28.8609 30.2598 28.9357 30.4122 29.0566 30.5232C29.1775 30.6343 29.3358 30.6959 29.5 30.6959C29.6641 30.6959 29.8224 30.6343 29.9433 30.5232C30.0643 30.4122 30.1391 30.2598 30.1531 30.0962L30.5687 25.9316C30.5846 25.7818 30.5687 25.6303 30.5222 25.487C30.4756 25.3438 30.3996 25.2118 30.2988 25.0999C30.198 24.9879 30.0748 24.8984 29.9372 24.8371C29.7996 24.7758 29.6506 24.7441 29.5 24.7441C29.3494 24.7441 29.2003 24.7758 29.0627 24.8371C28.9251 24.8984 28.802 24.9879 28.7012 25.0999C28.6004 25.2118 28.5243 25.3438 28.4778 25.487Z" fill="#F26521"/>
</g>
</svg>
