<svg width="125" height="125" viewBox="0 0 125 125" fill="none" xmlns="http://www.w3.org/2000/svg">
<g id="Group 37853">
<circle id="Ellipse 8" cx="62.5" cy="62.5" r="62.5" fill="white"/>
<g id="Group 37812">
<path id="Vector" fill-rule="evenodd" clip-rule="evenodd" d="M47.7261 46L47.3994 43.8325C47.0682 41.629 45.17 40 42.9345 40C41.3027 40 39.5054 40 39.5054 40C38.6744 40 38 40.672 38 41.5C38 42.328 38.6744 43 39.5054 43H42.9345C43.6797 43 44.3119 43.543 44.4233 44.278L48.1701 69.1675C48.5013 71.371 50.3996 73 52.635 73H74.6402C76.814 73 78.6791 71.458 79.0795 69.3295C79.8819 65.0665 81.5378 56.2645 82.4666 51.3295C82.7134 50.014 82.3612 48.6565 81.5031 47.626C80.6451 46.5955 79.3716 46 78.0273 46H47.7261ZM48.1777 49L51.1462 68.722C51.2576 69.457 51.8899 70 52.635 70H74.6402C75.3643 70 75.986 69.4855 76.12 68.776L79.507 50.776C79.5898 50.338 79.4724 49.885 79.1864 49.5415C78.9004 49.198 78.4759 49 78.0273 49H48.1777Z" fill="#374957"/>
<path id="Vector_2" fill-rule="evenodd" clip-rule="evenodd" d="M54.559 76.0001C52.0662 76.0001 50.043 78.0161 50.043 80.5001C50.043 82.9841 52.0662 85.0001 54.559 85.0001C57.0519 85.0001 59.0751 82.9841 59.0751 80.5001C59.0751 78.0161 57.0519 76.0001 54.559 76.0001ZM54.559 79.0001C55.39 79.0001 56.0644 79.6721 56.0644 80.5001C56.0644 81.3281 55.39 82.0001 54.559 82.0001C53.7281 82.0001 53.0537 81.3281 53.0537 80.5001C53.0537 79.6721 53.7281 79.0001 54.559 79.0001Z" fill="#374957"/>
<path id="Vector_3" fill-rule="evenodd" clip-rule="evenodd" d="M72.6235 76.0001C70.1306 76.0001 68.1074 78.0161 68.1074 80.5001C68.1074 82.9841 70.1306 85.0001 72.6235 85.0001C75.1163 85.0001 77.1395 82.9841 77.1395 80.5001C77.1395 78.0161 75.1163 76.0001 72.6235 76.0001ZM72.6235 79.0001C73.4544 79.0001 74.1288 79.6721 74.1288 80.5001C74.1288 81.3281 73.4544 82.0001 72.6235 82.0001C71.7925 82.0001 71.1181 81.3281 71.1181 80.5001C71.1181 79.6721 71.7925 79.0001 72.6235 79.0001Z" fill="#374957"/>
</g>
</g>
</svg>
