<svg width="125" height="125" viewBox="0 0 125 125" fill="none" xmlns="http://www.w3.org/2000/svg">
<g id="Group 37854">
<circle id="Ellipse 7" cx="62.5" cy="62.5" r="62.5" fill="white"/>
<path id="!" d="M98.5435 41L97.7609 72.4388H91.0435L90.2283 41H98.5435ZM90 82.0816C90 80.9592 90.3913 80.0204 91.1739 79.2653C91.9783 78.4898 93.087 78.102 94.5 78.102C95.8913 78.102 96.9891 78.4898 97.7935 79.2653C98.5978 80.0204 99 80.9592 99 82.0816C99 83.1633 98.5978 84.0918 97.7935 84.8673C96.9891 85.6224 95.8913 86 94.5 86C93.087 86 91.9783 85.6224 91.1739 84.8673C90.3913 84.0918 90 83.1633 90 82.0816Z" fill="#F26521"/>
<path id="Vector" d="M66.6287 84V54.1931H61.6569V84H44.3431V54.1931H39.3729V84H23V54.1931L33.6104 40H72.3904L83 54.1931V84H66.6287Z" fill="#F26521"/>
</g>
</svg>
