<svg width="24" height="24" viewBox="0 0 24 24" fill="none" xmlns="http://www.w3.org/2000/svg">
<path id="Vector" d="M5.48171 1.99244C5.39316 1.87853 5.28138 1.78477 5.15381 1.71738C5.02624 1.64999 4.88579 1.61051 4.74178 1.60158C4.59778 1.59264 4.45353 1.61444 4.3186 1.66554C4.18367 1.71664 4.06116 1.79586 3.95921 1.89794L2.40821 3.45044C1.68371 4.17644 1.41671 5.20394 1.73321 6.10544C3.04682 9.83682 5.18365 13.2246 7.98521 16.0174C10.7781 18.819 14.1658 20.9558 17.8972 22.2694C18.7987 22.5859 19.8262 22.3189 20.5522 21.5944L22.1032 20.0434C22.2053 19.9415 22.2845 19.819 22.3356 19.684C22.3867 19.5491 22.4085 19.4049 22.3996 19.2609C22.3906 19.1169 22.3512 18.9764 22.2838 18.8488C22.2164 18.7213 22.1226 18.6095 22.0087 18.5209L18.5482 15.8299C18.4265 15.7356 18.285 15.67 18.1343 15.6383C17.9836 15.6066 17.8276 15.6096 17.6782 15.6469L14.3932 16.4674C13.9547 16.577 13.4953 16.5712 13.0598 16.4506C12.6242 16.3299 12.2273 16.0985 11.9077 15.7789L8.22371 12.0934C7.90386 11.774 7.6722 11.3772 7.55128 10.9416C7.43036 10.506 7.4243 10.0466 7.53371 9.60794L8.35571 6.32294C8.39307 6.17354 8.39601 6.0176 8.36431 5.86689C8.33261 5.71618 8.26709 5.57464 8.17271 5.45294L5.48171 1.99244ZM2.82671 0.766942C3.0892 0.504367 3.40455 0.300638 3.75182 0.169284C4.09908 0.0379306 4.47032 -0.0180424 4.84088 0.00508205C5.21144 0.0282065 5.57284 0.129899 5.90108 0.303408C6.22932 0.476916 6.5169 0.71827 6.74471 1.01144L9.43571 4.47044C9.92921 5.10494 10.1032 5.93144 9.90821 6.71144L9.08771 9.99644C9.04528 10.1666 9.04758 10.3448 9.09436 10.5138C9.14114 10.6828 9.23083 10.8368 9.35471 10.9609L13.0402 14.6464C13.1645 14.7706 13.3187 14.8604 13.488 14.9072C13.6573 14.954 13.8358 14.9561 14.0062 14.9134L17.2897 14.0929C17.6746 13.9967 18.0764 13.9892 18.4646 14.0711C18.8529 14.1529 19.2174 14.322 19.5307 14.5654L22.9897 17.2564C24.2332 18.2239 24.3472 20.0614 23.2342 21.1729L21.6832 22.7239C20.5732 23.8339 18.9142 24.3214 17.3677 23.7769C13.4095 22.3842 9.81561 20.1182 6.85271 17.1469C3.88164 14.1845 1.61562 10.5911 0.222706 6.63344C-0.320294 5.08844 0.167206 3.42794 1.27721 2.31794L2.82821 0.766942H2.82671Z" fill="#374957"/>
</svg>
