<svg width="41" height="41" viewBox="0 0 41 41" fill="none" xmlns="http://www.w3.org/2000/svg">
<g id="Group 37806">
<g id="Group 37804">
<path id="Vector" fill-rule="evenodd" clip-rule="evenodd" d="M4.55566 29.6111C4.55566 27.0951 6.59525 25.0555 9.11122 25.0555H15.9446C18.4606 25.0555 20.5001 27.0951 20.5001 29.6111V36.4444C20.5001 38.9605 18.4606 41 15.9446 41H9.11122C6.59525 41 4.55566 38.9605 4.55566 36.4444V29.6111ZM15.9446 29.6111H9.11122V36.4444H15.9446V29.6111Z" fill="#374957"/>
<path id="Vector_2" fill-rule="evenodd" clip-rule="evenodd" d="M0 4.55556C0 2.03959 2.03959 0 4.55556 0H15.9444C18.4605 0 20.5 2.03959 20.5 4.55556V15.9444C20.5 18.4605 18.4605 20.5 15.9444 20.5H4.55556C2.03959 20.5 0 18.4605 0 15.9444V4.55556ZM15.9444 4.55556H4.55556V15.9444H15.9444V4.55556Z" fill="#374957"/>
<path id="Vector_3" fill-rule="evenodd" clip-rule="evenodd" d="M25.0557 29.6111C25.0557 27.0951 27.0952 25.0555 29.6112 25.0555H36.4446C38.9606 25.0555 41.0001 27.0951 41.0001 29.6111V36.4444C41.0001 38.9605 38.9606 41 36.4446 41H29.6112C27.0952 41 25.0557 38.9605 25.0557 36.4444V29.6111ZM36.4446 29.6111H29.6112V36.4444H36.4446V29.6111Z" fill="#374957"/>
<path id="Vector_4" fill-rule="evenodd" clip-rule="evenodd" d="M25.0557 9.1111C25.0557 6.59513 27.0952 4.55554 29.6112 4.55554H36.4446C38.9606 4.55554 41.0001 6.59513 41.0001 9.1111V15.9444C41.0001 18.4605 38.9606 20.5 36.4446 20.5H29.6112C27.0952 20.5 25.0557 18.4605 25.0557 15.9444V9.1111ZM36.4446 9.1111H29.6112V15.9444H36.4446V9.1111Z" fill="#374957"/>
</g>
</g>
</svg>
