<svg width="38" height="39" viewBox="0 0 38 39" fill="none" xmlns="http://www.w3.org/2000/svg">
<g id="Group 37812">
<path id="Vector" fill-rule="evenodd" clip-rule="evenodd" d="M8.18393 5.74295L7.90907 3.91912C7.6304 2.065 6.03313 0.694298 4.15213 0.694298C2.77907 0.694298 1.26667 0.694298 1.26667 0.694298C0.567467 0.694298 0 1.25975 0 1.95646C0 2.65318 0.567467 3.21863 1.26667 3.21863H4.15213C4.77913 3.21863 5.31113 3.67552 5.40486 4.29398L8.5576 25.2371C8.83626 27.0912 10.4335 28.4619 12.3145 28.4619H30.8307C32.6597 28.4619 34.2291 27.1644 34.5661 25.3734C35.2412 21.7863 36.6345 14.38 37.4161 10.2274C37.6238 9.12052 37.3274 7.97826 36.6054 7.11116C35.8834 6.24405 34.8118 5.74295 33.6807 5.74295H8.18393ZM8.56394 8.26728L11.0618 24.8622C11.1555 25.4807 11.6875 25.9376 12.3145 25.9376H30.8307C31.4399 25.9376 31.9631 25.5046 32.0758 24.9076L34.9258 9.76167C34.9955 9.39312 34.8967 9.01195 34.656 8.72291C34.4153 8.43388 34.0581 8.26728 33.6807 8.26728H8.56394Z" fill="#374957"/>
<path id="Vector_2" fill-rule="evenodd" clip-rule="evenodd" d="M13.9338 30.9862C11.8362 30.9862 10.1338 32.6826 10.1338 34.7727C10.1338 36.8629 11.8362 38.5592 13.9338 38.5592C16.0314 38.5592 17.7338 36.8629 17.7338 34.7727C17.7338 32.6826 16.0314 30.9862 13.9338 30.9862ZM13.9338 33.5106C14.633 33.5106 15.2005 34.076 15.2005 34.7727C15.2005 35.4694 14.633 36.0349 13.9338 36.0349C13.2346 36.0349 12.6671 35.4694 12.6671 34.7727C12.6671 34.076 13.2346 33.5106 13.9338 33.5106Z" fill="#374957"/>
<path id="Vector_3" fill-rule="evenodd" clip-rule="evenodd" d="M29.133 30.9862C27.0354 30.9862 25.333 32.6826 25.333 34.7727C25.333 36.8629 27.0354 38.5592 29.133 38.5592C31.2306 38.5592 32.933 36.8629 32.933 34.7727C32.933 32.6826 31.2306 30.9862 29.133 30.9862ZM29.133 33.5106C29.8322 33.5106 30.3997 34.076 30.3997 34.7727C30.3997 35.4694 29.8322 36.0349 29.133 36.0349C28.4338 36.0349 27.8663 35.4694 27.8663 34.7727C27.8663 34.076 28.4338 33.5106 29.133 33.5106Z" fill="#374957"/>
</g>
</svg>
