<svg width="181" height="36" viewBox="0 0 181 36" fill="none" xmlns="http://www.w3.org/2000/svg">
<g id="macma-logo 1" clip-path="url(#clip0_52_652)">
<g id="Group">
<path id="Vector" d="M165.715 10.8057H162V13.6405H165.715V10.8057ZM165.76 34.7634V23.3962H161.976V34.7634H148.873V12.024L156.974 1.19617H170.761L178.863 12.024V34.7634H165.76ZM147.711 34.7634V12.024L139.61 1.19617H109.996L101.894 12.024V34.7634H114.397V12.024H118.192V34.7634H131.414V12.024H135.21V34.7634H147.711ZM100.732 1.19617H79.2944V17.9799H79.2918V34.7634H100.73V23.9312H90.9388V17.9799H90.9414V12.0284H100.732V1.19617ZM64.9819 10.8057H61.2667V13.6405H64.9819V10.8057ZM65.0267 34.7634V23.3962H61.2432V34.7634H48.1397V12.024L56.2423 1.19617H70.0278L78.1303 12.024V34.7634H65.0267ZM34.4765 34.7634V12.024H30.6798V34.7634H17.4585V12.024H13.663V34.7634H1.16016V12.024L9.26258 1.19617H38.8764L46.9782 12.024V34.7634H34.4765Z" fill="#F26521"/>
<path id="Vector_2" d="M178.863 34.7636H165.76V23.3964H161.976V34.7636H148.873V12.0242L156.974 1.19637H170.761L178.863 12.0242V34.7636ZM147.712 34.7636H135.21V12.0242H131.414V34.7636H118.192V12.0242H114.397V34.7636H101.894V12.0242L109.996 1.19637H139.61L147.712 12.0242V34.7636ZM100.733 22.7705H92.1005V19.1416L92.1031 17.9801V13.1901H100.733V22.7705ZM100.73 34.7636H79.292V17.9801H79.2945V1.19637H100.733V12.0286H90.9416V17.9801H90.939V23.9314H100.73V34.7636ZM78.1304 34.7636H65.0269V23.3964H61.2434V34.7636H48.1399V12.0242L56.2424 1.19637H70.028L78.1304 12.0242V34.7636ZM46.9783 34.7636H34.4767V12.0242H30.68V34.7636H17.4586V12.0242H13.6632V34.7636H1.16032V12.0242L9.26274 1.19637H38.8765L46.9783 12.0242V34.7636ZM179.793 11.3284L171.691 0.501172L171.342 0.0348358H156.394L156.045 0.501172L148.293 10.8619L140.54 0.501172L140.192 0.0348358H109.415L109.067 0.501172L101.894 10.0867V0.0348358H78.1336V10.0905L70.9581 0.501172L70.6096 0.0348358H55.6607L55.3122 0.501172L47.5595 10.8627L39.8068 0.501172L39.4581 0.0348358H8.68175L8.33324 0.501172L0.231277 11.3284L0 11.6377V35.9252H14.8241V13.1857H16.2977V35.9252H31.8415V13.1857H33.3151V35.9252H62.4043V24.5579H63.866V35.9252H115.558V13.1857H117.031V35.9252H132.575V13.1857H134.048V35.9252H163.138V24.5579H164.598V35.9252H180.025V11.6377L179.793 11.3284ZM63.8212 12.4798H62.4284V11.9675H63.8212V12.4798ZM64.9821 10.8059H61.2668V13.6407H64.9821V10.8059ZM164.554 12.4798H163.162V11.9675H164.554V12.4798ZM165.715 10.8059H162V13.6407H165.715V10.8059Z" fill="#58595B"/>
</g>
</g>
<defs>
<clipPath id="clip0_52_652">
<rect width="180.303" height="36" fill="white"/>
</clipPath>
</defs>
</svg>
