<svg width="25" height="26" viewBox="0 0 25 26" fill="none" xmlns="http://www.w3.org/2000/svg">
<path id="Vector" d="M18.3958 16.2623C19.9201 14.2059 20.6118 11.6498 20.3326 9.10519C20.0534 6.56063 18.8239 4.21533 16.89 2.53851C14.9561 0.861686 12.4604 -0.0230018 9.90235 0.0614407C7.34426 0.145883 4.91238 1.19323 3.09324 2.99394C1.27409 4.79465 0.201842 7.21593 0.091005 9.77337C-0.0198318 12.3308 0.838918 14.8358 2.49545 16.7872C4.15198 18.7386 6.48413 19.9924 9.02532 20.2979C11.5665 20.6034 14.1293 19.938 16.201 18.4348L16.1995 18.4348C16.246 18.4976 16.2957 18.5572 16.3516 18.6154L22.3337 24.6647C22.625 24.9596 23.0216 25.1266 23.436 25.129C23.8505 25.1314 24.2489 24.9691 24.5437 24.6777C24.8385 24.3863 25.0055 23.9897 25.0079 23.5752C25.0104 23.1607 24.8481 22.7622 24.5567 22.4674L18.5746 16.418C18.5191 16.3611 18.4593 16.3086 18.3958 16.2607L18.3958 16.2623ZM18.8321 10.2578C18.8258 11.3864 18.5974 12.5028 18.1598 13.5431C17.7222 14.5835 17.084 15.5274 16.2816 16.3211C15.4792 17.1148 14.5284 17.7426 13.4834 18.1688C12.4385 18.5949 11.3198 18.8111 10.1913 18.8048C9.06283 18.7986 7.94662 18.5701 6.90642 18.1325C5.86621 17.6948 4.92239 17.0565 4.12883 16.254C3.33528 15.4515 2.70753 14.5006 2.28143 13.4555C1.85534 12.4103 1.63923 11.2915 1.64546 10.1629C1.65805 7.88348 2.57548 5.70243 4.19593 4.09954C5.81638 2.49665 8.00712 1.60323 10.2862 1.61581C12.5653 1.62839 14.746 2.54595 16.3487 4.16663C17.9513 5.7873 18.8446 7.97835 18.8321 10.2578Z" fill="#333333"/>
</svg>
