<svg width="10" height="7" viewBox="0 0 10 7" fill="none" xmlns="http://www.w3.org/2000/svg">
<path id="Vector" d="M4.04654 6.22652L0.199988 1.82977C-0.253963 1.31246 0.114972 0.5 0.803919 0.5H8.49703C8.65122 0.499868 8.80217 0.544182 8.93182 0.627636C9.06147 0.711091 9.16432 0.830147 9.22804 0.970548C9.29177 1.11095 9.31367 1.26674 9.29114 1.41927C9.2686 1.5718 9.20257 1.7146 9.10096 1.83057L5.25441 6.22572C5.17913 6.31187 5.08629 6.38091 4.98212 6.42822C4.87796 6.47552 4.76488 6.5 4.65047 6.5C4.53607 6.5 4.42299 6.47552 4.31883 6.42822C4.21466 6.38091 4.12182 6.31187 4.04654 6.22572V6.22652Z" fill="#C4BCBC"/>
</svg>
