<svg xmlns="http://www.w3.org/2000/svg" width="35" height="30" viewBox="0 0 35 30" fill="none">
<rect width="35" height="30" fill="white"/>
<path d="M18.4903 9.58691C18.2716 9.36818 17.797 8.99998 17.0802 8.99998C16.3634 8.99998 15.8888 9.36818 15.6699 9.58691" stroke="#374957" stroke-miterlimit="10"/>
<path d="M12.8389 6.75928C13.9253 5.67288 15.4253 5.00001 17.0796 5.00001C18.734 5.00001 20.234 5.67288 21.3204 6.75928" stroke="#374957" stroke-miterlimit="10"/>
<path d="M33.1333 19C33.1333 22.3137 30.4471 25 27.1333 25H7C3.68627 25 1 22.3137 1 19C1 15.6863 3.68627 13 7 13H27.1333C30.4471 13 33.1333 15.6863 33.1333 19Z" stroke="#374957" stroke-miterlimit="10"/>
<path d="M19.0664 19C19.0664 20.1046 18.1709 21 17.0664 21C15.9619 21 15.0664 20.1046 15.0664 19C15.0664 17.8954 15.9619 17 17.0664 17C18.1709 17 19.0664 17.8954 19.0664 19Z" stroke="#374957" stroke-miterlimit="10"/>
<path d="M11.0664 13V25" stroke="#374957" stroke-miterlimit="10"/>
<path d="M23.0664 13V25" stroke="#374957" stroke-miterlimit="10"/>
</svg>