<svg xmlns="http://www.w3.org/2000/svg" width="35" height="30" viewBox="0 0 35 30" fill="none">
<rect width="35" height="30" fill="white"/>
<path d="M13.25 13.975C12.9393 13.975 12.6875 14.2268 12.6875 14.5375C12.6875 14.8482 12.9393 15.1 13.25 15.1C13.5607 15.1 13.8125 14.8482 13.8125 14.5375C13.8125 14.2268 13.5607 13.975 13.25 13.975Z" fill="#374957" stroke="#374957"/>
<path d="M17.5 13.975C17.1893 13.975 16.9375 14.2268 16.9375 14.5375C16.9375 14.8482 17.1893 15.1 17.5 15.1C17.8107 15.1 18.0625 14.8482 18.0625 14.5375C18.0625 14.2268 17.8107 13.975 17.5 13.975Z" fill="#374957" stroke="#374957"/>
<path d="M13.25 18.225C12.9393 18.225 12.6875 18.4768 12.6875 18.7875C12.6875 19.0982 12.9393 19.35 13.25 19.35C13.5607 19.35 13.8125 19.0982 13.8125 18.7875C13.8125 18.4768 13.5607 18.225 13.25 18.225Z" fill="#374957" stroke="#374957"/>
<path d="M17.5 18.225C17.1893 18.225 16.9375 18.4768 16.9375 18.7875C16.9375 19.0982 17.1893 19.35 17.5 19.35C17.8107 19.35 18.0625 19.0982 18.0625 18.7875C18.0625 18.4768 17.8107 18.225 17.5 18.225Z" fill="#374957" stroke="#374957"/>
<path d="M21.75 13.975C21.4393 13.975 21.1875 14.2268 21.1875 14.5375C21.1875 14.8482 21.4393 15.1 21.75 15.1C22.0607 15.1 22.3125 14.8482 22.3125 14.5375C22.3125 14.2268 22.0607 13.975 21.75 13.975Z" fill="#374957" stroke="#374957"/>
<path d="M13.25 22.475C12.9393 22.475 12.6875 22.7268 12.6875 23.0375C12.6875 23.3482 12.9393 23.6 13.25 23.6C13.5607 23.6 13.8125 23.3482 13.8125 23.0375C13.8125 22.7268 13.5607 22.475 13.25 22.475Z" fill="#374957" stroke="#374957"/>
<path d="M17.5 22.475C17.1893 22.475 16.9375 22.7268 16.9375 23.0375C16.9375 23.3482 17.1893 23.6 17.5 23.6C17.8107 23.6 18.0625 23.3482 18.0625 23.0375C18.0625 22.7268 17.8107 22.475 17.5 22.475Z" fill="#374957" stroke="#374957"/>
<path d="M21.75 27.075H13.25C10.9028 27.075 9 25.1722 9 22.825V6.25001C9 3.90279 10.9028 2.00001 13.25 2.00001H21.75C24.0972 2.00001 26 3.90279 26 6.25001V22.825C26 25.1722 24.0972 27.075 21.75 27.075Z" stroke="#374957" stroke-miterlimit="10" stroke-linecap="round" stroke-linejoin="round"/>
<path d="M19.625 10.2875H15.375C14.2014 10.2875 13.25 9.33609 13.25 8.16251C13.25 6.98892 14.2014 6.03751 15.375 6.03751H19.625C20.7986 6.03751 21.75 6.98892 21.75 8.16251C21.75 9.33609 20.7986 10.2875 19.625 10.2875Z" stroke="#374957" stroke-miterlimit="10" stroke-linecap="round" stroke-linejoin="round"/>
<path d="M21.75 18.7875V23.0375" stroke="#374957" stroke-miterlimit="10" stroke-linecap="round" stroke-linejoin="round"/>
</svg>