<svg xmlns="http://www.w3.org/2000/svg" width="35" height="30" viewBox="0 0 35 30" fill="none">
<rect width="35" height="30" fill="white"/>
<path fill-rule="evenodd" clip-rule="evenodd" d="M7.65009 4C7.4491 4 7.28611 4.16298 7.28611 4.36398V17.7452H27.4823V4.36398C27.4823 4.16298 27.3194 4 27.1184 4H7.65009ZM6.28611 4.36398V18.1349L3.11538 24.9744C3.11095 24.984 3.10682 24.9937 3.103 25.0035C2.72214 25.983 3.44464 27.0394 4.49565 27.0394L13.2371 27.0394H21.5313L30.2702 27.0394C31.3212 27.0394 32.0439 25.9831 31.6629 25.0035C31.6591 24.9937 31.655 24.9841 31.6506 24.9746L28.4823 18.135V4.36398C28.4823 3.61068 27.8716 3 27.1184 3H7.65009C6.89682 3 6.28611 3.61068 6.28611 4.36398ZM21.8989 26.0394H30.2702C30.6135 26.0394 30.8509 25.6987 30.7355 25.3782L27.6629 18.7452H7.10543L4.0304 25.3783C3.9151 25.6988 4.15247 26.0394 4.49565 26.0394H12.8695L13.9119 22.7039C13.9771 22.4952 14.1704 22.3531 14.3891 22.3531H20.3793C20.598 22.3531 20.7913 22.4952 20.8565 22.7039L21.8989 26.0394ZM13.9172 26.0394H20.8512L20.0117 23.3531H14.7567L13.9172 26.0394Z" fill="#374957"/>
</svg>