<svg xmlns="http://www.w3.org/2000/svg" width="35" height="30" viewBox="0 0 35 30" fill="none">
<rect width="35" height="30" fill="white"/>
<path fill-rule="evenodd" clip-rule="evenodd" d="M7.62273 6H9.1391V5H7.62273V6ZM5 6.5164H5.5H29.8632H30.3632V7.0164V21.5736V22.0736H29.8632H28.8467V24.6064V25.1064H28.3467H26.0722H25.7388L25.6106 24.7987L24.4752 22.0736H10.8879L9.75243 24.7987L9.62422 25.1064H9.29089H7.01632H6.51632V24.6064V22.0736H5.5H5V21.5736V7.0164V6.5164ZM24.0585 21.0736H24.8085H28.3467H28.8467L29.3632 21.0736V19.0409H6V21.0736L6.51632 21.0736H7.01632H10.5545H11.3045H24.0585ZM6 18.0409H29.3632V7.5164H6V18.0409ZM25.5585 22.0736L26.4055 24.1064H27.8467V22.0736H25.5585ZM7.51632 22.0736H9.80454L8.95756 24.1064H7.51632V22.0736ZM12.5256 6H11.0093V5H12.5256V6ZM13.8404 14.7445H15.3568V13.7445H13.8404V14.7445ZM15.3568 11.7117H13.8404V10.7117H15.3568V11.7117ZM8.40887 10.5492H11.0496L8.62368 15.804L9.53161 16.2232L12.171 10.5058L12.217 10.4061V10.2962V10.0492V9.54915H11.717H8.40887V10.5492ZM25.3139 10.5492C24.7524 10.5492 24.2972 11.0043 24.2972 11.5659V13.9914C24.2972 14.5529 24.7524 15.0081 25.3139 15.0081C25.8754 15.0081 26.3306 14.5529 26.3306 13.9914V11.5658C26.3306 11.0043 25.8754 10.5492 25.3139 10.5492ZM23.2972 11.5659C23.2972 10.4521 24.2001 9.54915 25.3139 9.54915C26.4277 9.54915 27.3306 10.452 27.3306 11.5658V13.9914C27.3306 15.1052 26.4277 16.0081 25.3139 16.0081C24.2001 16.0081 23.2972 15.1052 23.2972 13.9914V11.5659ZM18.232 11.5659C18.232 11.0043 18.6871 10.5492 19.2486 10.5492C19.8101 10.5492 20.2653 11.0043 20.2653 11.5658V13.9914C20.2653 14.5529 19.8101 15.0081 19.2486 15.0081C18.6871 15.0081 18.232 14.5529 18.232 13.9914V11.5659ZM19.2486 9.54915C18.1348 9.54915 17.232 10.4521 17.232 11.5659V13.9914C17.232 15.1052 18.1348 16.0081 19.2486 16.0081C20.3624 16.0081 21.2653 15.1052 21.2653 13.9914V11.5658C21.2653 10.452 20.3624 9.54915 19.2486 9.54915Z" fill="#374957"/>
</svg>