<svg xmlns="http://www.w3.org/2000/svg" width="35" height="30" viewBox="0 0 35 30" fill="none">
<rect width="35" height="30" fill="white"/>
<path d="M14.9927 28.4441L12.096 28.9548C10.4961 29.2369 8.97053 28.1687 8.68843 26.5688L7.54614 20.0909C7.2641 18.491 8.33233 16.9654 9.93217 16.6833L12.829 16.1726L14.9927 28.4441Z" stroke="#374957" stroke-miterlimit="10"/>
<path d="M4.0918 19.8476L7.39975 19.2643" stroke="#374957" stroke-miterlimit="10"/>
<path d="M19.2705 28.4441L22.1672 28.9548C23.7671 29.2369 25.2927 28.1687 25.5748 26.5688L26.7171 20.0909C26.9992 18.491 25.9309 16.9654 24.331 16.6833L21.4343 16.1726L19.2705 28.4441Z" stroke="#374957" stroke-miterlimit="10"/>
<path d="M7.69533 7.70234C5.31154 10.1655 3.88569 13.5558 4.00719 17.2641L4.09183 19.8476L5.16931 25.9584L8.83353 27.3954" stroke="#374957" stroke-miterlimit="10"/>
<path d="M26.5669 7.70234C28.9507 10.1655 30.3765 13.5558 30.255 17.2641L30.1704 19.8476L29.0929 25.9584L25.4287 27.3954" stroke="#374957" stroke-miterlimit="10"/>
<path d="M30.1712 19.8476L26.8633 19.2643" stroke="#374957" stroke-miterlimit="10"/>
<path d="M23.0238 3.21628C21.1608 2.40919 19.1783 1.99999 17.1315 1.99999C15.0846 1.99999 13.1021 2.40919 11.2392 3.21628C10.0304 3.73992 8.9087 4.41425 7.88763 5.22985C7.08855 5.8681 7.03903 7.06686 7.77391 7.7781C8.39105 8.37535 9.35403 8.41664 10.0253 7.88101C12.0369 6.27585 14.5114 5.40602 17.1315 5.40602C19.7516 5.40602 22.226 6.27585 24.2376 7.88101C24.9089 8.41664 25.8719 8.37535 26.489 7.7781C27.2239 7.06686 27.1744 5.8681 26.3753 5.22985C25.3542 4.41425 24.2325 3.73992 23.0238 3.21628Z" stroke="#374957" stroke-miterlimit="10"/>
</svg>