<svg xmlns="http://www.w3.org/2000/svg" width="35" height="31" viewBox="0 0 35 31" fill="none">
<rect y="1" width="35" height="30" fill="white"/>
<path fill-rule="evenodd" clip-rule="evenodd" d="M10.307 1C9.58519 1 9 1.58519 9 2.30699V23.6113H17.5347H26.0699V2.30699C26.0699 1.58519 25.4847 1 24.7629 1H20.4444V1.70466C20.4444 3.3114 19.1419 4.61397 17.5351 4.61397C15.9284 4.61397 14.6258 3.31141 14.6258 1.70466V1H10.307ZM17.0347 24.6113V25.9183C17.0347 26.1945 17.2586 26.4183 17.5347 26.4183C17.8109 26.4183 18.0347 26.1945 18.0347 25.9183V24.6113H26.0699V27.7253C26.0699 28.4471 25.4847 29.0323 24.7629 29.0323H10.307C9.58519 29.0323 9 28.4471 9 27.7253V24.6113H17.0347ZM19.4444 1.70466V1H15.6258V1.70466C15.6258 2.75913 16.4807 3.61397 17.5351 3.61397C18.5896 3.61397 19.4444 2.75914 19.4444 1.70466ZM24.7629 0H19.9444H15.1258H10.307C9.03291 0 8 1.03291 8 2.30699V24.1113V27.7253C8 28.9994 9.03292 30.0323 10.307 30.0323H24.7629C26.037 30.0323 27.0699 28.9994 27.0699 27.7253V24.1113V2.30699C27.0699 1.03292 26.037 0 24.7629 0ZM17.0712 9.26905C15.8227 8.02058 13.7987 8.02059 12.5502 9.26907C11.3018 10.5174 11.3018 12.5415 12.5502 13.7899L12.5502 13.7899L17.1813 18.421C17.3765 18.6162 17.6931 18.6162 17.8884 18.421L22.5195 13.7899L22.5195 13.7899C23.7679 12.5415 23.7679 10.5174 22.5195 9.26906C21.2711 8.02059 19.247 8.02058 17.9986 9.26904L17.9985 9.26906L17.5348 9.7327L17.0712 9.26907L17.0712 9.26905ZM13.2573 9.97616C14.1153 9.11822 15.5061 9.11822 16.3641 9.97616L16.3641 9.97618L17.1813 10.7933C17.3766 10.9886 17.6931 10.9886 17.8884 10.7933L18.7056 9.97619L18.7057 9.97616C19.5636 9.11822 20.9545 9.11822 21.8124 9.97616L22.166 9.62261L21.8124 9.97617C22.6702 10.834 22.6703 12.2249 21.8124 13.0828L21.8124 13.0829L17.5348 17.3603L13.2573 13.0828L13.2573 13.0828C12.3994 12.2249 12.3995 10.834 13.2573 9.97618L13.2573 9.97616Z" fill="#374957"/>
</svg>