<svg xmlns="http://www.w3.org/2000/svg" width="35" height="30" viewBox="0 0 35 30" fill="none">
<rect width="35" height="30" fill="white"/>
<path fill-rule="evenodd" clip-rule="evenodd" d="M4 15.0484C4 7.87302 9.87302 2 17.0484 2C24.2238 2 30.0968 7.87302 30.0968 15.0484C30.0968 22.2238 24.2238 28.0968 17.0484 28.0968C9.87302 28.0968 4 22.2238 4 15.0484ZM17.0484 1C9.32074 1 3 7.32074 3 15.0484C3 22.7761 9.32074 29.0968 17.0484 29.0968C24.7761 29.0968 31.0968 22.7761 31.0968 15.0484C31.0968 7.32074 24.7761 1 17.0484 1ZM10.4894 21.6074C10.1601 21.2781 9.62621 21.2781 9.29689 21.6074C8.96757 21.9367 8.96757 22.4706 9.29689 22.8C9.62621 23.1293 10.1601 23.1293 10.4894 22.8C10.8187 22.4706 10.8187 21.9367 10.4894 21.6074ZM23.6073 7.2968C23.9367 6.96749 24.4706 6.96749 24.7999 7.2968C25.1293 7.62613 25.1293 8.16003 24.7999 8.48934C24.4706 8.81867 23.9367 8.81867 23.6073 8.48934C23.278 8.16003 23.278 7.62613 23.6073 7.2968ZM10.4894 8.48934C10.8187 8.16003 10.8187 7.62613 10.4894 7.2968C10.1602 6.96749 9.62621 6.96749 9.29689 7.2968C8.96757 7.62613 8.96757 8.16003 9.29689 8.48934C9.62621 8.81867 10.1602 8.81867 10.4894 8.48934ZM24.7999 21.6074C25.1293 21.9367 25.1293 22.4706 24.7999 22.8C24.4706 23.1293 23.9367 23.1293 23.6073 22.8C23.278 22.4706 23.278 21.9367 23.6073 21.6074C23.9367 21.2781 24.4706 21.2781 24.7999 21.6074ZM17.5484 4.92924C17.5484 4.6531 17.3245 4.42924 17.0484 4.42924C16.7722 4.42924 16.5484 4.6531 16.5484 4.92924V6.61576C16.5484 6.8919 16.7722 7.11576 17.0484 7.11576C17.3245 7.11576 17.5484 6.8919 17.5484 6.61576V4.92924ZM17.0484 22.981C17.3245 22.981 17.5484 23.2049 17.5484 23.481V25.1675C17.5484 25.4436 17.3245 25.6675 17.0484 25.6675C16.7722 25.6675 16.5484 25.4436 16.5484 25.1675V23.481C16.5484 23.2049 16.7722 22.981 17.0484 22.981ZM6.92944 14.5484C6.6533 14.5484 6.42944 14.7722 6.42944 15.0484C6.42944 15.3245 6.6533 15.5484 6.92944 15.5484H8.61596C8.8921 15.5484 9.11596 15.3245 9.11596 15.0484C9.11596 14.7722 8.8921 14.5484 8.61596 14.5484H6.92944ZM24.9808 15.0484C24.9808 14.7722 25.2047 14.5484 25.4808 14.5484H27.1674C27.4435 14.5484 27.6674 14.7722 27.6674 15.0484C27.6674 15.3245 27.4435 15.5484 27.1674 15.5484H25.4808C25.2047 15.5484 24.9808 15.3245 24.9808 15.0484ZM17.5484 9.98888C17.5484 9.71274 17.3245 9.48888 17.0484 9.48888C16.7722 9.48888 16.5484 9.71274 16.5484 9.98888V15.0484C16.5484 15.181 16.6011 15.3082 16.6948 15.4019L21.7544 20.4615C21.9497 20.6568 22.2663 20.6568 22.4615 20.4615C22.6568 20.2663 22.6568 19.9497 22.4615 19.7544L17.5484 14.8413V9.98888Z" fill="#374957"/>
</svg>