<svg width="25" height="25" viewBox="0 0 25 25" fill="none" xmlns="http://www.w3.org/2000/svg">
<g id="g3441">
<g id="g3443">
<g id="Clip path group">
<mask id="mask0_381_2030" style="mask-type:luminance" maskUnits="userSpaceOnUse" x="0" y="0" width="25" height="25">
<g id="clipPath3449">
<path id="path3447" d="M0 0H25V25H0V0Z" fill="white"/>
</g>
</mask>
<g mask="url(#mask0_381_2030)">
<g id="g3445">
<g id="g3451">
<path id="path3453" d="M10.3073 16.2737H4.33862C2.42749 16.2737 0.878906 14.7235 0.878906 12.8135C0.878906 11.4432 1.67466 10.2599 2.82881 9.69927C2.65029 9.22734 2.55205 8.7166 2.55205 8.18237C2.55205 5.81973 4.46729 3.9042 6.82954 3.9042C7.13262 3.9042 7.42881 3.93462 7.71245 3.99551C8.35464 1.9623 10.2547 0.488281 12.4993 0.488281C14.7439 0.488281 16.644 1.9623 17.2861 3.99551C17.5712 3.93462 17.866 3.9042 18.169 3.9042C20.5313 3.9042 22.448 5.81973 22.448 8.18237C22.448 8.7166 22.3498 9.22734 22.1712 9.69927C23.3253 10.2599 24.1211 11.4432 24.1211 12.8135C24.1211 14.7235 22.5711 16.2737 20.6614 16.2737H14.6914" stroke="#374957" stroke-width="1.2" stroke-miterlimit="10" stroke-linecap="round" stroke-linejoin="round"/>
</g>
<g id="g3455">
<path id="path3457" d="M16.0197 16.2737C16.172 16.682 16.2564 17.1235 16.2564 17.5844C16.2564 19.6591 14.575 21.3394 12.5005 21.3394C10.4275 21.3394 8.74609 19.6591 8.74609 17.5844C8.74609 17.1235 8.8291 16.682 8.98135 16.2737" stroke="#374957" stroke-width="1.2" stroke-miterlimit="10" stroke-linecap="round" stroke-linejoin="round"/>
</g>
<g id="g3459">
<path id="path3461" d="M5.57422 16.2737V18.3498C5.57422 18.6501 5.81914 18.8952 6.11943 18.8952H6.69097C6.84185 19.5691 7.10752 20.1989 7.46597 20.765L7.06187 21.1692C6.84878 21.381 6.84878 21.7283 7.06187 21.9415L8.14268 23.0238C8.35581 23.2356 8.70313 23.2356 8.91489 23.0238L9.32036 22.6197C9.88496 22.9768 10.5146 23.2425 11.1886 23.3934V23.965C11.1886 24.2653 11.4335 24.5117 11.7352 24.5117H13.2644C13.5647 24.5117 13.811 24.2653 13.811 23.965V23.3934C14.4836 23.2425 15.1132 22.9768 15.6792 22.6197L16.0834 23.0238C16.2951 23.2356 16.6438 23.2356 16.8556 23.0238L17.9377 21.9415C18.1495 21.7283 18.1495 21.381 17.9377 21.1692L17.5336 20.765C17.8907 20.1989 18.1564 19.5691 18.3086 18.8952H18.8788C19.1791 18.8952 19.4254 18.6501 19.4254 18.3498V16.2737" stroke="#374957" stroke-width="1.2" stroke-miterlimit="10" stroke-linecap="round" stroke-linejoin="round"/>
</g>
<g id="g3463">
<path id="path3465" d="M17.6562 7.41576V12.2324" stroke="#374957" stroke-width="1.2" stroke-miterlimit="10" stroke-linecap="round" stroke-linejoin="round"/>
</g>
<g id="g3467">
<path id="path3469" d="M12.4023 7.41581V12.321" stroke="#374957" stroke-width="1.2" stroke-miterlimit="10" stroke-linecap="round" stroke-linejoin="round"/>
</g>
<g id="g3471">
<path id="path3473" d="M15.1798 8.79983C15.1798 9.56526 14.5321 10.1839 13.7683 10.1839C13.3891 10.1839 12.412 10.1908 12.412 10.1908C12.412 10.1908 12.4065 9.18596 12.4065 8.79983C12.4065 8.48289 12.4023 7.41575 12.4023 7.41575H13.7683C14.5321 7.41575 15.1798 8.03586 15.1798 8.79983Z" stroke="#374957" stroke-width="1.2" stroke-miterlimit="10" stroke-linecap="round" stroke-linejoin="round"/>
</g>
<g id="g3475">
<path id="path3477" d="M6.05469 12.321L7.89663 7.485C7.93398 7.39227 8.06406 7.39227 8.10146 7.485L9.92681 12.321" stroke="#374957" stroke-width="1.2" stroke-miterlimit="10" stroke-linecap="round" stroke-linejoin="round"/>
</g>
<g id="g3479">
<path id="path3481" d="M6.62891 11.1168H9.36211" stroke="#374957" stroke-width="1.2" stroke-miterlimit="10" stroke-linecap="round" stroke-linejoin="round"/>
</g>
<g id="g3483">
<path id="path3485" d="M12.5034 16.2737H12.5" stroke="#374957" stroke-width="1.2" stroke-miterlimit="10" stroke-linecap="round" stroke-linejoin="round"/>
</g>
</g>
</g>
</g>
</g>
</g>
</svg>
