<svg width="21" height="21" viewBox="0 0 21 21" fill="none" xmlns="http://www.w3.org/2000/svg">
<g id="Group 167">
<path id="path1053" d="M1 9.00841V14.9174L5.34939 18.9823V20H10.5V15.8902C10.5 14.9886 9.99407 14.1636 9.19145 13.7564L7.38204 12.8385C6.50655 12.4493 5.52108 13.0917 5.52108 14.0516C5.52108 14.5244 5.77207 14.9615 6.1799 15.1991L3.45132 13.7702V11.2922C3.45132 10.0309 2.43115 9.00841 1.17276 9.00841H1Z" stroke="#374957" stroke-miterlimit="10"/>
<path id="path1057" d="M6.17969 15.1991L8.30814 16.4075" stroke="#374957" stroke-miterlimit="10"/>
<path id="path1061" d="M20 9.00841V14.9174L15.6506 18.9823V20H10.5V15.8902C10.5 14.9886 11.0059 14.1636 11.8086 13.7564L13.618 12.8385C14.4935 12.4493 15.4789 13.0917 15.4789 14.0516C15.4789 14.5244 15.228 14.9615 14.8201 15.1991L17.5487 13.7702V11.2922C17.5487 10.0309 18.5689 9.00841 19.8273 9.00841H20Z" stroke="#374957" stroke-miterlimit="10"/>
<path id="path1065" d="M14.8199 15.1991L12.6914 16.4075" stroke="#374957" stroke-miterlimit="10"/>
<path id="path1069" d="M14.0934 4.60182C14.0934 6.59103 12.4845 8.20361 10.4998 8.20361C8.51512 8.20361 6.90625 6.59103 6.90625 4.60182C6.90625 2.61262 8.51512 1.00004 10.4998 1.00004C12.4845 1.00004 14.0934 2.61262 14.0934 4.60182Z" stroke="#374957" stroke-miterlimit="10"/>
<path id="path1073" d="M14.4457 9.66956L13.0034 9.65258L12.293 10.9108L10.7344 8.19567C11.6198 8.1387 12.4175 7.76006 13.0136 7.17511L14.4457 9.66956Z" stroke="#374957" stroke-miterlimit="10"/>
<path id="path1077" d="M10.2661 8.19567L8.70744 10.9108L7.99703 9.65258L6.55469 9.66956L7.98686 7.17511C8.58289 7.76006 9.38063 8.13874 10.2661 8.19567Z" stroke="#374957" stroke-miterlimit="10"/>
<path id="path1081" d="M10.5 3.56977V5.63379" stroke="#374957" stroke-miterlimit="10"/>
</g>
</svg>
