<svg width="20" height="20" viewBox="0 0 20 20" fill="none" xmlns="http://www.w3.org/2000/svg">
<g id="Group 37812">
<path id="Vector" fill-rule="evenodd" clip-rule="evenodd" d="M4.3227 2.66667L4.17752 1.70333C4.03033 0.723995 3.18666 0 2.19313 0C1.46788 0 0.669045 0 0.669045 0C0.299732 0 0 0.298667 0 0.666667C0 1.03467 0.299732 1.33333 0.669045 1.33333H2.19313C2.52431 1.33333 2.8053 1.57466 2.85481 1.90133L4.52007 12.9633C4.66726 13.9427 5.51092 14.6667 6.50446 14.6667H16.2846C17.2507 14.6667 18.0796 13.9813 18.2576 13.0353C18.6142 11.1407 19.3501 7.22867 19.7629 5.03534C19.8726 4.45067 19.7161 3.84734 19.3347 3.38934C18.9534 2.93134 18.3874 2.66667 17.7899 2.66667H4.3227ZM4.52341 4L5.84277 12.7653C5.89228 13.092 6.17328 13.3333 6.50446 13.3333H16.2846C16.6064 13.3333 16.8827 13.1047 16.9422 12.7893L18.4476 4.78933C18.4844 4.59466 18.4322 4.39333 18.3051 4.24066C18.178 4.08799 17.9893 4 17.7899 4H4.52341Z" fill="#374957"/>
<path id="Vector_2" fill-rule="evenodd" clip-rule="evenodd" d="M7.3587 16C6.25076 16 5.35156 16.896 5.35156 18C5.35156 19.104 6.25076 20 7.3587 20C8.46664 20 9.36583 19.104 9.36583 18C9.36583 16.896 8.46664 16 7.3587 16ZM7.3587 17.3333C7.72801 17.3333 8.02774 17.632 8.02774 18C8.02774 18.368 7.72801 18.6667 7.3587 18.6667C6.98938 18.6667 6.68965 18.368 6.68965 18C6.68965 17.632 6.98938 17.3333 7.3587 17.3333Z" fill="#374957"/>
<path id="Vector_3" fill-rule="evenodd" clip-rule="evenodd" d="M15.386 16C14.2781 16 13.3789 16.896 13.3789 18C13.3789 19.104 14.2781 20 15.386 20C16.494 20 17.3932 19.104 17.3932 18C17.3932 16.896 16.494 16 15.386 16ZM15.386 17.3333C15.7554 17.3333 16.0551 17.632 16.0551 18C16.0551 18.368 15.7554 18.6667 15.386 18.6667C15.0167 18.6667 14.717 18.368 14.717 18C14.717 17.632 15.0167 17.3333 15.386 17.3333Z" fill="#374957"/>
</g>
</svg>
