<svg width="21" height="21" viewBox="0 0 21 21" fill="none" xmlns="http://www.w3.org/2000/svg">
<g id="Group 166">
<g id="g2005">
<path id="path2007" d="M10.8495 13.7304C11.3435 14.2247 11.3435 15.0274 10.8495 15.5217C10.3556 16.016 9.5544 16.016 9.06036 15.5217C8.56321 15.0274 8.56321 14.2247 9.06036 13.7304C9.5544 13.2361 10.3556 13.2361 10.8495 13.7304Z" stroke="#374957" stroke-miterlimit="10" stroke-linecap="round" stroke-linejoin="round"/>
</g>
<g id="g2009">
<path id="path2011" d="M10.8495 6.56518C11.3435 7.05949 11.3435 7.8619 10.8495 8.35626C10.3556 8.85057 9.5544 8.85057 9.06036 8.35626C8.56321 7.8619 8.56321 7.05949 9.06036 6.56518C9.5544 6.07087 10.3556 6.07087 10.8495 6.56518Z" stroke="#374957" stroke-miterlimit="10" stroke-linecap="round" stroke-linejoin="round"/>
</g>
<g id="g2013">
<path id="path2015" d="M16.3542 4.64651C16.8482 5.14082 16.8482 5.94355 16.3542 6.43786C15.8571 6.93217 15.0559 6.93217 14.5619 6.43786C14.0679 5.94355 14.0679 5.14082 14.5619 4.64651C15.0559 4.1522 15.8571 4.1522 16.3542 4.64651Z" stroke="#374957" stroke-miterlimit="10" stroke-linecap="round" stroke-linejoin="round"/>
</g>
<g id="g2017">
<path id="path2019" d="M5.92578 11.4912L13.9849 10.5957" stroke="#374957" stroke-miterlimit="10" stroke-linecap="round" stroke-linejoin="round"/>
</g>
<path id="path2023" d="M18.1442 11.8117C20.6174 9.33854 20.6174 5.32826 18.1442 2.85512C15.6711 0.381628 11.6621 0.381628 9.18895 2.85512C5.54417 6.49959 1 11.0434 1 11.0434L9.9553 20C9.9553 20 14.4994 15.4565 18.1442 11.8117Z" stroke="#374957" stroke-miterlimit="10" stroke-linecap="round" stroke-linejoin="round"/>
<g id="g2025">
<path id="path2027" d="M16.3555 4.64648L20.0003 1.00008" stroke="#374957" stroke-miterlimit="10" stroke-linecap="round" stroke-linejoin="round"/>
</g>
</g>
</svg>
