<svg width="21" height="17" viewBox="0 0 21 17" fill="none" xmlns="http://www.w3.org/2000/svg">
<g id="Vector">
<path d="M0.65625 10.8849C0.830298 10.8849 0.997218 10.9494 1.12029 11.0641C1.24336 11.1787 1.3125 11.3343 1.3125 11.4965V14.554C1.3125 14.8783 1.45078 15.1894 1.69692 15.4188C1.94306 15.6481 2.2769 15.777 2.625 15.777H18.375C18.7231 15.777 19.0569 15.6481 19.3031 15.4188C19.5492 15.1894 19.6875 14.8783 19.6875 14.554V11.4965C19.6875 11.3343 19.7566 11.1787 19.8797 11.0641C20.0028 10.9494 20.1697 10.8849 20.3438 10.8849C20.5178 10.8849 20.6847 10.9494 20.8078 11.0641C20.9309 11.1787 21 11.3343 21 11.4965V14.554C21 15.2027 20.7234 15.8249 20.2312 16.2836C19.7389 16.7423 19.0712 17 18.375 17H2.625C1.92881 17 1.26113 16.7423 0.768845 16.2836C0.276562 15.8249 0 15.2027 0 14.554V11.4965C0 11.3343 0.0691404 11.1787 0.192211 11.0641C0.315282 10.9494 0.482202 10.8849 0.65625 10.8849Z" fill="#374957"/>
<path d="M10.0354 13.2746C10.0963 13.3315 10.1688 13.3767 10.2485 13.4075C10.3282 13.4383 10.4137 13.4542 10.5 13.4542C10.5863 13.4542 10.6718 13.4383 10.7515 13.4075C10.8313 13.3767 10.9037 13.3315 10.9646 13.2746L14.9021 9.60552C15.0254 9.4907 15.0946 9.33496 15.0946 9.17258C15.0946 9.01019 15.0254 8.85445 14.9021 8.73963C14.7789 8.62481 14.6118 8.5603 14.4375 8.5603C14.2632 8.5603 14.0961 8.62481 13.9729 8.73963L11.1563 11.3654V0.611505C11.1563 0.449324 11.0871 0.293785 10.964 0.179106C10.841 0.0644262 10.6741 0 10.5 0C10.326 0 10.159 0.0644262 10.036 0.179106C9.9129 0.293785 9.84376 0.449324 9.84376 0.611505V11.3654L7.02713 8.73963C6.90391 8.62481 6.73678 8.5603 6.56251 8.5603C6.38824 8.5603 6.22111 8.62481 6.09788 8.73963C5.97466 8.85445 5.90543 9.01019 5.90543 9.17258C5.90543 9.33496 5.97466 9.4907 6.09788 9.60552L10.0354 13.2746Z" fill="#374957"/>
</g>
</svg>
