<svg width="23" height="17" viewBox="0 0 23 17" fill="none" xmlns="http://www.w3.org/2000/svg">
<g id="Vector">
<path d="M1.41667 1.41667C1.41667 1.04094 1.56592 0.680609 1.8316 0.414932C2.09728 0.149255 2.45761 0 2.83333 0H19.8333C20.2091 0 20.5694 0.149255 20.8351 0.414932C21.1007 0.680609 21.25 1.04094 21.25 1.41667H1.41667ZM11.3333 12.75C12.0848 12.75 12.8054 12.4515 13.3368 11.9201C13.8682 11.3888 14.1667 10.6681 14.1667 9.91667C14.1667 9.16522 13.8682 8.44455 13.3368 7.9132C12.8054 7.38184 12.0848 7.08333 11.3333 7.08333C10.5819 7.08333 9.86122 7.38184 9.32986 7.9132C8.79851 8.44455 8.5 9.16522 8.5 9.91667C8.5 10.6681 8.79851 11.3888 9.32986 11.9201C9.86122 12.4515 10.5819 12.75 11.3333 12.75Z" fill="#374957"/>
<path d="M0 4.25C0 3.87428 0.149256 3.51394 0.414932 3.24827C0.680609 2.98259 1.04094 2.83333 1.41667 2.83333H21.25C21.6257 2.83333 21.9861 2.98259 22.2517 3.24827C22.5174 3.51394 22.6667 3.87428 22.6667 4.25V15.5833C22.6667 15.9591 22.5174 16.3194 22.2517 16.5851C21.9861 16.8507 21.6257 17 21.25 17H1.41667C1.04094 17 0.680609 16.8507 0.414932 16.5851C0.149256 16.3194 0 15.9591 0 15.5833V4.25ZM4.25 4.25C4.25 5.00145 3.95149 5.72212 3.42014 6.25347C2.88878 6.78482 2.16811 7.08333 1.41667 7.08333V12.75C2.16811 12.75 2.88878 13.0485 3.42014 13.5799C3.95149 14.1112 4.25 14.8319 4.25 15.5833H18.4167C18.4167 14.8319 18.7152 14.1112 19.2465 13.5799C19.7779 13.0485 20.4986 12.75 21.25 12.75V7.08333C20.4986 7.08333 19.7779 6.78482 19.2465 6.25347C18.7152 5.72212 18.4167 5.00145 18.4167 4.25H4.25Z" fill="#374957"/>
</g>
</svg>
