<svg width="22" height="22" viewBox="0 0 22 22" fill="none" xmlns="http://www.w3.org/2000/svg">
<g id="Group 38016">
<path id="Vector" d="M20.6624 8.39722C20.8817 9.22798 20.9985 10.1004 20.9985 11C20.9985 16.6165 16.615 21 10.9985 21C7.62265 21 4.63095 19.5245 2.78125 16.9924" stroke="#374957" stroke-width="1.3" stroke-miterlimit="10" stroke-linecap="round" stroke-linejoin="round"/>
<path id="Vector_2" d="M1.33614 13.6028C1.11682 12.772 1 11.8997 1 11C1 5.38356 5.38356 1 11 1C14.3759 1 17.3676 2.47547 19.2173 5.00759" stroke="#374957" stroke-width="1.3" stroke-miterlimit="10" stroke-linecap="round" stroke-linejoin="round"/>
<path id="Vector_3" d="M14.3886 15.2373H7.60898L5.91406 10.1526H16.0836L14.3886 15.2373Z" stroke="#374957" stroke-width="1.3" stroke-miterlimit="10" stroke-linecap="round" stroke-linejoin="round"/>
<path id="Vector_4" d="M7.60938 10.1526L9.30429 6.76273" stroke="#374957" stroke-width="1.3" stroke-miterlimit="10" stroke-linecap="round" stroke-linejoin="round"/>
<path id="Vector_5" d="M14.3902 10.1526L12.6953 6.76273" stroke="#374957" stroke-width="1.3" stroke-miterlimit="10" stroke-linecap="round" stroke-linejoin="round"/>
<path id="Vector_6" d="M2.60938 19.3894V16.9924H5.00637" stroke="#374957" stroke-width="1.3" stroke-miterlimit="10" stroke-linecap="round" stroke-linejoin="round"/>
<path id="Vector_7" d="M19.3892 2.6106V5.00759H16.9922" stroke="#374957" stroke-width="1.3" stroke-miterlimit="10" stroke-linecap="round" stroke-linejoin="round"/>
</g>
</svg>
