<svg width="21" height="20" viewBox="0 0 21 20" fill="none" xmlns="http://www.w3.org/2000/svg">
<path id="Vector" d="M10.129 0C4.54379 0 0 4.48625 0 10C0 15.5138 4.54379 20 10.129 20C15.7138 20 20.2579 15.5141 20.2579 10C20.2579 4.48594 15.7138 0 10.129 0ZM10.129 1.25C15.0159 1.25 18.9918 5.175 18.9918 10C18.9918 11.7509 18.4664 13.3816 17.5658 14.7509C17.1053 12.5403 15.6483 10.6269 13.6019 9.58438C14.1999 8.83813 14.5604 7.89813 14.5604 6.875C14.5604 4.4625 12.5726 2.5 10.129 2.5C7.68535 2.5 5.69754 4.4625 5.69754 6.875C5.69754 7.89813 6.05807 8.83813 6.65599 9.58438C4.60931 10.6269 3.15264 12.5403 2.69209 14.7509C1.79156 13.3816 1.26612 11.7509 1.26612 10C1.26612 5.175 5.24174 1.25 10.129 1.25ZM6.96366 6.875C6.96366 5.15188 8.38361 3.75 10.129 3.75C11.8743 3.75 13.2943 5.15188 13.2943 6.875C13.2943 8.59813 11.8743 10 10.129 10C8.38361 10 6.96366 8.59813 6.96366 6.875ZM10.129 18.75C7.6537 18.75 5.4133 17.7416 3.80374 16.1206C3.85565 13.6659 5.37531 11.4587 7.65211 10.5013C8.35956 10.9738 9.21197 11.25 10.129 11.25C11.0456 11.25 11.8984 10.9738 12.6058 10.5013C14.8826 11.4587 16.4023 13.6659 16.4542 16.1206C14.8446 17.7416 12.6042 18.75 10.129 18.75Z" fill="#374957"/>
</svg>
