<svg width="21" height="21" viewBox="0 0 21 21" fill="none" xmlns="http://www.w3.org/2000/svg">
<g id="Group 169">
<path id="path27" d="M13.6133 13.6231H15.1288C17.8076 13.6231 19.9992 15.811 19.9992 18.484V20" stroke="#374957" stroke-miterlimit="22.926" stroke-linecap="round" stroke-linejoin="round"/>
<path id="path31" d="M1 19.9976V18.484C1 15.8105 3.19166 13.6232 5.87035 13.6232H7.97719" stroke="#374957" stroke-miterlimit="22.926" stroke-linecap="round" stroke-linejoin="round"/>
<path id="path35" d="M10.4991 1.00002C13.5344 1.00002 16.0178 3.49454 16.0178 6.54342V8.65908C16.0178 11.708 13.5344 14.2025 10.4991 14.2025C7.46387 14.2025 4.98047 11.708 4.98047 8.65908V6.54342C4.98047 3.49454 7.46387 1.00002 10.4991 1.00002Z" stroke="#374957" stroke-miterlimit="22.926" stroke-linecap="round" stroke-linejoin="round"/>
<path id="path39" d="M15.9322 6.228C15.4419 6.41579 14.9097 6.51868 14.3534 6.51868C12.6991 6.51868 11.2576 5.60869 10.5014 4.26209C9.7453 5.60869 8.30378 6.51868 6.64952 6.51868C6.0753 6.51868 5.52666 6.40905 5.02344 6.20959" stroke="#374957" stroke-miterlimit="22.926" stroke-linecap="round" stroke-linejoin="round"/>
<path id="path43" d="M13.4556 13.8839C13.4375 15.5036 12.1193 16.8071 10.4994 16.8071C8.86662 16.8071 7.54297 15.4835 7.54297 13.8507C7.54297 13.7473 7.54841 13.644 7.55921 13.5412" stroke="#374957" stroke-miterlimit="22.926" stroke-linecap="round" stroke-linejoin="round"/>
<path id="path47" d="M16.4531 17.7531V20" stroke="#374957" stroke-miterlimit="22.926" stroke-linecap="round" stroke-linejoin="round"/>
<path id="path51" d="M4.54688 17.7531V20" stroke="#374957" stroke-miterlimit="22.926" stroke-linecap="round" stroke-linejoin="round"/>
</g>
</svg>
