<svg width="18" height="18" viewBox="0 0 18 18" fill="none" xmlns="http://www.w3.org/2000/svg">
<path id="Vector" d="M9.5625 1.6875C9.5625 1.23995 9.74029 0.810725 10.0568 0.494257C10.3732 0.17779 10.8024 0 11.25 0H15.75C16.3467 0 16.919 0.237053 17.341 0.65901C17.7629 1.08097 18 1.65326 18 2.25V15.75C18 16.3467 17.7629 16.919 17.341 17.341C16.919 17.7629 16.3467 18 15.75 18H2.25C1.65326 18 1.08097 17.7629 0.65901 17.341C0.237053 16.919 0 16.3467 0 15.75V2.25C0 1.65326 0.237053 1.08097 0.65901 0.65901C1.08097 0.237053 1.65326 0 2.25 0H9C8.64675 0.47025 8.4375 1.05412 8.4375 1.6875V8.4375H6.1875C6.0761 8.4373 5.96715 8.47018 5.87447 8.53198C5.78178 8.59377 5.70953 8.6817 5.66687 8.7846C5.62421 8.88751 5.61307 9.00077 5.63486 9.11001C5.65664 9.21926 5.71038 9.31958 5.78925 9.39825L8.60175 12.2108C8.654 12.2631 8.71607 12.3047 8.78441 12.3331C8.85275 12.3614 8.92601 12.376 9 12.376C9.07399 12.376 9.14725 12.3614 9.21559 12.3331C9.28393 12.3047 9.346 12.2631 9.39825 12.2108L12.2108 9.39825C12.2896 9.31958 12.3434 9.21926 12.3651 9.11001C12.3869 9.00077 12.3758 8.88751 12.3331 8.7846C12.2905 8.6817 12.2182 8.59377 12.1255 8.53198C12.0328 8.47018 11.9239 8.4373 11.8125 8.4375H9.5625V1.6875Z" fill="white"/>
</svg>
