<svg width="20" height="20" viewBox="0 0 20 20" fill="none" xmlns="http://www.w3.org/2000/svg">
<g id="wallet 1" clip-path="url(#clip0_383_2253)">
<g id="Group">
<g id="Group_2">
<g id="Group_3">
<path id="Vector" d="M19.0906 10.0839V7.27292C19.0906 6.31975 18.3513 5.54458 17.4172 5.46941L14.8067 0.909826C14.5648 0.488128 14.1742 0.186727 13.7068 0.0615729C13.2415 -0.062729 12.7551 0.00255401 12.3387 0.244894L3.38986 5.45475H1.81817C0.815441 5.45475 0 6.27015 0 7.27292V18.1818C0 19.1846 0.815399 20 1.81817 20H17.2725C18.2752 20 19.0906 19.1846 19.0906 18.1818V15.3709C19.6186 15.1826 19.9997 14.6828 19.9997 14.091V11.3638C19.9997 10.772 19.6186 10.2721 19.0906 10.0839ZM16.3609 5.45475H12.3991L15.3704 3.72484L16.3609 5.45475ZM14.9188 2.93594L10.5923 5.45475H8.79778L14.4701 2.15225L14.9188 2.93594ZM12.7963 1.03055C13.0018 0.910252 13.242 0.878292 13.4715 0.93957C13.7036 1.0017 13.8972 1.15174 14.0175 1.36169L14.0184 1.36336L6.99112 5.45475H5.19665L12.7963 1.03055ZM18.1815 18.1818C18.1815 18.683 17.7736 19.0909 17.2725 19.0909H1.81817C1.31704 19.0909 0.909104 18.683 0.909104 18.1818V7.27292C0.909104 6.77179 1.31704 6.36386 1.81817 6.36386H17.2725C17.7736 6.36386 18.1815 6.77179 18.1815 7.27292V10.0001H15.4543C13.9504 10.0001 12.7271 11.2235 12.7271 12.7274C12.7271 14.2313 13.9504 15.4546 15.4543 15.4546H18.1815V18.1818ZM19.0906 14.091C19.0906 14.3418 18.8869 14.5455 18.6361 14.5455H15.4543C14.4516 14.5455 13.6361 13.7301 13.6361 12.7274C13.6361 11.7246 14.4515 10.9092 15.4543 10.9092H18.6361C18.8869 10.9092 19.0906 11.1129 19.0906 11.3638V14.091Z" fill="#374957"/>
<path id="Vector_2" d="M15.4559 11.8183C14.9548 11.8183 14.5469 12.2262 14.5469 12.7274C14.5469 13.2285 14.9548 13.6364 15.4559 13.6364C15.9571 13.6364 16.365 13.2285 16.365 12.7274C16.365 12.2262 15.9571 11.8183 15.4559 11.8183Z" fill="#374957"/>
</g>
</g>
</g>
</g>
<defs>
<clipPath id="clip0_383_2253">
<rect width="20" height="20" fill="white"/>
</clipPath>
</defs>
</svg>
