<svg width="26" height="26" viewBox="0 0 26 26" fill="none" xmlns="http://www.w3.org/2000/svg">
<path id="Vector" d="M23.229 0H2.77063C1.24051 0 0 1.24032 0 2.771V23.2291C0 24.7598 1.24051 26 2.77063 26H23.229C24.7595 26 26 24.7598 26 23.2291V2.771C26 1.24032 24.7595 0 23.229 0ZM10.2141 18.5626C10.2141 19.0803 9.79444 19.5001 9.27671 19.5001H8.36612C7.84844 19.5001 7.42868 19.0804 7.42868 18.5626V11.1519C7.42868 10.6341 7.84839 10.2143 8.36612 10.2143H9.27671C9.79439 10.2143 10.2141 10.634 10.2141 11.1519V18.5626ZM8.94085 9.11439C8.10842 9.11439 7.43381 8.43962 7.43381 7.6075C7.43381 6.77495 8.10842 6.10023 8.94085 6.10023C9.77372 6.10023 10.448 6.77495 10.448 7.6075C10.448 8.43962 9.77372 9.11439 8.94085 9.11439ZM20.4282 18.87C20.4282 19.218 20.1461 19.5001 19.7981 19.5001H18.2728C17.9249 19.5001 17.6428 19.218 17.6428 18.87V14.2898C17.6428 13.0998 17.1539 12.2888 16.1166 12.2888C15.3989 12.2888 15.0686 12.709 14.8568 13.1788V18.87C14.8568 19.218 14.5748 19.5001 14.2268 19.5001H13.0088C12.4912 19.5001 12.0714 19.0804 12.0714 18.5626V10.8445C12.0714 10.4964 12.3535 10.2143 12.7014 10.2143H14.2268C14.5747 10.2143 14.8568 10.4964 14.8568 10.8445V11.0125C15.3827 10.5788 16.1071 10.276 17.0152 10.276C18.9011 10.276 20.4281 11.2331 20.4281 13.9488V18.87H20.4282Z" fill="#374957"/>
</svg>
