<svg width="26" height="26" viewBox="0 0 26 26" fill="none" xmlns="http://www.w3.org/2000/svg">
<g id="Group 37803">
<path id="Union" fill-rule="evenodd" clip-rule="evenodd" d="M6.5 0H19.4794C23.0698 0 26 2.93015 26 6.52063V19.4794C26 23.0699 23.0698 26 19.4794 26H6.5C2.93016 26 0 23.0699 0 19.5V6.52063C0 2.93015 2.93016 0 6.5 0ZM20.9238 16.3841C20.9238 16.3841 21.0476 15.0016 21.0476 13.6397V12.3603C21.0476 10.9984 20.9238 9.61588 20.9238 9.61588C20.9238 9.61588 20.8 8.4397 20.3048 7.9238C19.7423 7.32385 19.1117 7.25198 18.769 7.21292C18.7345 7.20898 18.7029 7.20538 18.6746 7.2016C16.4048 7.0365 13 7.01587 13 7.01587C13 7.01587 9.59524 7.0365 7.30476 7.2016C7.27787 7.20517 7.24817 7.20859 7.21595 7.21231C6.87737 7.25143 6.2605 7.32266 5.69524 7.94446C5.22063 8.46033 5.07619 9.61588 5.07619 9.61588C5.07619 9.61588 4.95238 10.9984 4.95238 12.3603V13.6397C4.95238 15.0016 5.07619 16.3841 5.07619 16.3841C5.07619 16.3841 5.2 17.5397 5.69524 18.0555C6.21601 18.6284 6.88281 18.7047 7.29025 18.7514C7.36714 18.7602 7.43479 18.7679 7.49048 18.7778C8.79048 18.9016 13.0206 18.9635 13.0206 18.9635C13.0206 18.9635 16.4254 18.9429 18.6952 18.7778C18.7277 18.7734 18.7643 18.7696 18.8045 18.7653C19.147 18.729 19.7507 18.665 20.3048 18.0555C20.7794 17.5397 20.9238 16.3841 20.9238 16.3841ZM11.3286 15.1873V10.4412L15.7032 12.8349L11.3286 15.1873Z" fill="#374957"/>
</g>
</svg>
