<svg width="13" height="8" viewBox="0 0 13 8" fill="none" xmlns="http://www.w3.org/2000/svg">
<path id="Vector" d="M5.39539 7.63536L0.26665 1.77303C-0.338618 1.08328 0.153296 3.93217e-07 1.07189 3.93217e-07L11.3294 3.93217e-07C11.535 -0.000175869 11.7362 0.0589098 11.9091 0.170182C12.082 0.281454 12.2191 0.440196 12.3041 0.627397C12.389 0.814598 12.4182 1.02232 12.3882 1.2257C12.3581 1.42907 12.2701 1.61947 12.1346 1.7741L7.00588 7.63429C6.9055 7.74916 6.78172 7.84121 6.64283 7.90429C6.50395 7.96737 6.35317 8 6.20063 8C6.04809 8 5.89732 7.96737 5.75844 7.90429C5.61955 7.84121 5.49576 7.74916 5.39539 7.63429V7.63536Z" fill="#C4BCBC"/>
</svg>
