<svg xmlns="http://www.w3.org/2000/svg" width="17" height="23" viewBox="0 0 17 23" fill="none">
<path d="M0.146445 4.14678C-0.048815 4.34205 -0.048815 4.65863 0.146445 4.85389L3.32845 8.03589C3.5237 8.23114 3.84025 8.23114 4.03555 8.03589C4.2308 7.84059 4.2308 7.52404 4.03555 7.32879L1.2071 4.50034L4.03555 1.67191C4.2308 1.47665 4.2308 1.16007 4.03555 0.964804C3.84025 0.769544 3.5237 0.769544 3.32845 0.964804L0.146445 4.14678ZM6.5 4.00034H0.5V5.00034H6.5V4.00034Z" fill="#F26521"/>
<path d="M9.5 6.5002C10.1072 6.0441 10.5 5.3179 10.5 4.5C10.5 3.11929 9.3807 2 8 2C6.6193 2 5.5 3.11929 5.5 4.5C5.5 5.3179 5.8928 6.0441 6.5 6.5002V4.5C6.5 3.67158 7.17155 3 8 3C8.82845 3 9.5 3.67158 9.5 4.5V6.5002Z" fill="#F26521"/>
<path fill-rule="evenodd" clip-rule="evenodd" d="M15.2497 9.5C14.96 9.5 14.6933 9.5986 14.4813 9.76405C14.3681 9.0477 13.7479 8.5 12.9997 8.5C12.6135 8.5 12.2613 8.646 11.9954 8.8858C11.9371 8.1107 11.2897 7.5 10.4997 7.5C10.1155 7.5 9.76512 7.64445 9.49972 7.88195V4.5C9.49972 3.67158 8.82817 3 7.99972 3C7.17127 3 6.49972 3.67158 6.49972 4.5V12.7751C6.38477 12.5165 6.26487 12.2617 6.14057 12.0185C5.91537 11.5781 5.66737 11.1591 5.39717 10.8178C5.13302 10.4842 4.81197 10.1786 4.42722 10.0325C4.04457 9.88725 3.69212 9.83295 3.37427 9.8805C3.04682 9.9295 2.78692 10.0826 2.60022 10.2941C2.24992 10.6908 2.19917 11.2347 2.25637 11.5814C2.28457 11.7521 2.38152 11.9235 2.44837 12.0368C2.52672 12.1697 2.63037 12.3279 2.74082 12.4966L2.74642 12.5051C3.40252 13.5069 4.49972 15.1993 4.49972 17.25C4.49972 18.8659 5.04327 20.276 6.25127 21.2353C7.44257 22.1814 9.20222 22.6262 11.5137 22.5C13.3015 22.4972 14.5637 21.9655 15.3752 21.0148C16.1625 20.0925 16.4548 18.8568 16.4948 17.5702C16.4981 17.5473 16.4997 17.5239 16.4997 17.5V10.75C16.4997 10.0596 15.9401 9.5 15.2497 9.5ZM11.4997 22C14.8878 22 15.9332 20.0072 15.9966 17.5H15.9997V10.75C15.9997 10.3358 15.6639 10 15.2497 10C14.8355 10 14.4997 10.3358 14.4997 10.75V12.25C14.4997 12.3881 14.3878 12.5 14.2497 12.5C14.1117 12.5 13.9997 12.3881 13.9997 12.25V10C13.9997 9.4477 13.552 9 12.9997 9C12.4474 9 11.9997 9.4477 11.9997 10V12.25C11.9997 12.3881 11.8878 12.5 11.7497 12.5C11.6117 12.5 11.4997 12.3881 11.4997 12.25V9C11.4997 8.4477 11.052 8 10.4997 8C9.94742 8 9.49972 8.4477 9.49972 9V12.25C9.49972 12.3881 9.38777 12.5 9.24972 12.5C9.11167 12.5 8.99972 12.3881 8.99972 12.25V4.5C8.99972 3.94771 8.55202 3.5 7.99972 3.5C7.44742 3.5 6.99972 3.94771 6.99972 4.5V15.3816C6.94412 15.2376 6.88557 15.0836 6.82427 14.9223C6.72337 14.6569 6.61502 14.3717 6.49972 14.0785C5.90412 12.5633 5.12477 10.8323 4.24972 10.5C2.93307 10 2.66717 11 2.74972 11.5C2.77127 11.6305 2.93477 11.8801 3.16467 12.2311C3.81587 13.2253 4.99972 15.0329 4.99972 17.25C4.99972 20.25 6.99972 22.25 11.4997 22Z" fill="#666666" stroke="#666666" stroke-width="0.5" stroke-linecap="round"/>
</svg>