<svg width="20" height="21" viewBox="0 0 20 21" fill="none" xmlns="http://www.w3.org/2000/svg">
<g id="calculator" clip-path="url(#clip0_508_890)">
<path id="Vector" d="M15 1.42316C15.3315 1.42316 15.6495 1.55485 15.8839 1.78927C16.1183 2.02369 16.25 2.34164 16.25 2.67316V17.6732C16.25 18.0047 16.1183 18.3226 15.8839 18.557C15.6495 18.7915 15.3315 18.9232 15 18.9232H5C4.66848 18.9232 4.35054 18.7915 4.11612 18.557C3.8817 18.3226 3.75 18.0047 3.75 17.6732V2.67316C3.75 2.34164 3.8817 2.02369 4.11612 1.78927C4.35054 1.55485 4.66848 1.42316 5 1.42316H15ZM5 0.173157C4.33696 0.173157 3.70107 0.436549 3.23223 0.90539C2.76339 1.37423 2.5 2.01012 2.5 2.67316V17.6732C2.5 18.3362 2.76339 18.9721 3.23223 19.4409C3.70107 19.9098 4.33696 20.1732 5 20.1732H15C15.663 20.1732 16.2989 19.9098 16.7678 19.4409C17.2366 18.9721 17.5 18.3362 17.5 17.6732V2.67316C17.5 2.01012 17.2366 1.37423 16.7678 0.90539C16.2989 0.436549 15.663 0.173157 15 0.173157L5 0.173157Z" fill="white"/>
<path id="Vector_2" d="M5 3.29816C5 3.1324 5.06585 2.97343 5.18306 2.85622C5.30027 2.739 5.45924 2.67316 5.625 2.67316H14.375C14.5408 2.67316 14.6997 2.739 14.8169 2.85622C14.9342 2.97343 15 3.1324 15 3.29816V5.79816C15 5.96392 14.9342 6.12289 14.8169 6.2401C14.6997 6.35731 14.5408 6.42316 14.375 6.42316H5.625C5.45924 6.42316 5.30027 6.35731 5.18306 6.2401C5.06585 6.12289 5 5.96392 5 5.79816V3.29816ZM5 8.29816C5 8.1324 5.06585 7.97343 5.18306 7.85622C5.30027 7.73901 5.45924 7.67316 5.625 7.67316H6.875C7.04076 7.67316 7.19973 7.73901 7.31694 7.85622C7.43415 7.97343 7.5 8.1324 7.5 8.29816V9.54816C7.5 9.71392 7.43415 9.87289 7.31694 9.9901C7.19973 10.1073 7.04076 10.1732 6.875 10.1732H5.625C5.45924 10.1732 5.30027 10.1073 5.18306 9.9901C5.06585 9.87289 5 9.71392 5 9.54816V8.29816ZM5 12.0482C5 11.8824 5.06585 11.7234 5.18306 11.6062C5.30027 11.489 5.45924 11.4232 5.625 11.4232H6.875C7.04076 11.4232 7.19973 11.489 7.31694 11.6062C7.43415 11.7234 7.5 11.8824 7.5 12.0482V13.2982C7.5 13.4639 7.43415 13.6229 7.31694 13.7401C7.19973 13.8573 7.04076 13.9232 6.875 13.9232H5.625C5.45924 13.9232 5.30027 13.8573 5.18306 13.7401C5.06585 13.6229 5 13.4639 5 13.2982V12.0482ZM5 15.7982C5 15.6324 5.06585 15.4734 5.18306 15.3562C5.30027 15.239 5.45924 15.1732 5.625 15.1732H6.875C7.04076 15.1732 7.19973 15.239 7.31694 15.3562C7.43415 15.4734 7.5 15.6324 7.5 15.7982V17.0482C7.5 17.2139 7.43415 17.3729 7.31694 17.4901C7.19973 17.6073 7.04076 17.6732 6.875 17.6732H5.625C5.45924 17.6732 5.30027 17.6073 5.18306 17.4901C5.06585 17.3729 5 17.2139 5 17.0482V15.7982ZM8.75 8.29816C8.75 8.1324 8.81585 7.97343 8.93306 7.85622C9.05027 7.73901 9.20924 7.67316 9.375 7.67316H10.625C10.7908 7.67316 10.9497 7.73901 11.0669 7.85622C11.1842 7.97343 11.25 8.1324 11.25 8.29816V9.54816C11.25 9.71392 11.1842 9.87289 11.0669 9.9901C10.9497 10.1073 10.7908 10.1732 10.625 10.1732H9.375C9.20924 10.1732 9.05027 10.1073 8.93306 9.9901C8.81585 9.87289 8.75 9.71392 8.75 9.54816V8.29816ZM8.75 12.0482C8.75 11.8824 8.81585 11.7234 8.93306 11.6062C9.05027 11.489 9.20924 11.4232 9.375 11.4232H10.625C10.7908 11.4232 10.9497 11.489 11.0669 11.6062C11.1842 11.7234 11.25 11.8824 11.25 12.0482V13.2982C11.25 13.4639 11.1842 13.6229 11.0669 13.7401C10.9497 13.8573 10.7908 13.9232 10.625 13.9232H9.375C9.20924 13.9232 9.05027 13.8573 8.93306 13.7401C8.81585 13.6229 8.75 13.4639 8.75 13.2982V12.0482ZM8.75 15.7982C8.75 15.6324 8.81585 15.4734 8.93306 15.3562C9.05027 15.239 9.20924 15.1732 9.375 15.1732H10.625C10.7908 15.1732 10.9497 15.239 11.0669 15.3562C11.1842 15.4734 11.25 15.6324 11.25 15.7982V17.0482C11.25 17.2139 11.1842 17.3729 11.0669 17.4901C10.9497 17.6073 10.7908 17.6732 10.625 17.6732H9.375C9.20924 17.6732 9.05027 17.6073 8.93306 17.4901C8.81585 17.3729 8.75 17.2139 8.75 17.0482V15.7982ZM12.5 8.29816C12.5 8.1324 12.5658 7.97343 12.6831 7.85622C12.8003 7.73901 12.9592 7.67316 13.125 7.67316H14.375C14.5408 7.67316 14.6997 7.73901 14.8169 7.85622C14.9342 7.97343 15 8.1324 15 8.29816V9.54816C15 9.71392 14.9342 9.87289 14.8169 9.9901C14.6997 10.1073 14.5408 10.1732 14.375 10.1732H13.125C12.9592 10.1732 12.8003 10.1073 12.6831 9.9901C12.5658 9.87289 12.5 9.71392 12.5 9.54816V8.29816ZM12.5 12.0482C12.5 11.8824 12.5658 11.7234 12.6831 11.6062C12.8003 11.489 12.9592 11.4232 13.125 11.4232H14.375C14.5408 11.4232 14.6997 11.489 14.8169 11.6062C14.9342 11.7234 15 11.8824 15 12.0482V17.0482C15 17.2139 14.9342 17.3729 14.8169 17.4901C14.6997 17.6073 14.5408 17.6732 14.375 17.6732H13.125C12.9592 17.6732 12.8003 17.6073 12.6831 17.4901C12.5658 17.3729 12.5 17.2139 12.5 17.0482V12.0482Z" fill="white"/>
</g>
<defs>
<clipPath id="clip0_508_890">
<rect width="20" height="20" fill="white" transform="translate(0 0.173157)"/>
</clipPath>
</defs>
</svg>
