<svg width="20" height="21" viewBox="0 0 20 21" fill="none" xmlns="http://www.w3.org/2000/svg">
<g id="Group 37877">
<path id="Vector" fill-rule="evenodd" clip-rule="evenodd" d="M4.3227 2.83982L4.17752 1.87649C4.03033 0.897152 3.18666 0.173157 2.19313 0.173157C1.46788 0.173157 0.669045 0.173157 0.669045 0.173157C0.299732 0.173157 0 0.471823 0 0.839823C0 1.20782 0.299732 1.50649 0.669045 1.50649H2.19313C2.52431 1.50649 2.80531 1.74782 2.85481 2.07448L4.52007 13.1365C4.66726 14.1158 5.51092 14.8398 6.50446 14.8398H16.2846C17.2507 14.8398 18.0796 14.1545 18.2576 13.2085C18.6142 11.3138 19.3501 7.40183 19.7629 5.2085C19.8726 4.62383 19.7161 4.0205 19.3347 3.5625C18.9534 3.1045 18.3874 2.83982 17.7899 2.83982H4.3227ZM4.52342 4.17316L5.84277 12.9385C5.89228 13.2652 6.17328 13.5065 6.50446 13.5065H16.2846C16.6064 13.5065 16.8827 13.2778 16.9422 12.9625L18.4476 4.96248C18.4844 4.76782 18.4322 4.56649 18.3051 4.41382C18.178 4.26115 17.9893 4.17316 17.7899 4.17316H4.52342Z" fill="white"/>
<path id="Vector_2" fill-rule="evenodd" clip-rule="evenodd" d="M7.3587 16.1732C6.25076 16.1732 5.35156 17.0692 5.35156 18.1732C5.35156 19.2772 6.25076 20.1732 7.3587 20.1732C8.46664 20.1732 9.36583 19.2772 9.36583 18.1732C9.36583 17.0692 8.46664 16.1732 7.3587 16.1732ZM7.3587 17.5065C7.72801 17.5065 8.02774 17.8052 8.02774 18.1732C8.02774 18.5412 7.72801 18.8398 7.3587 18.8398C6.98938 18.8398 6.68965 18.5412 6.68965 18.1732C6.68965 17.8052 6.98938 17.5065 7.3587 17.5065Z" fill="white"/>
<path id="Vector_3" fill-rule="evenodd" clip-rule="evenodd" d="M15.3978 16.1732C14.2898 16.1732 13.3906 17.0692 13.3906 18.1732C13.3906 19.2772 14.2898 20.1732 15.3978 20.1732C16.5057 20.1732 17.4049 19.2772 17.4049 18.1732C17.4049 17.0692 16.5057 16.1732 15.3978 16.1732ZM15.3978 17.5065C15.7671 17.5065 16.0668 17.8052 16.0668 18.1732C16.0668 18.5412 15.7671 18.8398 15.3978 18.8398C15.0284 18.8398 14.7287 18.5412 14.7287 18.1732C14.7287 17.8052 15.0284 17.5065 15.3978 17.5065Z" fill="white"/>
</g>
</svg>
