<svg width="29" height="29" viewBox="0 0 29 29" fill="none" xmlns="http://www.w3.org/2000/svg">
<g id="arrow-down-right-circle" clip-path="url(#clip0_508_904)">
<path id="Vector" fill-rule="evenodd" clip-rule="evenodd" d="M7.95495 20.3293C9.59589 21.9703 11.8215 22.8922 14.1421 22.8922C16.4628 22.8922 18.6884 21.9703 20.3293 20.3293C21.9703 18.6884 22.8921 16.4628 22.8921 14.1422C22.8921 11.8215 21.9703 9.59591 20.3293 7.95497C18.6884 6.31402 16.4628 5.39215 14.1421 5.39215C11.8215 5.39215 9.59589 6.31402 7.95495 7.95497C6.31401 9.59591 5.39214 11.8215 5.39214 14.1422C5.39214 16.4628 6.31401 18.6884 7.95495 20.3293ZM21.2132 7.07108C23.0886 8.94645 24.1421 11.49 24.1421 14.1422C24.1421 16.7943 23.0886 19.3379 21.2132 21.2132C19.3378 23.0886 16.7943 24.1422 14.1421 24.1422C11.49 24.1422 8.94643 23.0886 7.07107 21.2132C5.1957 19.3379 4.14214 16.7943 4.14214 14.1422C4.14214 11.49 5.1957 8.94645 7.07107 7.07108C8.94643 5.19572 11.49 4.14215 14.1421 4.14215C16.7943 4.14215 19.3378 5.19572 21.2132 7.07108ZM9.72272 13.5164C9.55675 13.5164 9.39758 13.5823 9.28022 13.6997C9.16286 13.817 9.09693 13.9762 9.09693 14.1422C9.09693 14.3081 9.16286 14.4673 9.28022 14.5847C9.39758 14.702 9.55675 14.7679 9.72272 14.7679L16.9644 14.7671L14.5178 17.2136C14.4006 17.3309 14.3347 17.4898 14.3347 17.6556C14.3347 17.8213 14.4006 17.9803 14.5178 18.0975C14.635 18.2147 14.794 18.2806 14.9597 18.2806C15.1255 18.2806 15.2845 18.2147 15.4017 18.0975L18.9151 14.5841C19.0323 14.4669 19.0982 14.3079 19.0982 14.1422C19.0982 13.9764 19.0323 13.8174 18.9151 13.7002L15.4017 10.1868C15.2845 10.0696 15.1255 10.0037 14.9597 10.0037C14.794 10.0037 14.635 10.0696 14.5178 10.1868C14.4006 10.304 14.3347 10.463 14.3347 10.6287C14.3347 10.7945 14.4006 10.9534 14.5178 11.0707L16.9644 13.5172L9.72272 13.5164Z" fill="white"/>
</g>
<defs>
<clipPath id="clip0_508_904">
<rect width="20" height="20" fill="white" transform="translate(0 14.1422) rotate(-45)"/>
</clipPath>
</defs>
</svg>
