<svg width="22" height="22" viewBox="0 0 22 22" fill="none" xmlns="http://www.w3.org/2000/svg">
<g id="Group 38014">
<path id="Vector" d="M8.67066 2.30668C9.05465 1.56834 9.96668 1 11 1C12.0333 1 12.9454 1.56834 13.3293 2.30668C14.0313 1.85934 15.105 1.82336 16 2.34C16.895 2.85664 17.4007 3.80469 17.364 4.63635C18.1956 4.59967 19.1437 5.10535 19.6603 6C20.177 6.89498 20.141 7.969 19.6933 8.67066C20.432 9.05498 21 9.96701 21 11C21 12.0333 20.432 12.9454 19.6933 13.3297C20.141 14.0313 20.177 15.1054 19.6603 16C19.1437 16.895 18.1957 17.4007 17.364 17.364C17.4007 18.1956 16.895 19.1437 16 19.6603C15.1051 20.177 14.0314 20.141 13.3294 19.6933C12.9454 20.432 12.0333 21 11 21C9.96668 21 9.05465 20.432 8.67066 19.6933C7.96867 20.141 6.89498 20.177 6 19.6603C5.10502 19.1437 4.59934 18.1957 4.63602 17.364C3.80436 17.4007 2.85635 16.895 2.33971 16C1.82303 15.1053 1.85905 14.0313 2.30672 13.3297C1.56801 12.9454 1 12.0333 1 11C1 9.96701 1.56801 9.05498 2.30668 8.67066C1.859 7.969 1.82299 6.89498 2.33967 6C2.85635 5.10531 3.80432 4.59967 4.63598 4.63635C4.59929 3.80469 5.10498 2.85668 5.99996 2.34C6.89494 1.82332 7.96867 1.85934 8.67066 2.30668Z" stroke="white" stroke-width="1.5" stroke-miterlimit="10" stroke-linecap="round" stroke-linejoin="round"/>
<path id="Vector_2" d="M12.3411 10.9999L13.0078 5.71423L7.00781 10.9999H9.67449L9.00781 16.2857L15.0078 10.9999H12.3411Z" stroke="white" stroke-width="1.5" stroke-miterlimit="10" stroke-linecap="round" stroke-linejoin="round"/>
</g>
</svg>
