<svg width="25" height="25" viewBox="0 0 25 25" fill="none" xmlns="http://www.w3.org/2000/svg">
<g id="Group 37952">
<path id="Vector" fill-rule="evenodd" clip-rule="evenodd" d="M20.8682 11.5044C22.329 13.1232 23.4181 14.5277 24.1353 15.787C26.7619 20.399 23.0253 25.0832 18.0211 24.9989C13.0169 25.0832 9.28032 20.399 11.9069 15.787C12.6242 14.5277 13.7133 13.1232 15.1741 11.5044C15.3484 11.5597 15.5339 11.5896 15.7262 11.5896H20.316C20.5083 11.5896 20.6938 11.5597 20.8682 11.5044ZM2.29164 0C1.0312 0 0 1.03125 0 2.29164V19.0446C0 20.3051 1.0312 21.3363 2.29164 21.3363H10.7306C9.90578 19.3654 10.1553 17.2331 11.2062 15.3879C11.4209 15.011 11.6564 14.6375 11.9075 14.2684C11.7622 14.1744 11.6658 14.011 11.6658 13.8258V13.1409C11.6658 12.8508 11.9024 12.6141 12.1926 12.6141H13.1481C13.5751 12.0892 14.0195 11.5782 14.4642 11.0849C14.3329 10.9604 14.22 10.8166 14.1299 10.6583H12.1926C11.9024 10.6583 11.6658 10.4217 11.6658 10.1315V9.44656C11.6658 9.15638 11.9024 8.91974 12.1926 8.91974H14.0923C14.256 8.60094 14.5104 8.33582 14.821 8.1587L14.2735 7.61127C13.9403 7.27805 13.7601 6.84836 13.7328 6.41076H3.05551C2.76533 6.41076 2.52869 6.17411 2.52869 5.88394V3.81614C2.52869 3.52597 2.76533 3.28933 3.05551 3.28933H14.6456C14.9358 3.28933 15.1724 3.52597 15.1724 3.81614V4.4791C15.5442 4.39382 15.9396 4.42219 16.301 4.57043C16.5454 3.98555 17.0754 3.56055 17.7012 3.45102V2.29164C17.7012 1.03125 16.6699 0 15.4095 0H2.29164ZM15.7262 10.7831C15.1603 10.7831 14.6974 10.3201 14.6974 9.75427C14.6974 9.18844 15.1603 8.72548 15.7262 8.72548H20.3161C20.882 8.72548 21.3449 9.18844 21.3449 9.75432C21.3449 10.3201 20.882 10.7831 20.3161 10.7831H15.7262ZM3.53953 8.91974H5.50854C5.79871 8.91974 6.03535 9.15638 6.03535 9.44656V10.1314C6.03535 10.4216 5.79871 10.6583 5.50854 10.6583H3.53953C3.24936 10.6583 3.01271 10.4216 3.01271 10.1314V9.44656C3.01271 9.15638 3.24936 8.91974 3.53953 8.91974ZM7.86606 16.3084C7.57588 16.3084 7.33924 16.5451 7.33924 16.8352V17.5201C7.33924 17.8103 7.57588 18.0469 7.86606 18.0469H9.83506C10.1252 18.0469 10.3619 17.8103 10.3619 17.5201V16.8352C10.3619 16.5451 10.1252 16.3084 9.83506 16.3084H7.86606ZM3.53953 16.3084H5.50854C5.79871 16.3084 6.03535 16.5451 6.03535 16.8352V17.5201C6.03535 17.8103 5.79871 18.0469 5.50854 18.0469H3.53953C3.24936 18.0469 3.01271 17.8103 3.01271 17.5201V16.8352C3.01271 16.5451 3.24936 16.3084 3.53953 16.3084ZM7.86606 12.6141C7.57588 12.6141 7.33924 12.8507 7.33924 13.1409V13.8258C7.33924 14.1159 7.57588 14.3526 7.86606 14.3526H9.83506C10.1252 14.3526 10.3619 14.1159 10.3619 13.8258V13.1409C10.3619 12.8507 10.1252 12.6141 9.83506 12.6141H7.86606ZM3.53953 12.6141H5.50854C5.79871 12.6141 6.03535 12.8507 6.03535 13.1409V13.8258C6.03535 14.1159 5.79871 14.3526 5.50854 14.3526H3.53953C3.24936 14.3526 3.01271 14.1159 3.01271 13.8258V13.1409C3.01271 12.8508 3.24936 12.6141 3.53953 12.6141ZM7.86606 8.91974H9.83506C10.1252 8.91974 10.3619 9.15638 10.3619 9.44656V10.1314C10.3619 10.4216 10.1252 10.6583 9.83506 10.6583H7.86606C7.57588 10.6583 7.33924 10.4216 7.33924 10.1314V9.44656C7.33924 9.15638 7.57588 8.91974 7.86606 8.91974ZM17.9684 20.1607C17.6592 20.1526 17.359 20.0689 17.1198 19.9095C16.9032 19.7653 16.7378 19.5544 16.6687 19.2772C16.6072 19.0271 16.3545 18.8742 16.1043 18.9357C15.8542 18.9972 15.7013 19.2499 15.7628 19.5001C15.8933 20.0235 16.2019 20.4193 16.6047 20.6876C16.8799 20.8708 17.1995 20.992 17.5341 21.051V21.4139C17.5341 21.6722 17.7434 21.8815 18.0017 21.8815C18.2599 21.8815 18.4692 21.6722 18.4692 21.4139V21.0599C18.8759 20.9979 19.2902 20.8495 19.6155 20.6027C20.0064 20.3061 20.2665 19.8813 20.2529 19.3113C20.2513 19.246 20.2476 19.1886 20.2417 19.1396C20.1658 18.515 19.8279 18.1084 19.3799 17.8379C18.9863 17.6003 18.5143 17.4819 18.0816 17.4109C17.7695 17.3596 17.4408 17.2729 17.2001 17.1158C17.0135 16.994 16.8797 16.8177 16.8672 16.5599C16.8536 16.281 16.9754 16.056 17.1673 15.9C17.3176 15.7778 17.5093 15.6928 17.7172 15.651C17.8008 15.6342 17.8869 15.6245 17.9738 15.6222C17.983 15.6227 17.9923 15.623 18.0016 15.623C18.0129 15.623 18.024 15.6226 18.0351 15.6218C18.15 15.6235 18.2658 15.6383 18.3788 15.6669C18.7264 15.755 19.0429 15.9841 19.2095 16.381C19.3094 16.6191 19.5834 16.7311 19.8214 16.6312C20.0594 16.5314 20.1714 16.2574 20.0716 16.0194C19.7781 15.3205 19.2195 14.9166 18.6053 14.761C18.5602 14.7495 18.5149 14.7395 18.4692 14.7309V14.3686C18.4692 14.1104 18.2599 13.901 18.0017 13.901C17.7435 13.901 17.5341 14.1104 17.5341 14.3686V14.7379C17.1798 14.8093 16.8471 14.9589 16.5792 15.1767C16.1674 15.5115 15.9063 15.9977 15.9357 16.6038C15.9652 17.2129 16.2692 17.6214 16.6923 17.8976C17.0611 18.1384 17.5141 18.263 17.9319 18.3315C18.2674 18.3866 18.6256 18.4737 18.8977 18.638C19.1154 18.7694 19.2789 18.9615 19.3138 19.2493C19.3185 19.2876 19.321 19.3155 19.3214 19.3333C19.3268 19.5621 19.2174 19.7365 19.0529 19.8612C18.8471 20.0174 18.5581 20.1094 18.2691 20.1445C18.1904 20.1541 18.1217 20.1595 18.0634 20.1609L18.0411 20.1613C18.0281 20.1602 18.0149 20.1596 18.0016 20.1596C17.9904 20.1594 17.9793 20.1599 17.9684 20.1607ZM15.7218 7.91908L14.8438 7.041C14.4326 6.62981 14.4326 5.95698 14.8438 5.54584C15.1935 5.19609 15.7471 5.13701 16.1632 5.4041C16.3178 5.5033 16.4953 5.51912 16.6649 5.44891C16.8345 5.37865 16.9489 5.242 16.988 5.06252C17.0916 4.58792 17.5165 4.2297 18.0211 4.2296C18.5165 4.2296 18.9487 4.57885 19.0543 5.06252C19.0935 5.242 19.2078 5.37865 19.3774 5.44891C19.5471 5.51922 19.7246 5.5033 19.8791 5.4041C20.2879 5.1417 20.8418 5.18903 21.1985 5.54574V5.54584C21.6097 5.95703 21.6097 6.62986 21.1985 7.041L20.3204 7.91908L20.316 7.91903H15.7262L15.7218 7.91908Z" fill="#1C2026"/>
</g>
</svg>
