<svg width="18" height="18" viewBox="0 0 18 18" fill="none" xmlns="http://www.w3.org/2000/svg">
<g id="clock-fill" clip-path="url(#clip0_316_2824)">
<path id="Vector" d="M18 9C18 11.3869 17.0518 13.6761 15.364 15.364C13.6761 17.0518 11.3869 18 9 18C6.61305 18 4.32387 17.0518 2.63604 15.364C0.948212 13.6761 0 11.3869 0 9C0 6.61305 0.948212 4.32387 2.63604 2.63604C4.32387 0.948212 6.61305 0 9 0C11.3869 0 13.6761 0.948212 15.364 2.63604C17.0518 4.32387 18 6.61305 18 9ZM9 3.9375C9 3.78832 8.94074 3.64524 8.83525 3.53975C8.72976 3.43426 8.58668 3.375 8.4375 3.375C8.28832 3.375 8.14524 3.43426 8.03975 3.53975C7.93426 3.64524 7.875 3.78832 7.875 3.9375V10.125C7.87503 10.2241 7.90127 10.3215 7.95106 10.4073C8.00084 10.493 8.07241 10.5641 8.1585 10.6132L12.096 12.8632C12.2252 12.9331 12.3766 12.9496 12.5179 12.9093C12.6591 12.869 12.779 12.775 12.8518 12.6475C12.9247 12.5199 12.9448 12.369 12.9078 12.2268C12.8709 12.0847 12.7798 11.9626 12.654 11.8868L9 9.79875V3.9375Z" fill="#1C2026"/>
</g>
<defs>
<clipPath id="clip0_316_2824">
<rect width="18" height="18" fill="white"/>
</clipPath>
</defs>
</svg>
