<svg width="18" height="18" viewBox="0 0 18 18" fill="none" xmlns="http://www.w3.org/2000/svg">
<g id="collection-fill" clip-path="url(#clip0_316_2235)">
<path id="Vector" d="M0 14.625C0 15.0726 0.17779 15.5018 0.494257 15.8182C0.810725 16.1347 1.23995 16.3125 1.6875 16.3125H16.3125C16.7601 16.3125 17.1893 16.1347 17.5057 15.8182C17.8222 15.5018 18 15.0726 18 14.625V6.75C18 6.30245 17.8222 5.87322 17.5057 5.55676C17.1893 5.24029 16.7601 5.0625 16.3125 5.0625H1.6875C1.23995 5.0625 0.810725 5.24029 0.494257 5.55676C0.17779 5.87322 0 6.30245 0 6.75L0 14.625ZM2.25 3.375C2.25 3.52418 2.30926 3.66726 2.41475 3.77275C2.52024 3.87824 2.66332 3.9375 2.8125 3.9375H15.1875C15.3367 3.9375 15.4798 3.87824 15.5852 3.77275C15.6907 3.66726 15.75 3.52418 15.75 3.375C15.75 3.22582 15.6907 3.08274 15.5852 2.97725C15.4798 2.87176 15.3367 2.8125 15.1875 2.8125H2.8125C2.66332 2.8125 2.52024 2.87176 2.41475 2.97725C2.30926 3.08274 2.25 3.22582 2.25 3.375ZM4.5 1.125C4.5 1.27418 4.55926 1.41726 4.66475 1.52275C4.77024 1.62824 4.91332 1.6875 5.0625 1.6875H12.9375C13.0867 1.6875 13.2298 1.62824 13.3352 1.52275C13.4407 1.41726 13.5 1.27418 13.5 1.125C13.5 0.975816 13.4407 0.832742 13.3352 0.727252C13.2298 0.621763 13.0867 0.5625 12.9375 0.5625H5.0625C4.91332 0.5625 4.77024 0.621763 4.66475 0.727252C4.55926 0.832742 4.5 0.975816 4.5 1.125Z" fill="#1C2026"/>
</g>
<defs>
<clipPath id="clip0_316_2235">
<rect width="18" height="18" fill="white"/>
</clipPath>
</defs>
</svg>
