<svg width="18" height="18" viewBox="0 0 18 18" fill="none" xmlns="http://www.w3.org/2000/svg">
<g id="envelope-fill">
<path id="Vector" d="M0.05625 3.99938C0.16967 3.5024 0.448487 3.05866 0.847037 2.74085C1.24559 2.42303 1.74025 2.24997 2.25 2.25H15.75C16.2598 2.24997 16.7544 2.42303 17.153 2.74085C17.5515 3.05866 17.8303 3.5024 17.9438 3.99938L9 9.46575L0.05625 3.99938ZM0 5.28413V13.2761L6.52838 9.27338L0 5.28413ZM7.60613 9.93375L0.214875 14.4641C0.397492 14.8492 0.685717 15.1745 1.046 15.4021C1.40629 15.6298 1.82382 15.7504 2.25 15.75H15.75C16.1761 15.7501 16.5935 15.6292 16.9536 15.4014C17.3136 15.1735 17.6016 14.8481 17.784 14.463L10.3927 9.93263L9 10.7843L7.60613 9.93263V9.93375ZM11.4716 9.2745L18 13.2761V5.28413L11.4716 9.27338V9.2745Z" fill="#1C2026"/>
</g>
</svg>
