<svg width="25" height="25" viewBox="0 0 25 25" fill="none" xmlns="http://www.w3.org/2000/svg">
<g id="Group 37953">
<g id="Group">
<g id="Group_2">
<path id="Vector" d="M24.2676 0H21.2891C20.8842 0 20.5566 0.327588 20.5566 0.732422V1.46484H14.5624C14.259 0.61416 13.4536 0 12.5 0C11.5464 0 10.741 0.61416 10.4376 1.46484H4.44336V0.732422C4.44336 0.327588 4.11577 0 3.71094 0H0.732422C0.327588 0 0 0.327588 0 0.732422V3.66211C0 4.06694 0.327588 4.39453 0.732422 4.39453H3.71094C4.11577 4.39453 4.44336 4.06694 4.44336 3.66211V2.91992H7.45137C4.90952 4.50786 3.2335 7.29687 3.03315 10.4207C2.15435 10.7083 1.51367 11.5264 1.51367 12.5C1.51367 13.7116 2.49932 14.6973 3.71094 14.6973C4.92256 14.6973 5.9082 13.7116 5.9082 12.5C5.9082 11.5654 5.31929 10.7709 4.49512 10.4538C4.74502 6.97109 7.1751 4.03574 10.5553 3.19824C10.9209 3.90513 11.6507 4.39453 12.5 4.39453C13.3493 4.39453 14.0791 3.90513 14.4447 3.19824C17.8249 4.03569 20.255 6.97105 20.5049 10.4537C19.6807 10.7708 19.0918 11.5654 19.0918 12.5C19.0918 13.7116 20.0774 14.6973 21.2891 14.6973C22.5007 14.6973 23.4863 13.7116 23.4863 12.5C23.4863 11.5264 22.8457 10.7083 21.9668 10.4207C21.7665 7.29687 20.0905 4.51763 17.5486 2.92969H20.5566V3.66211C20.5566 4.06694 20.8842 4.39453 21.2891 4.39453H24.2676C24.6724 4.39453 25 4.06694 25 3.66211V0.732422C25 0.327588 24.6724 0 24.2676 0Z" fill="#1C2026"/>
</g>
</g>
<g id="Group_3">
<g id="Group_4">
<path id="Vector_2" d="M17.4822 24.0916C17.0991 22.9192 15.9954 22.0215 14.6966 22.0215H10.3021C9.00323 22.0215 7.89952 22.9192 7.51641 24.0916C7.36871 24.5436 7.75323 25 8.22881 25H16.7698C17.2454 25 17.6299 24.5436 17.4822 24.0916Z" fill="#1C2026"/>
</g>
</g>
<g id="Group_5">
<g id="Group_6">
<path id="Vector_3" d="M18.9746 15.0235L13.2383 6.41895V13.3674C14.089 13.6708 14.7031 14.4761 14.7031 15.4297C14.7031 16.6414 13.7175 17.627 12.5059 17.627C11.2942 17.627 10.3086 16.6414 10.3086 15.4297C10.3086 14.4761 10.9228 13.6708 11.7734 13.3674V6.41895L6.03712 15.0235C5.84327 15.3139 5.88189 15.7008 6.12867 15.9476C7.47325 17.2922 8.33272 19.0244 8.66441 20.8824C9.1732 20.676 9.72657 20.5567 10.3086 20.5567H14.7031C15.2852 20.5567 15.8385 20.676 16.3473 20.8823C16.679 19.0242 17.5385 17.2922 18.8831 15.9476C19.1298 15.7008 19.1685 15.3139 18.9746 15.0235Z" fill="#1C2026"/>
</g>
</g>
<g id="Group_7">
<g id="Group_8">
<path id="Vector_4" d="M12.5059 14.6973C12.1018 14.6973 11.7734 15.0256 11.7734 15.4297C11.7734 15.8338 12.1018 16.1621 12.5059 16.1621C12.91 16.1621 13.2383 15.8338 13.2383 15.4297C13.2383 15.0256 12.91 14.6973 12.5059 14.6973Z" fill="#1C2026"/>
</g>
</g>
</g>
</svg>
