<svg width="17" height="12" viewBox="0 0 17 12" fill="none" xmlns="http://www.w3.org/2000/svg">
<g id="Group 37971">
<path id="Vector" d="M5.43706 10.9387C5.42811 11.0278 5.43581 11.1208 5.46828 11.213C5.54757 11.4353 5.73363 11.6164 5.95403 11.6846C6.15882 11.7493 6.36258 11.7063 6.42439 11.639L6.85166 11.1806C6.97529 11.0484 7.00651 10.8372 6.93387 10.6322C6.75509 10.2896 6.51555 10.166 6.20877 10.1106L5.43706 10.9387Z" fill="black"/>
<path id="Vector_2" d="M4.86482 8.64617L4.11808 9.44702C3.96636 9.61206 3.92286 9.86576 4.00757 10.1089C4.09748 10.3657 4.31205 10.5746 4.56887 10.6527C4.81196 10.7255 5.05588 10.6689 5.20864 10.5064L5.90002 9.76482C6.05278 9.6002 6.09524 9.34775 6.01054 9.10466C5.92063 8.84659 5.7048 8.63847 5.44923 8.56084C5.24527 8.4957 5.00593 8.4932 4.86482 8.64617Z" fill="black"/>
<path id="Vector_3" d="M3.38539 7.32826L2.69588 8.06855C2.54395 8.23234 2.5015 8.48688 2.58537 8.7308C2.67528 8.98679 2.88985 9.19574 3.14668 9.27379C3.38935 9.34767 3.63576 9.29002 3.71256 9.20865L4.47803 8.38719C4.63079 8.22215 4.67325 7.96845 4.58855 7.72578C4.49822 7.46812 4.28365 7.26 4.02682 7.18279C3.79061 7.10578 3.5292 7.17425 3.38539 7.32826Z" fill="black"/>
<path id="Vector_4" d="M2.03489 5.86894L1.27066 6.69081C1.1179 6.85544 1.07544 7.10789 1.16015 7.34973C1.24923 7.60863 1.46505 7.81675 1.72187 7.8948C1.96454 7.96722 2.21054 7.91103 2.28651 7.82861L3.05281 7.00716V7.00632C3.20557 6.84378 3.24803 6.59091 3.16333 6.34824C3.07467 6.08934 2.85884 5.88122 2.60202 5.804C2.40576 5.73636 2.16829 5.72471 2.03489 5.86894Z" fill="black"/>
<path id="Vector_5" d="M11.9585 0.967529C11.4642 1.24392 10.7772 1.29345 10.1081 1.34152C9.60194 1.37607 9.07976 1.4127 8.70451 1.55131L6.61809 2.32116C6.60394 2.32677 6.58958 2.3301 6.57459 2.33219C6.47386 2.348 6.38062 2.36153 6.29696 2.37319C5.78893 2.44478 5.73024 2.46663 5.67176 2.61711C5.61848 2.75613 5.67696 2.95655 5.8214 3.1268C5.93919 3.26665 6.40019 3.70329 7.3486 3.47873L8.53677 3.32181C9.20213 3.23606 9.73555 3.66979 10.1616 4.01985L13.3569 6.576L13.3594 6.57475C13.991 6.31044 14.6491 5.96662 15.2085 5.29272L11.9585 0.967529Z" fill="black"/>
<path id="Vector_6" d="M7.56405 0.812232C7.37466 0.829714 7.15759 0.853648 6.92991 0.877374C5.67056 1.01182 4.97231 1.06468 4.61705 0.998917L1.34766 5.25439C1.46795 5.36823 1.56764 5.48645 1.64798 5.61444C1.92124 5.33472 2.33415 5.23483 2.73625 5.35637C3.13085 5.47542 3.4603 5.7953 3.59808 6.19219C3.65656 6.36014 3.67488 6.53247 3.65989 6.69751C3.82119 6.67482 3.99164 6.68419 4.15939 6.73539C4.55294 6.8536 4.88365 7.17432 5.02039 7.5712C5.0797 7.73833 5.09843 7.91023 5.08428 8.07528C5.24557 8.05259 5.41603 8.06216 5.58377 8.1144C5.9765 8.23345 6.30575 8.55333 6.44353 8.94814C6.5301 9.19851 6.53343 9.45617 6.46309 9.68718C6.50326 9.69488 6.54446 9.70466 6.58546 9.71757C6.93782 9.82683 7.23709 10.1163 7.36592 10.4733C7.48871 10.8187 7.43544 11.1817 7.23377 11.4423L7.8138 11.9062C7.95574 12.0188 8.16261 12.0311 8.35575 11.9374C8.56512 11.8358 8.72329 11.6296 8.76991 11.3988C8.78948 11.3024 8.78303 11.209 8.76097 11.1224L8.02525 10.5338C7.9264 10.4545 7.90891 10.3082 7.98613 10.2067C8.06417 10.1059 8.20736 10.0872 8.30684 10.1665L9.19136 10.8754C9.27919 10.9457 9.53081 10.9644 9.76162 10.8558C10.0043 10.7399 10.1876 10.5009 10.2384 10.2343C10.2871 9.9823 10.2091 9.73796 10.0355 9.59811L9.23548 8.95792C9.13579 8.87863 9.11831 8.7319 9.19636 8.63159C9.27357 8.52961 9.41759 8.51088 9.51624 8.59142L10.6792 9.52152C10.854 9.66054 11.1053 9.67969 11.3373 9.57147C11.5779 9.45637 11.7613 9.21787 11.8133 8.94835C11.862 8.69631 11.7839 8.45281 11.6085 8.3117L10.4451 7.38285C10.3454 7.30273 10.3279 7.15642 10.406 7.05402C10.484 6.95371 10.6272 6.93622 10.7271 7.01531C10.7271 7.01531 12.4936 8.42783 12.4949 8.42783C12.5827 8.49693 12.8331 8.51649 13.0628 8.40661C13.3059 8.29318 13.488 8.05467 13.5409 7.78599C13.5888 7.53353 13.5107 7.28837 13.3361 7.14976L9.87858 4.38277C9.4819 4.05748 9.07211 3.72053 8.59613 3.78442L7.4319 3.93635C6.64707 4.12491 5.90678 3.93843 5.47867 3.43228C5.2206 3.12738 5.13277 2.75026 5.2487 2.44703C5.41124 2.02642 5.72259 1.98292 6.23644 1.91049C6.31324 1.90071 6.39587 1.88864 6.48681 1.87428L8.5518 1.11255C8.68604 1.0626 8.83464 1.02805 8.98844 0.99746C8.45752 0.792044 8.0727 0.779765 7.56405 0.812232Z" fill="black"/>
<path id="Vector_7" d="M3.07364 0.00573402C2.69756 -0.0227787 2.35416 0.260683 1.85987 0.904405L0.595739 2.55107C0.138495 3.14505 -0.0327892 3.51446 0.00508902 3.82748C0.0354748 4.08472 0.21446 4.33717 0.391988 4.47953L0.991588 4.95842L4.24766 0.720425L3.82621 0.383059C3.5365 0.152044 3.29925 0.0232163 3.07364 0.00573402Z" fill="black"/>
<path id="Vector_8" d="M13.515 0.00139465C13.2894 0.015547 13.0501 0.141669 12.7581 0.369355L12.332 0.699853L15.5429 4.97239L15.9579 4.64959C16.3169 4.37113 16.5001 4.122 16.5336 3.86497C16.575 3.55279 16.4091 3.18046 15.9592 2.57878L14.7157 0.9163C14.2311 0.265918 13.8921 -0.0227475 13.515 0.00139465Z" fill="black"/>
</g>
</svg>
