<svg width="25" height="25" viewBox="0 0 25 25" fill="none" xmlns="http://www.w3.org/2000/svg">
<g id="Group 37950">
<path id="Vector" d="M18.224 11.4583C14.4906 11.4583 11.4531 14.4958 11.4531 18.2291C11.4531 21.9624 14.4906 24.9999 18.224 24.9999C21.9573 24.9999 24.9948 21.9624 24.9948 18.2291C24.9948 14.4958 21.9573 11.4583 18.224 11.4583ZM21.149 20.0541L18.8052 22.6583C18.6563 22.8228 18.4458 22.9166 18.224 22.9166C18.0021 22.9166 17.7917 22.8228 17.6427 22.6583L15.299 20.0541C14.8479 19.552 15.2052 18.7499 15.8802 18.7499H17.1823V14.5833C17.1823 14.0083 17.6479 13.5416 18.224 13.5416C18.8 13.5416 19.2656 14.0083 19.2656 14.5833V18.7499H20.5677C21.2427 18.7499 21.6 19.552 21.149 20.0541Z" fill="#1C2026"/>
<path id="Vector_2" d="M10.4167 0L20.8333 4.16667L10.4167 8.33333L0 4.16667L10.4167 0Z" fill="#1C2026"/>
<path id="Vector_3" d="M9.375 10.1604L0 6.4104V16.6667C0 16.8854 0.135417 17.0792 0.340625 17.1552L9.375 20.4833V10.1604Z" fill="#1C2026"/>
<path id="Vector_4" d="M18.224 9.37498C19.1302 9.37498 20.0042 9.51353 20.8281 9.76665V6.4104L11.4531 10.1604V12.5354C13.0781 10.6062 15.5094 9.37498 18.224 9.37498Z" fill="#1C2026"/>
</g>
</svg>
