<svg width="23" height="25" viewBox="0 0 23 25" fill="none" xmlns="http://www.w3.org/2000/svg">
<g id="Group 37954">
<g id="Group">
<g id="Group_2">
<path id="Vector" d="M21.3333 10.3798L11.5829 0.627969C11.0078 0.0543366 10.0776 0.0611237 9.5101 0.627237C8.93934 1.19945 8.93934 2.12855 9.5101 2.70004L19.2619 12.4512C19.8332 13.0224 20.7619 13.0224 21.3333 12.4512C21.9061 11.8783 21.9061 10.9525 21.3333 10.3798Z" fill="#1C2026"/>
</g>
</g>
<g id="Group_3">
<g id="Group_4">
<path id="Vector_2" d="M8.78032 4.04797L8.70693 4.41584C8.18999 7.00168 6.93364 9.45827 5.23438 11.4493L10.5394 16.7544C12.5302 15.0554 14.953 13.7654 17.5389 13.2478L17.9075 13.1744L8.78032 4.04797Z" fill="#1C2026"/>
</g>
</g>
<g id="Group_5">
<g id="Group_6">
<path id="Vector_3" d="M4.26949 12.5483L0.643854 16.1732C-0.212835 17.0299 -0.216399 18.4207 0.643854 19.281L2.71524 21.3524C3.57193 22.2091 4.96275 22.2126 5.823 21.3524L9.44829 17.7271L4.26949 12.5483ZM4.78736 18.2454C4.50127 18.5314 4.03775 18.5314 3.75166 18.2454C3.46558 17.9593 3.46558 17.4957 3.75166 17.2097L4.78736 16.174C5.07344 15.8879 5.53697 15.8879 5.82305 16.174C6.10913 16.4601 6.10913 16.9236 5.82305 17.2097L4.78736 18.2454Z" fill="#1C2026"/>
</g>
</g>
<g id="Group_7">
<g id="Group_8">
<path id="Vector_4" d="M12.5143 21.7422L13.5106 20.7459C14.3709 19.8857 14.3681 18.4949 13.5107 17.6389L12.7707 16.8983C12.3616 17.1731 11.971 17.4716 11.5912 17.7902L12.475 18.6753C12.7604 18.9592 12.7624 19.4213 12.475 19.7102L11.4622 20.723L9.97383 19.281L7.90234 21.3525L11.2254 24.5725C11.7925 25.1411 12.7236 25.1443 13.2961 24.5718C13.8676 24.0003 13.8676 23.0712 13.2961 22.4997L12.5143 21.7422Z" fill="#1C2026"/>
</g>
</g>
<g id="Group_9">
<g id="Group_10">
<path id="Vector_5" d="M15.459 0C15.0542 0 14.7266 0.327588 14.7266 0.732421V2.19726C14.7266 2.6021 15.0542 2.92969 15.459 2.92969C15.8638 2.92969 16.1914 2.6021 16.1914 2.19726V0.732421C16.1914 0.327588 15.8638 0 15.459 0Z" fill="#1C2026"/>
</g>
</g>
<g id="Group_11">
<g id="Group_12">
<path id="Vector_6" d="M21.3184 5.85938H19.8535C19.4487 5.85938 19.1211 6.18696 19.1211 6.5918C19.1211 6.99663 19.4487 7.32422 19.8535 7.32422H21.3184C21.7232 7.32422 22.0508 6.99663 22.0508 6.5918C22.0508 6.18696 21.7232 5.85938 21.3184 5.85938Z" fill="#1C2026"/>
</g>
</g>
<g id="Group_13">
<g id="Group_14">
<path id="Vector_7" d="M20.3713 1.67941C20.0853 1.39332 19.6217 1.39332 19.3357 1.67941L17.8708 3.14425C17.5847 3.43033 17.5847 3.89386 17.8708 4.17994C18.1569 4.46603 18.6204 4.46607 18.9065 4.17994L20.3713 2.7151C20.6574 2.42902 20.6574 1.96549 20.3713 1.67941Z" fill="#1C2026"/>
</g>
</g>
</g>
</svg>
