<svg width="25" height="25" viewBox="0 0 25 25" fill="none" xmlns="http://www.w3.org/2000/svg">
<g id="fi_3055812" clip-path="url(#clip0_316_2828)">
<g id="Group">
<path id="Vector" d="M9.56836 23.5352H8.83594V22.0703H7.37109V23.5352H6.63867C6.23384 23.5352 5.90625 23.8627 5.90625 24.2676C5.90625 24.6724 6.23384 25 6.63867 25H9.56836C9.97319 25 10.3008 24.6724 10.3008 24.2676C10.3008 23.8627 9.97319 23.5352 9.56836 23.5352Z" fill="black"/>
<path id="Vector_2" d="M24.2676 11.7188H17.627V10.2539H22.7539C23.1587 10.2539 23.4863 9.92632 23.4863 9.52148V0.732422C23.4863 0.327588 23.1587 0 22.7539 0H11.0352C10.6303 0 10.3027 0.327588 10.3027 0.732422V1.85635C11.1095 2.14326 11.8627 2.57544 12.51 3.16143C13.8919 4.36519 14.6973 6.1562 14.6973 8.05664V10.2539H16.1621V11.7188H13.2324V8.05664C13.2324 6.57964 12.6066 5.18774 11.5265 4.24717C10.5881 3.39746 9.3729 2.92969 8.10547 2.92969C5.27876 2.92969 2.97852 5.22993 2.97852 8.05664V11.7188H0.732422C0.327588 11.7188 0 12.0463 0 12.4512V24.2676C0 24.6724 0.327588 25 0.732422 25C1.13726 25 1.46484 24.6724 1.46484 24.2676V13.1836H2.97852V13.916C2.97852 14.3208 3.3061 14.6484 3.71094 14.6484H7.37305V16.1133H5.17578C3.96416 16.1133 2.97852 17.0989 2.97852 18.3105V19.7754C2.97852 20.1802 3.3061 20.5078 3.71094 20.5078H12.5C12.9048 20.5078 13.2324 20.1802 13.2324 19.7754V18.3105C13.2324 17.0989 12.2468 16.1133 11.0352 16.1133H8.83789V14.6484H12.5C12.9048 14.6484 13.2324 14.3208 13.2324 13.916V13.1836H14.6973V16.1133H25V12.4512C25 12.0463 24.6724 11.7188 24.2676 11.7188Z" fill="black"/>
<path id="Vector_3" d="M14.6953 17.5781V24.2676C14.6953 24.6724 15.0229 25 15.4277 25C15.8326 25 16.1602 24.6724 16.1602 24.2676V22.0703H23.5332V24.2676C23.5332 24.6724 23.8608 25 24.2656 25C24.6705 25 24.998 24.6724 24.998 24.2676V17.5781H14.6953Z" fill="black"/>
</g>
</g>
<defs>
<clipPath id="clip0_316_2828">
<rect width="25" height="25" fill="white"/>
</clipPath>
</defs>
</svg>
