<svg width="28" height="25" viewBox="0 0 28 25" fill="none" xmlns="http://www.w3.org/2000/svg">
<g id="Group 37977">
<path id="Vector" d="M0 0V22.1861H11.4719V20.5628H1.62338V18.3983H11.4719V16.7749H4.42917L10.2002 10.5249L12.7706 13.0952H14.6645L21.645 6.11472L26.0823 10.5519V11.3681V13.0952H27.7056V0H0ZM5.95238 8.38745C4.60752 8.38745 3.51732 7.29724 3.51732 5.95238C3.51732 4.60752 4.60752 3.51732 5.95238 3.51732C7.29724 3.51732 8.38745 4.60752 8.38745 5.95238C8.38745 7.29724 7.29724 8.38745 5.95238 8.38745Z" fill="black"/>
<path id="Vector_2" d="M24.4574 14.7186V12.5541H16.3405V14.7186H13.0938V23.3766H16.3405V25H24.4574V23.3766H27.7041V14.7186H24.4574ZM22.834 23.3766H17.9639V21.7533H22.834V23.3766ZM22.834 16.342H17.9639V14.1775H22.834V16.342Z" fill="black"/>
</g>
</svg>
