<svg width="25" height="25" viewBox="0 0 25 25" fill="none" xmlns="http://www.w3.org/2000/svg">
<g id="fi_11819183" clip-path="url(#clip0_316_2844)">
<g id="Group">
<path id="Vector" fill-rule="evenodd" clip-rule="evenodd" d="M9.1252 1.94042C11.1067 0.394859 13.8933 0.394859 15.8748 1.94042L22.1248 6.81535C23.4448 7.845 24.2188 9.42219 24.2188 11.0954V12.5H7.8125C6.0866 12.5 4.6875 13.9754 4.6875 15.7113V23.5693C4.6875 23.8391 4.82277 24.0773 5.02887 24.2188C2.60209 23.6677 0.78125 21.5096 0.78125 18.9159V11.0954C0.78125 9.42219 1.55516 7.84496 2.8752 6.81535L9.1252 1.94042ZM9.76562 7.8534C9.33414 7.8534 8.98438 8.2052 8.98438 8.63918C8.98438 9.07316 9.33414 9.42496 9.76562 9.42496H15.2344C15.6659 9.42496 16.0156 9.07316 16.0156 8.63918C16.0156 8.2052 15.6659 7.8534 15.2344 7.8534H9.76562Z" fill="black"/>
<path id="Vector_2" d="M11.7188 22.7835V19.2474H6.25V22.7835H11.7188Z" fill="black"/>
<path id="Vector_3" d="M11.7188 17.6758V14.1397H7.8125C6.94957 14.1397 6.25 14.8433 6.25 15.7113V17.6758H11.7188Z" fill="black"/>
<path id="Vector_4" fill-rule="evenodd" clip-rule="evenodd" d="M17.9688 15.625C17.9688 14.3306 19.0181 13.2812 20.3125 13.2812H21.875C23.1694 13.2812 24.2188 14.3306 24.2188 15.625V17.1875C24.2188 17.7878 23.9931 18.3354 23.622 18.75C23.9931 19.1646 24.2188 19.7122 24.2188 20.3125V21.875C24.2188 23.1694 23.1694 24.2188 21.875 24.2188H20.3125C19.7122 24.2188 19.1646 23.9931 18.75 23.622C18.3354 23.9931 17.7878 24.2188 17.1875 24.2188H15.625C14.3306 24.2188 13.2812 23.1694 13.2812 21.875V20.3125C13.2812 19.0181 14.3306 17.9688 15.625 17.9688H17.1875C17.5487 17.9688 17.8909 18.0505 18.1964 18.1964C18.0505 17.8909 17.9688 17.5487 17.9688 17.1875V15.625ZM22.6562 17.1875C22.6562 17.619 22.3065 17.9688 21.875 17.9688H20.3125C19.881 17.9688 19.5312 17.619 19.5312 17.1875V15.625C19.5312 15.1935 19.881 14.8438 20.3125 14.8438H21.875C22.3065 14.8438 22.6562 15.1935 22.6562 15.625V17.1875ZM19.5312 20.3125C19.5312 19.881 19.881 19.5312 20.3125 19.5312H21.875C22.3065 19.5312 22.6562 19.881 22.6562 20.3125V21.875C22.6562 22.3065 22.3065 22.6562 21.875 22.6562H20.3125C19.881 22.6562 19.5312 22.3065 19.5312 21.875V20.3125ZM17.9688 20.3125C17.9688 19.881 17.619 19.5312 17.1875 19.5312H15.625C15.1935 19.5312 14.8438 19.881 14.8438 20.3125V21.875C14.8438 22.3065 15.1935 22.6562 15.625 22.6562H17.1875C17.619 22.6562 17.9688 22.3065 17.9688 21.875V20.3125Z" fill="black"/>
</g>
</g>
<defs>
<clipPath id="clip0_316_2844">
<rect width="25" height="25" fill="white"/>
</clipPath>
</defs>
</svg>
