<svg width="18" height="18" viewBox="0 0 18 18" fill="none" xmlns="http://www.w3.org/2000/svg">
<g id="telephone-fill" clip-path="url(#clip0_316_2812)">
<path id="Vector" fill-rule="evenodd" clip-rule="evenodd" d="M2.12115 0.574766C2.318 0.378215 2.55437 0.225744 2.8146 0.127454C3.07483 0.029165 3.35298 -0.0126974 3.63061 0.00464134C3.90824 0.0219801 4.17902 0.098124 4.425 0.228027C4.67098 0.35793 4.88654 0.538626 5.0574 0.758141L7.07678 3.35239C7.44691 3.82827 7.5774 4.44814 7.43116 5.03314L6.81578 7.49689C6.78396 7.6245 6.78568 7.75817 6.82077 7.88491C6.85586 8.01166 6.92312 8.12718 7.01603 8.22027L9.78016 10.9844C9.87335 11.0775 9.98906 11.1449 10.116 11.18C10.243 11.215 10.3769 11.2167 10.5047 11.1846L12.9673 10.5693C13.256 10.4971 13.5573 10.4915 13.8485 10.5529C14.1396 10.6143 14.4131 10.741 14.648 10.9236L17.2423 12.9419C18.1749 13.6675 18.2604 15.0456 17.4257 15.8793L16.2624 17.0425C15.4299 17.875 14.1857 18.2406 13.0258 17.8323C10.0571 16.7877 7.36171 15.0882 5.13953 12.8598C2.91123 10.6379 1.21171 7.94291 0.16703 4.97464C-0.24022 3.81589 0.125405 2.57052 0.957905 1.73802L2.12115 0.574766Z" fill="#1C2026"/>
</g>
<defs>
<clipPath id="clip0_316_2812">
<rect width="18" height="18" fill="white"/>
</clipPath>
</defs>
</svg>
