<svg width="16" height="14" viewBox="0 0 16 14" fill="none" xmlns="http://www.w3.org/2000/svg">
<g id="Group 37944">
<g id="Group">
<g id="Group_2">
<path id="Vector" d="M8.08663 2.40602C10.7824 2.43247 12.4711 2.26475 12.6992 5.25267H15.9865C15.9865 0.623911 11.9496 0 8.00106 0C4.05222 0 0.015625 0.623911 0.015625 5.25267H3.27739C3.52975 2.2078 5.41331 2.37988 8.08663 2.40602Z" fill="#1C2026"/>
<path id="Vector_2" d="M1.64644 6.74074C2.4471 6.74074 3.11333 6.78866 3.26145 6.00107C3.28136 5.89402 3.29288 5.77267 3.29288 5.63232H3.25491H0C0 6.80391 0.737179 6.74074 1.64644 6.74074Z" fill="#1C2026"/>
<path id="Vector_3" d="M12.7222 5.63232H12.6914C12.6914 5.7736 12.7035 5.89527 12.7263 6.00107C12.8825 6.72736 13.5478 6.68224 14.3456 6.68224C15.2592 6.68224 15.9998 6.74229 15.9998 5.63232H12.7222Z" fill="#1C2026"/>
<path id="Vector_4" d="M11.1152 4.8346V4.36907C11.1152 4.1609 10.8753 4.14783 10.579 4.14783H10.0951C9.7992 4.14783 9.55928 4.1609 9.55928 4.36907V4.77018V5.08136H6.13633V4.77018V4.36907C6.13633 4.1609 5.89641 4.14783 5.60048 4.14783H5.11629C4.82036 4.14783 4.58045 4.1609 4.58045 4.36907V4.8346V5.24099C3.80063 6.0513 1.24898 9.5007 1.15625 9.9183L1.15749 12.7049C1.15749 12.9622 1.36692 13.1717 1.62426 13.1717H14.0714C14.3287 13.1717 14.5381 12.9622 14.5381 12.7049V9.9043C14.4463 9.49883 11.8953 6.05099 11.1152 5.24068V4.8346ZM5.96767 10.2933C5.71718 10.2933 5.51398 10.0904 5.51398 9.83957C5.51398 9.58876 5.71718 9.38587 5.96767 9.38587C6.21817 9.38587 6.42137 9.58876 6.42137 9.83957C6.42137 10.0904 6.21817 10.2933 5.96767 10.2933ZM5.96767 8.73738C5.71718 8.73738 5.51398 8.53449 5.51398 8.28368C5.51398 8.03288 5.71718 7.82999 5.96767 7.82999C6.21817 7.82999 6.42137 8.03288 6.42137 8.28368C6.42137 8.53449 6.21817 8.73738 5.96767 8.73738ZM5.96767 7.18181C5.71718 7.18181 5.51398 6.97892 5.51398 6.72811C5.51398 6.47761 5.71718 6.27441 5.96767 6.27441C6.21817 6.27441 6.42137 6.47761 6.42137 6.72811C6.42137 6.97892 6.21817 7.18181 5.96767 7.18181ZM7.83474 10.2933C7.58424 10.2933 7.38104 10.0904 7.38104 9.83957C7.38104 9.58876 7.58424 9.38587 7.83474 9.38587C8.08555 9.38587 8.28843 9.58876 8.28843 9.83957C8.28843 10.0904 8.08555 10.2933 7.83474 10.2933ZM7.83474 8.73738C7.58424 8.73738 7.38104 8.53449 7.38104 8.28368C7.38104 8.03288 7.58424 7.82999 7.83474 7.82999C8.08555 7.82999 8.28843 8.03288 8.28843 8.28368C8.28843 8.53449 8.08555 8.73738 7.83474 8.73738ZM7.83474 7.18181C7.58424 7.18181 7.38104 6.97892 7.38104 6.72811C7.38104 6.47761 7.58424 6.27441 7.83474 6.27441C8.08555 6.27441 8.28843 6.47761 8.28843 6.72811C8.28843 6.97892 8.08555 7.18181 7.83474 7.18181ZM9.7018 10.2933C9.45099 10.2933 9.24811 10.0904 9.24811 9.83957C9.24811 9.58876 9.45099 9.38587 9.7018 9.38587C9.95261 9.38587 10.1555 9.58876 10.1555 9.83957C10.1555 10.0904 9.95261 10.2933 9.7018 10.2933ZM9.7018 8.73738C9.45099 8.73738 9.24811 8.53449 9.24811 8.28368C9.24811 8.03288 9.45099 7.82999 9.7018 7.82999C9.95261 7.82999 10.1555 8.03288 10.1555 8.28368C10.1555 8.53449 9.95261 8.73738 9.7018 8.73738ZM9.7018 7.18181C9.45099 7.18181 9.24811 6.97892 9.24811 6.72811C9.24811 6.47761 9.45099 6.27441 9.7018 6.27441C9.95261 6.27441 10.1555 6.47761 10.1555 6.72811C10.1555 6.97892 9.95261 7.18181 9.7018 7.18181Z" fill="#1C2026"/>
</g>
</g>
</g>
</svg>
