<svg width="18" height="18" viewBox="0 0 18 18" fill="none" xmlns="http://www.w3.org/2000/svg">
<path id="Vector" d="M9 0C4.03724 0 0 4.03724 0 9C0 13.9627 4.03724 18 9 18C13.9627 18 18 13.9627 18 9C18 4.03724 13.9627 0 9 0ZM11.7803 9.53026L8.03025 13.2803C7.884 13.4265 7.69201 13.5 7.49999 13.5C7.308 13.5 7.11598 13.4265 6.96973 13.2803C6.67649 12.987 6.67649 12.513 6.96973 12.2198L10.1895 9L6.96976 5.78025C6.67652 5.48701 6.67652 5.013 6.96976 4.71976C7.263 4.42652 7.73701 4.42652 8.03025 4.71976L11.7803 8.46977C12.0735 8.76301 12.0735 9.23699 11.7803 9.53026Z" fill="#F26521"/>
</svg>
