<svg width="22" height="15" viewBox="0 0 22 15" fill="none" xmlns="http://www.w3.org/2000/svg">
<g id="Vector">
<path fill-rule="evenodd" clip-rule="evenodd" d="M10.0619 4.17698C10.123 4.11515 10.1956 4.0661 10.2755 4.03264C10.3555 3.99917 10.4412 3.98194 10.5277 3.98194C10.6143 3.98194 10.7 3.99917 10.7799 4.03264C10.8599 4.0661 10.9325 4.11515 10.9936 4.17698L13.6255 6.83242C13.6867 6.89414 13.7352 6.96742 13.7683 7.04806C13.8015 7.12871 13.8185 7.21514 13.8185 7.30243C13.8185 7.38972 13.8015 7.47616 13.7683 7.5568C13.7352 7.63745 13.6867 7.71072 13.6255 7.77245C13.5644 7.83417 13.4917 7.88313 13.4118 7.91654C13.3319 7.94994 13.2462 7.96713 13.1597 7.96713C13.0732 7.96713 12.9875 7.94994 12.9076 7.91654C12.8276 7.88313 12.755 7.83417 12.6938 7.77245L11.1857 6.24955V11.2856C11.1857 11.4617 11.1164 11.6305 10.993 11.755C10.8696 11.8795 10.7022 11.9495 10.5277 11.9495C10.3532 11.9495 10.1859 11.8795 10.0625 11.755C9.93907 11.6305 9.86975 11.4617 9.86975 11.2856V6.24955L8.36164 7.77245C8.23809 7.8971 8.07052 7.96713 7.89579 7.96713C7.72106 7.96713 7.55349 7.8971 7.42993 7.77245C7.30638 7.64779 7.23697 7.47872 7.23697 7.30243C7.23697 7.12614 7.30638 6.95707 7.42993 6.83242L10.0619 4.17698Z" fill="#374957"/>
<path d="M5.79817 1.7818C7.11346 0.637486 8.79101 0.0054948 10.5278 0C14.0677 0 17.0063 2.65544 17.3261 6.07964C19.4211 6.37838 21.0556 8.14823 21.0556 10.3204C21.0556 12.705 19.0842 14.6049 16.6957 14.6049H4.97569C2.24768 14.6049 0 12.4354 0 9.71627C0 7.37549 1.66602 5.43702 3.87159 4.94576C4.05977 3.79994 4.79014 2.6581 5.79817 1.7818ZM6.6575 2.78689C5.66131 3.65389 5.14019 4.69881 5.14019 5.51668V6.1115L4.55458 6.17656C2.71617 6.3797 1.31597 7.9026 1.31597 9.71627C1.31597 11.664 2.93462 13.2772 4.97569 13.2772H16.6957C18.3973 13.2772 19.7396 11.9336 19.7396 10.3204C19.7396 8.70587 18.3973 7.36222 16.6957 7.36222H16.0378V6.69836C16.0391 3.75081 13.5914 1.32772 10.5278 1.32772C9.10636 1.33345 7.73376 1.85142 6.6575 2.78822V2.78689Z" fill="#374957"/>
</g>
</svg>
