<svg width="59" height="59" viewBox="0 0 59 59" fill="none" xmlns="http://www.w3.org/2000/svg">
<path id="Union" fill-rule="evenodd" clip-rule="evenodd" d="M17.1805 8.42826C16.3153 8.44956 15.7133 7.38394 16.1727 6.60313C20.3152 -0.909769 28.1472 0.01527 28.4791 0.0566533C29.1172 0.13942 29.5702 0.74739 29.491 1.41439C29.4118 2.08018 28.8343 2.55 28.1944 2.47271C27.9114 2.43741 21.5448 1.73511 18.1907 7.81846C17.9752 8.20978 17.5834 8.42826 17.1805 8.42826ZM21.2565 10.0055C20.7521 10.7489 21.3463 11.8229 22.2244 11.7996C22.6032 11.799 22.9746 11.6104 23.194 11.2641C24.763 8.79465 28.182 9.07873 28.2505 9.08572C29.7533 9.21262 29.9848 6.95103 28.482 6.76882C28.2839 6.74903 23.6057 6.30835 21.2565 10.0055ZM42.888 17.5243C46.1517 22.1014 46.4205 28.1383 43.4313 32.6505C40.8602 36.5793 39.2605 41.1686 38.8954 45.9833L38.5981 49.7967C42.1841 52.2323 40.2199 58.3152 35.7935 58.154C34.856 58.154 33.9413 57.8763 33.1514 57.3428L2.04168 36.3119C-2.95364 32.9141 2.17082 25.3994 7.20767 28.5833C12.6815 26.1277 17.8103 22.5131 20.9461 17.3607C24.1105 12.5108 30.5623 10.6919 35.979 12.4653L36.809 11.2358C40.1128 6.54991 46.9636 11.0977 43.9032 15.9971C43.724 16.2111 43.5448 16.5001 43.3548 16.8065L43.3547 16.8066C43.2074 17.0442 43.0535 17.2924 42.888 17.5243ZM40.9794 16.0268C40.7601 16.0597 40.5475 16.1578 40.3704 16.3229C39.8946 16.7665 39.8575 17.5248 40.2858 18.0163C43.6423 21.8635 44.1494 27.3245 41.4989 31.3263C38.7116 35.589 36.9815 40.5722 36.5845 45.7915L36.3885 48.3063L9.55112 30.1641C14.9543 27.6691 19.8409 23.7116 22.9592 18.7115C25.7227 14.4729 31.684 13.138 36.2629 15.1852C37.2506 15.5977 37.9885 14.7206 37.9248 13.9113L37.9789 13.8214C38.5119 12.9355 39.1666 11.8472 40.1446 11.7366C41.7075 11.4019 42.8353 13.3603 41.9256 14.6212C41.8656 14.6969 41.7265 14.909 41.5604 15.1623L41.5604 15.1623C41.3762 15.4432 41.1588 15.7747 40.9794 16.0268ZM6.78768 31.1543C6.53006 31.0911 6.32016 30.9374 6.16928 30.7362L5.99455 30.6181C4.4005 29.4531 1.99149 30.9924 2.43063 32.909C2.54356 33.5057 2.88531 34.0227 3.39256 34.3658L34.5017 55.3967C36.9281 57.0952 39.6024 53.279 37.1043 51.6489L6.78768 31.1543ZM18.3744 58.9991C14.426 59.0623 10.974 55.7772 10.9579 51.9572C10.9303 49.9491 11.721 48.0786 13.1856 46.689C13.5945 46.3014 14.23 46.2463 14.703 46.5607L24.7646 53.2348C25.2352 53.5469 25.4133 54.137 25.1902 54.6453C24.0116 57.3345 21.3018 58.9991 18.3744 58.9991ZM14.2384 49.0666C10.579 54.4184 18.7311 59.7707 22.5212 54.5605L14.2384 49.0666ZM49.1054 30.925C48.5714 31.6717 49.0803 32.9009 49.8886 32.8709C50.1819 32.8709 50.4728 32.7181 50.6718 32.4226C50.7801 32.2614 53.3113 28.4194 51.7499 24.2987C51.1848 22.873 49.3992 23.8445 49.9222 25.2875C50.9661 28.0413 49.141 30.8705 49.1054 30.925ZM55.2088 36.2329C54.2404 36.2645 53.4626 34.9641 54.2968 34.2745C54.5107 34.0972 58.5919 28.9482 55.4625 22.8111C55.1637 22.2242 55.3942 21.5047 55.9783 21.2038C56.5617 20.9017 57.2783 21.1345 57.5777 21.722C61.4308 29.2312 56.3603 36.5505 55.2088 36.2329ZM17.6581 27.9301C16.3529 28.4115 16.7422 30.3766 18.1099 30.3424C21.2075 29.6756 24.2221 25.5936 24.2066 25.5638C25.1232 24.2108 23.1434 22.8105 22.1841 24.1287C21.6215 24.9292 19.7122 27.173 17.6581 27.9301Z" fill="white"/>
</svg>
